<?xml version="1.0" standalone="no"?>
<!DOCTYPE svg PUBLIC "-//W3C//DTD SVG 1.1//EN" "http://www.w3.org/Graphics/SVG/1.1/DTD/svg11.dtd" >
<svg xmlns="http://www.w3.org/2000/svg" xmlns:xlink="http://www.w3.org/1999/xlink" version="1.1">
<metadata>
Created by FontForge 20170731 at Wed Jun 21 17:20:27 2023
 By Aleksey,,,
Copyright (c) 2020 by MadeType. All rights reserved.
</metadata>
<defs>
<font id="MADEGentle" horiz-adv-x="1601" >
  <font-face 
    font-family="MADE Gentle"
    font-weight="400"
    font-stretch="normal"
    units-per-em="2048"
    panose-1="2 0 5 3 0 0 0 2 0 4"
    ascent="1638"
    descent="-410"
    x-height="987"
    cap-height="1440"
    bbox="-280.263 -731.696 2705 2105"
    underline-thickness="102"
    underline-position="-307"
    unicode-range="U+0020-2260"
  />
<missing-glyph horiz-adv-x="409" 
 />
    <glyph glyph-name=".notdef" horiz-adv-x="409" 
 />
    <glyph glyph-name=".null" horiz-adv-x="0" 
 />
    <glyph glyph-name="nonmarkingreturn" horiz-adv-x="682" 
 />
    <glyph glyph-name="space" unicode=" " horiz-adv-x="409" 
 />
    <glyph glyph-name="exclam" unicode="!" horiz-adv-x="565" 
d="M283 344q80 0 135 -49.5t55 -132.5q0 -84 -55 -133t-135 -49t-134.5 48.5t-54.5 133.5q0 83 54.5 132.5t134.5 49.5zM283 1454q115 0 167.5 -59.5t41.5 -161.5q-17 -168 -39 -308.5t-34 -200t-40 -185.5q-15 -62 -36 -86.5t-60 -24.5q-38 0 -60 25t-35 86
q-73 311 -114 694q-9 102 43.5 161.5t165.5 59.5z" />
    <glyph glyph-name="quotedbl" unicode="&#x22;" horiz-adv-x="888" 
d="M236 1483q51 0 87 -17t52 -46t21 -66.5t-5 -79.5q-7 -33 -28 -158.5t-37 -171.5q-21 -70 -90 -70q-72 0 -93 70q-15 45 -34.5 164t-30.5 166q-19 91 19 150t139 59zM653 1483q101 0 139 -59t19 -150q-10 -45 -30.5 -165t-35.5 -165q-21 -70 -92 -70t-92 70
q-14 45 -34 166.5t-29 163.5q-19 91 17.5 150t137.5 59z" />
    <glyph glyph-name="numbersign" unicode="#" horiz-adv-x="1417" 
d="M1264 848h-207q-9 -42 -26.5 -128t-26.5 -128h184q80 0 80 -96q0 -95 -80 -95h-223q-16 -80 -33 -161.5t-25.5 -125t-9.5 -46.5q-16 -82 -94 -82q-43 0 -72.5 19.5t-21.5 62.5q3 19 67 333h-272q-16 -75 -33.5 -160.5t-26 -127t-10.5 -45.5q-13 -82 -94 -82
q-42 0 -71.5 19.5t-22.5 62.5q8 49 69 333h-163q-80 0 -80 95q0 96 80 96h200q47 220 54 256h-177q-82 0 -82 96q0 94 82 94h215q30 140 68 330q10 45 33.5 63.5t62.5 18.5q43 0 72.5 -19.5t21.5 -62.5q-30 -150 -69 -330h274q16 80 32.5 160t26 124.5t9.5 45.5q16 82 94 82
q43 0 72.5 -19.5t21.5 -62.5q-30 -150 -67 -330h168q44 0 63 -27t19 -67q0 -96 -82 -96zM815 592q15 78 53 256h-272q-38 -178 -53 -256h272z" />
    <glyph glyph-name="dollar" unicode="$" horiz-adv-x="1306" 
d="M821 889q93 -32 163 -65t125.5 -72t89.5 -84t51 -99.5t14 -119.5t-25 -144q-37 -137 -171.5 -223t-315.5 -100v-183q0 -45 -21 -63.5t-61 -18.5q-80 0 -80 82v187q-38 5 -98 18t-92 18t-78 -1t-89 -31q-47 -27 -91.5 -4.5t-53.5 73.5q-7 33 -16 104t-18.5 161t-10.5 100
q-6 53 11.5 92t49.5 39h5q28 0 51 -22t41 -57t38.5 -78.5t48.5 -87.5t64.5 -81.5t93.5 -64t129 -31.5q126 -9 193 31.5t78 114.5q12 76 -43.5 128t-227.5 117q-73 27 -129.5 52t-114.5 59.5t-99 71t-74 85t-46.5 103t-11 124t26.5 148.5q21 70 68.5 124.5t112 88t135 51.5
t147.5 23v182q0 44 20.5 62t59.5 18q40 0 61 -17.5t21 -62.5v-192q18 -3 61.5 -13.5t61.5 -12.5t54.5 3.5t78.5 22.5q51 21 93.5 0.5t51.5 -68.5q27 -144 43 -325q6 -53 -10.5 -86t-50.5 -33h-2q-32 0 -64 27.5t-58 68t-60.5 88.5t-69 88.5t-86.5 68t-111 27.5
q-64 0 -114.5 -28.5t-63.5 -77.5q-26 -99 44 -167.5t271 -137.5z" />
    <glyph glyph-name="percent" unicode="%" horiz-adv-x="1892" 
d="M473 1454q105 0 195.5 -46t148 -136t57.5 -205t-57.5 -205t-148 -136t-195.5 -46t-195.5 46t-148 136t-57.5 205t57.5 205t148 136t195.5 46zM473 823q54 0 81.5 66t27.5 178t-27.5 179t-81.5 67q-52 0 -79 -67t-27 -179t27 -178t79 -66zM1419 756q78 0 150.5 -27.5
t128.5 -76.5t89.5 -122.5t33.5 -160.5t-33.5 -161t-89.5 -123t-128.5 -77t-150.5 -28q-105 0 -195.5 46.5t-148 137t-57.5 205.5t57.5 205t148 136t195.5 46zM1419 123q52 0 80.5 67.5t28.5 178.5q0 109 -28.5 176t-80.5 67q-54 0 -81 -66t-27 -177q0 -112 27 -179t81 -67z
M1298 1380q28 42 49.5 59t55.5 17q43 0 73 -29.5t1 -74.5q-9 -12 -145 -214t-293 -435t-296 -439t-143 -213q-27 -42 -47 -56.5t-55 -14.5q-45 0 -74.5 29.5t2.5 76.5q18 28 439.5 653t432.5 641z" />
    <glyph glyph-name="ampersand" unicode="&#x26;" horiz-adv-x="1665" 
d="M1255 322q63 -54 127.5 -83.5t108 -35t79 -9.5t50.5 -17.5t12 -47.5q-6 -64 -85.5 -109.5t-174.5 -39.5q-89 4 -190 50.5t-162 98.5q-2 2 -6 5t-6 5q-129 -159 -363 -159q-266 0 -435 110t-169 293q0 152 83.5 247t242.5 132q-110 73 -159.5 168t-23.5 225q19 91 90 161
t168 105t201 35q185 0 315.5 -83.5t145.5 -219.5q17 -134 -76.5 -237t-241.5 -138q19 -19 100.5 -100t131.5 -131q17 47 26 70.5t28.5 67.5t35 68.5t42 57.5t53 50.5t64 32t79.5 17.5q132 8 190 -76q44 -65 22 -142q-21 -74 -87 -100q-27 -11 -58 -11q-38 0 -76.5 15.5
t-58.5 25.5t-44.5 3.5t-49.5 -50t-58 -134.5q111 -107 129 -120zM657 1313q-75 0 -123.5 -50t-46.5 -122q1 -29 14 -59t25 -49.5t46.5 -54t48.5 -47t61 -54.5q68 54 101 109.5t40 133.5q9 86 -40 139.5t-126 53.5zM688 143q119 -3 199 111q-283 278 -369 364
q-67 -111 -67 -217q-3 -119 66.5 -186t170.5 -72z" />
    <glyph glyph-name="quotesingle" unicode="'" horiz-adv-x="471" 
d="M236 1483q101 0 138 -59.5t17 -149.5q-9 -42 -29 -163.5t-34 -166.5q-21 -70 -92 -70q-72 0 -93 70q-15 45 -34.5 164t-30.5 166q-19 91 19 150t139 59z" />
    <glyph glyph-name="parenleft" unicode="(" horiz-adv-x="591" 
d="M537 1554q7 -14 -4.5 -51t-34.5 -103.5t-46.5 -153.5t-41 -228t-17.5 -301t17.5 -301t41 -227.5t46.5 -153t34.5 -103.5t4.5 -51q-26 -52 -103 0q-92 61 -185 215q-144 239 -171 510q-6 56 -6 111q0 288 143 560q91 173 194 258q83 68 119 32q5 -6 9 -13z" />
    <glyph glyph-name="parenright" unicode=")" horiz-adv-x="593" 
d="M55 1554q26 51 104 -1q92 -61 185 -215q144 -238 172 -510q6 -56 6 -111q0 -286 -142 -557q-92 -174 -196 -260q-83 -69 -120 -32q-5 5 -9 13q-7 14 4.5 51t34.5 103.5t46.5 153t41 227.5t17.5 301t-17.5 301t-41 228t-46.5 153.5t-34.5 103.5t-4.5 51z" />
    <glyph glyph-name="asterisk" unicode="*" horiz-adv-x="1005" 
d="M924 1800q25 -67 -11 -108.5t-102 -49.5q-161 -20 -199 -24q47 -37 150 -133q31 -28 46 -60.5t5.5 -69t-49.5 -65.5q-41 -30 -77.5 -26t-63 27.5t-43.5 62.5q-12 28 -29 66t-29 66t-22 52q-10 -27 -78 -184q-17 -39 -43.5 -62.5t-63 -27.5t-77.5 26q-40 29 -49.5 65.5
t5.5 69t46 60.5q95 89 149 133q-13 1 -194 24q-66 8 -102 49.5t-11 108.5q16 46 48 65t67 14.5t71 -26.5q144 -87 164 -100q-8 31 -21.5 94.5t-21.5 98.5q-13 66 14 112.5t99 46.5t98.5 -46.5t13.5 -112.5q-25 -121 -43 -195q27 18 166 102q37 22 72 26.5t67 -14.5t48 -65z
" />
    <glyph glyph-name="plus" unicode="+" horiz-adv-x="942" 
d="M788 807q44 0 63 -27t19 -67q0 -42 -19 -69.5t-63 -27.5h-223v-223q0 -80 -94 -80t-94 80v223h-223q-82 0 -82 97q0 94 82 94h223v223q0 80 94 80t94 -80v-223h223z" />
    <glyph glyph-name="comma" unicode="," horiz-adv-x="509" 
d="M256 344q78 -3 128.5 -58.5t51.5 -148.5q1 -52 -10 -104.5t-30.5 -96.5t-44.5 -84.5t-52 -67t-54 -46t-50.5 -20.5t-40.5 10q-21 11 -14 38.5t24 51.5t35 61.5t18 67.5q0 17 -15 32t-36.5 29t-42.5 32t-36 49.5t-15 72.5q0 83 52 134t132 48z" />
    <glyph glyph-name="hyphen" unicode="-" horiz-adv-x="901" 
d="M748 793q46 0 63.5 -20.5t17.5 -59.5t-17.5 -60.5t-63.5 -21.5h-594q-46 0 -64 21.5t-18 60.5t18 59.5t64 20.5h594z" />
    <glyph glyph-name="period" unicode="." horiz-adv-x="522" 
d="M262 344q80 0 134.5 -49.5t54.5 -132.5q0 -85 -54.5 -133.5t-134.5 -48.5t-135 49t-55 133q0 83 55 132.5t135 49.5z" />
    <glyph glyph-name="slash" unicode="/" horiz-adv-x="890" 
d="M633 1479q16 43 41 59t63 16q42 0 67 -26t7 -78q-8 -21 -280 -755.5t-275 -741.5q-16 -43 -40.5 -57.5t-63.5 -14.5q-42 0 -67 27t-5 80q12 35 277.5 749.5t275.5 741.5z" />
    <glyph glyph-name="zero" unicode="0" horiz-adv-x="1439" 
d="M721 1454q139 0 259 -54.5t205.5 -151t134 -234t48.5 -297.5q0 -161 -48.5 -298.5t-134 -233.5t-205.5 -150.5t-259 -54.5q-187 0 -334.5 92.5t-231 261t-83.5 383.5q0 160 48.5 297.5t134 234t206 151t260.5 54.5zM770 145q85 8 123 162.5t14 425.5q-24 270 -88 415.5
t-149 139.5q-84 -8 -122.5 -163.5t-15.5 -424.5q24 -271 88.5 -416t149.5 -139z" />
    <glyph glyph-name="one" unicode="1" horiz-adv-x="749" 
d="M610 289q0 -42 17 -76t34 -62.5t17 -56.5v-4q0 -96 -277 -96q-276 0 -276 96v4q0 28 17 56.5t34 62t17 76.5v762q0 34 -19 56.5t-41.5 31.5t-41.5 25.5t-19 39.5v4q0 113 297 217q68 25 121 29.5t86.5 -19t33.5 -75.5v-1071z" />
    <glyph glyph-name="two" unicode="2" horiz-adv-x="1263" 
d="M1085 461q35 0 57.5 -27.5t16.5 -77.5q-12 -129 -43 -299q-11 -48 -33.5 -70t-64.5 -22q-31 0 -88.5 17.5t-116.5 17.5h-610q-101 0 -101 109q0 42 16 71.5t54 65.5q102 104 164.5 172t129 150t103.5 148t64 143t35 157q12 144 -13.5 216.5t-89.5 65.5q-28 -3 -47 -36
t-29 -78t-27.5 -94.5t-43 -85.5t-75 -52t-122.5 6q-64 19 -90 78.5t-11 129t60 120.5q68 81 180 124.5t248 43.5q85 0 162 -16t143 -50t113 -83.5t71.5 -121t18.5 -157.5q-7 -88 -46 -178t-97.5 -167t-139.5 -154.5t-163.5 -139.5t-177.5 -123h253q53 0 94.5 20.5t68 49
t50 57.5t54.5 49.5t69 20.5h4z" />
    <glyph glyph-name="three" unicode="3" horiz-adv-x="1267" 
d="M801 838q207 -27 308.5 -142.5t82.5 -287.5q-22 -196 -179.5 -312t-400.5 -116q-155 0 -289 49t-200 131q-33 39 -44 96.5t1.5 111t59 91.5t118.5 39q66 1 109.5 -32t65 -83t39 -101t45 -91t69.5 -48q71 -12 118.5 56t47.5 184q0 143 -51 205t-183 65q-90 4 -90 84
q0 9 2 18t7.5 21t12 22t20 28t26 33.5t35 42.5t42.5 50.5t54 63t63 74.5h-164q-53 0 -93 -17.5t-63 -42.5t-43.5 -50t-47.5 -42.5t-62 -17.5h-4q-35 0 -57.5 26.5t-16.5 77.5q2 13 19 151.5t24 198.5q11 94 99 94q31 0 88 -17t116 -17h523q73 0 108.5 -37t31 -87t-39.5 -93
q-199 -244 -307 -379z" />
    <glyph glyph-name="four" unicode="4" horiz-adv-x="1263" 
d="M1149 506q46 0 70 -22.5t24 -59.5q0 -36 -24 -58t-70 -22h-82v-55q0 -43 17 -76.5t34 -62t17 -56.5v-4q0 -96 -277 -96q-276 0 -276 96v4q0 28 17 56.5t33.5 62t16.5 76.5v55h-516q-72 0 -94 56t29 135q161 229 516 768q88 137 266 137q39 0 74.5 -7t69 -22.5t53.5 -45.5
t20 -71v-788h82zM244 506h405v596z" />
    <glyph glyph-name="five" unicode="5" horiz-adv-x="1265" 
d="M643 895q258 17 400.5 -97t142.5 -325q0 -228 -159 -360.5t-417 -132.5q-143 0 -271.5 48.5t-203.5 131.5q-36 41 -47.5 98t2.5 107.5t59 86t113 35.5q51 0 87 -18.5t55 -47.5t32 -64.5t24 -71.5t24 -66.5t38 -51t62 -24.5q79 -7 127.5 74t48.5 219q0 152 -46 225
t-157 74q-62 1 -114.5 -20.5t-94.5 -41t-82 -16.5q-36 3 -56 25.5t-17 60.5q4 47 33 299.5t32 282.5q6 56 36.5 82.5t88.5 26.5h604q80 0 115 -45.5t35 -118.5q0 -77 -39 -128.5t-127 -51.5h-563q-24 -186 -31 -271q135 69 266 76z" />
    <glyph glyph-name="six" unicode="6" horiz-adv-x="1267" 
d="M750 915q124 0 224 -50t160 -148.5t60 -229.5q0 -221 -155.5 -364t-395.5 -143q-118 0 -222 33t-188 98t-135 173t-55 248q-6 161 35.5 302t119.5 247t186 185.5t234.5 126t266.5 61.5q68 7 106.5 -7.5t42.5 -57.5q3 -37 -25.5 -57.5t-97.5 -45.5q-99 -35 -178.5 -89.5
t-130 -117.5t-81 -125t-42.5 -125q96 86 271 86zM627 147q72 0 112.5 82.5t40.5 216.5q0 135 -40.5 218.5t-112.5 83.5q-71 0 -111.5 -83.5t-40.5 -218.5q0 -133 40.5 -216t111.5 -83z" />
    <glyph glyph-name="seven" unicode="7" horiz-adv-x="1118" 
d="M1006 1434q66 0 85 -48t-16 -102q-149 -260 -241.5 -572t-92.5 -575q0 -89 -51.5 -123t-146.5 -34q-34 0 -58.5 2t-56 12t-52 27t-34.5 49t-14 77q0 138 71.5 312t174 328.5t231.5 302.5h-375q-53 0 -92.5 -17.5t-62.5 -42.5t-43.5 -50t-47.5 -42.5t-63 -17.5h-2
q-37 0 -59.5 26.5t-16.5 77.5q23 189 45 350q11 94 98 94q30 0 87 -17t118 -17h615z" />
    <glyph glyph-name="eight" unicode="8" horiz-adv-x="1271" 
d="M901 805q178 -67 264 -173t60 -278q-27 -165 -187.5 -269.5t-402.5 -104.5q-88 0 -177 17.5t-170 53t-140.5 85t-87.5 119t-13 148.5q22 119 103.5 192t203.5 101q-91 44 -148.5 100.5t-80.5 119.5t-20 129.5t30 138.5q32 86 112 148.5t180.5 92t207.5 29.5
q126 0 238 -35t190 -108.5t88 -171.5q11 -125 -61 -212t-189 -122zM639 1298q-67 0 -113.5 -43t-46.5 -114q0 -83 48.5 -134.5t170.5 -107.5q53 63 77.5 108.5t27.5 108.5q3 84 -45 133t-119 49zM635 143q86 0 136 56t44 145q-6 90 -68 149t-192 113q-44 -40 -76.5 -103.5
t-38.5 -117.5q-14 -116 41 -179t154 -63z" />
    <glyph glyph-name="nine" unicode="9" horiz-adv-x="1269" 
d="M1227 903q7 -201 -58 -369t-183.5 -281.5t-272.5 -182.5t-330 -88q-142 -17 -147 63q-3 38 25 59t97 46q98 35 177.5 89.5t130 117t81.5 124.5t44 125q-98 -88 -271 -88q-124 0 -224.5 50.5t-161 149.5t-60.5 230q0 145 71.5 261t197.5 180.5t284 64.5q93 0 178 -20
t160.5 -63.5t132 -107t91 -156t38.5 -204.5zM641 688q72 0 113 83t41 216q0 135 -41 218t-113 83q-71 0 -111.5 -83t-40.5 -218q0 -133 40.5 -216t111.5 -83z" />
    <glyph glyph-name="colon" unicode=":" horiz-adv-x="522" 
d="M262 344q80 0 134.5 -49.5t54.5 -132.5q0 -85 -54.5 -133.5t-134.5 -48.5t-135 49t-55 133q0 83 55 132.5t135 49.5zM262 569q-80 0 -135 49t-55 134q0 83 55 132.5t135 49.5t134.5 -49.5t54.5 -132.5q0 -85 -54.5 -134t-134.5 -49z" />
    <glyph glyph-name="semicolon" unicode=";" horiz-adv-x="522" 
d="M260 569q-80 0 -134 49t-54 134q0 83 54 132.5t134 49.5t135.5 -49.5t55.5 -132.5q0 -84 -55.5 -133.5t-135.5 -49.5zM262 344q79 -3 129 -58t51 -149q1 -52 -10 -104.5t-30.5 -96.5t-44.5 -84.5t-52 -67t-54 -46t-50.5 -20.5t-40.5 10q-15 15 -14.5 29.5t13 38.5
t26.5 46t26 51t12 54q0 17 -15 32t-36 29t-42.5 32t-36.5 49.5t-15 72.5q0 83 52 134t132 48z" />
    <glyph glyph-name="less" unicode="&#x3c;" horiz-adv-x="958" 
d="M842 336q42 -25 44 -90t-34 -125t-78 -41q-609 287 -649 309q-32 17 -42.5 34.5t-10.5 51.5v80q0 34 10.5 52.5t42.5 35.5q15 8 649 307q42 19 78 -40.5t34 -124t-44 -89.5l-514 -180q387 -135 514 -180z" />
    <glyph glyph-name="equal" unicode="=" horiz-adv-x="942" 
d="M154 760q-44 0 -63 27t-19 67t19 67t63 27h634q44 0 63 -27t19 -67t-19 -67t-63 -27h-634zM788 612q44 0 63 -27t19 -67t-19 -67t-63 -27h-634q-44 0 -63 27t-19 67t19 67t63 27h634z" />
    <glyph glyph-name="greater" unicode="&#x3e;" horiz-adv-x="960" 
d="M834 643q32 -17 43.5 -35.5t11.5 -52.5v-80q0 -34 -11.5 -51.5t-43.5 -34.5q-27 -15 -650 -309q-41 -19 -76.5 41t-34 125t43.5 90l514 180q-387 135 -514 180q-42 25 -43.5 89.5t34 124t76.5 40.5q16 -8 190.5 -89t306.5 -143.5t153 -74.5z" />
    <glyph glyph-name="question" unicode="?" horiz-adv-x="1081" 
d="M496 344q80 0 134 -49.5t54 -132.5q0 -85 -54 -133.5t-134 -48.5t-135.5 49t-55.5 133q0 83 55.5 132.5t135.5 49.5zM528 1454q220 0 351 -96t131 -248q0 -76 -22.5 -134.5t-58.5 -95t-79.5 -66t-87 -56.5t-79.5 -57t-58.5 -75.5t-22.5 -105.5q0 -92 -113 -92
q-112 0 -112 102q0 86 17.5 156.5t43.5 114t56.5 87.5t56.5 79t43.5 86t17.5 110q0 135 -82 135q-29 0 -47.5 -15t-26.5 -39t-14.5 -55t-11 -63t-16.5 -63t-29.5 -55t-52 -39t-82.5 -15q-98 0 -143 57t-34 135t64 148q53 72 155.5 116t235.5 44z" />
    <glyph glyph-name="at" unicode="@" horiz-adv-x="1679" 
d="M823 1454q175 0 323 -46t258 -133t172 -221t62 -302t-75 -294t-213 -151q-102 -19 -188 21t-118 129q-84 -154 -262 -154q-174 0 -284.5 108.5t-110.5 293.5q0 187 106.5 298t278.5 111q133 0 223 -70q42 27 92 43q43 16 77.5 22.5t62.5 3t43.5 -23t15.5 -53.5v-475
q0 -55 20.5 -82t57.5 -22q56 8 88.5 82.5t32.5 212.5q0 259 -175 417t-487 158q-173 0 -315.5 -75t-227.5 -215t-85 -318q0 -154 48.5 -271.5t134.5 -190t204.5 -110t257.5 -36.5t293 36q45 12 45 -32v-56q0 -43 -45 -51q-151 -35 -290.5 -31t-261 34t-221 94.5t-170.5 152
t-110 206t-39 255.5q0 213 102.5 381.5t281 261t398.5 92.5zM848 438q55 0 82.5 74.5t27.5 192.5q0 117 -27.5 191.5t-82.5 74.5t-87 -68.5t-32 -197.5t32 -198t87 -69z" />
    <glyph glyph-name="A" unicode="A" horiz-adv-x="1423" 
d="M1300 326q16 -41 51 -80.5t59 -73t24 -72.5v-4q0 -57 -66 -79.5t-209 -22.5q-136 0 -210.5 16.5t-74.5 67.5v2q0 26 13 60.5t17 56.5t-13 77l-51 132h-478l-40 -119q-15 -39 -13.5 -69.5t9.5 -45.5t17 -36.5t9 -41.5v-4q0 -49 -53.5 -72.5t-130.5 -23.5q-70 0 -120 23
t-50 67v4q0 24 17 48.5t39.5 44t48 52.5t38.5 68l324 846q15 53 11.5 75t-15 56.5t-11.5 60.5v4q0 97 207 97q112 0 159 -23t75 -90zM420 569h356l-188 480z" />
    <glyph glyph-name="B" unicode="B" horiz-adv-x="1406" 
d="M991 768q172 -21 273.5 -120t101.5 -234q0 -199 -161.5 -306.5t-442.5 -107.5h-492q-94 0 -146 21.5t-52 74.5v4q0 28 16.5 56.5t33.5 62t17 76.5v844q0 34 -10.5 62.5t-23 45.5t-23 40t-10.5 46v2q0 99 198 99h371q168 0 292 -39t197.5 -125.5t73.5 -212.5
q0 -97 -60.5 -181.5t-152.5 -107.5zM557 1139v-316h57q106 0 165 60t59 168q0 107 -48 164t-133 57q-52 0 -76 -30t-24 -103zM670 162q118 0 184 64t66 182q0 119 -66.5 186.5t-183.5 67.5h-113v-367q0 -73 24 -103t76 -30h13z" />
    <glyph glyph-name="C" unicode="C" horiz-adv-x="1468" 
d="M1364 475q25 -10 37 -35.5t0 -62.5q-62 -185 -218 -291t-368 -106q-104 0 -201.5 21t-186.5 62t-161.5 105.5t-124.5 147t-78 192t-20 235.5q7 161 71.5 296t168.5 225t241 140t291 50q60 0 121 -9t97.5 -16.5t84 -6t94.5 19.5q52 20 94.5 0.5t51.5 -68.5q7 -34 16 -111
t18 -164t11 -104q6 -51 -11 -77.5t-51 -26.5h-4q-28 0 -53.5 22.5t-48 58.5t-46.5 79t-54.5 86.5t-66 79.5t-87.5 58.5t-113 22.5q-161 0 -268 -142.5t-94 -344.5q8 -131 51.5 -231.5t107 -158t142.5 -86t157.5 -23.5t152 37t126.5 89q30 33 65 41.5t56 -4.5z" />
    <glyph glyph-name="D" unicode="D" horiz-adv-x="1529" 
d="M657 1434q205 0 366 -56t261.5 -154t152.5 -227t52 -280t-52 -280t-152.5 -227t-261.5 -154t-366 -56h-387q-198 0 -198 96v4q0 28 17 56.5t34.5 62t17.5 76.5v844q0 34 -11 62.5t-23.5 45.5t-23.5 40t-11 46v2q0 99 198 99h387zM659 162q90 0 162 44.5t117 122
t68.5 176.5t23.5 212t-23.5 212t-68.5 176.5t-117 122t-162 44.5q-54 0 -77 -29.5t-23 -103.5v-844q0 -74 23 -103.5t77 -29.5z" />
    <glyph glyph-name="E" unicode="E" horiz-adv-x="1269" 
d="M1155 434q35 0 51.5 -26.5t10.5 -77.5q-7 -78 -43 -273q-9 -48 -32 -70t-67 -22q-30 0 -88 17.5t-117 17.5h-600q-198 0 -198 96v4q0 28 17 56.5t34.5 62t17.5 76.5v844q0 34 -11 62.5t-23.5 45.5t-23.5 40t-11 46v2q0 99 198 99h559q61 0 118 17t87 17q44 0 67 -22
t32 -72q28 -129 45 -270q6 -52 -11 -78.5t-51 -26.5h-4q-32 0 -60.5 20t-48.5 50.5t-45 66t-49 66t-62 50.5t-83 20h-107q-52 0 -76 -30t-24 -103v-348h178q34 0 58.5 24t36.5 52.5t31 52.5t42 24h4q44 0 57 -54.5t13 -180.5q0 -127 -13 -181.5t-57 -54.5h-4q-23 0 -42 24
t-31 53t-36.5 53t-58.5 24h-178v-332q0 -73 24 -103t76 -30h146q53 0 96 28t71.5 68t54 80t58 68t70.5 28h2z" />
    <glyph glyph-name="F" unicode="F" horiz-adv-x="1214" 
d="M1192 1104q9 -105 -62 -105h-4q-28 0 -53 15t-44 39t-38 53.5t-40 58.5t-45 53t-56.5 39t-71.5 15h-119q-54 0 -78 -30t-24 -103v-375h193q34 0 58.5 24t36.5 53t31 53t42 24h4q43 0 56 -55t13 -181t-13 -181t-56 -55h-4q-23 0 -42 24t-31 53t-36.5 53t-58.5 24h-193
v-326q0 -36 21 -68t42 -63t21 -63v-2q0 -52 -69.5 -68t-221.5 -16q-65 0 -108 2.5t-85.5 10.5t-63.5 26t-21 45v2q0 28 17 56t34.5 62t17.5 76v865q0 34 -11 62.5t-23.5 45.5t-23.5 40t-11 46v2q0 99 198 99h574q59 0 117 17t88 17q44 0 66.5 -22t31.5 -72q34 -181 45 -270z
" />
    <glyph glyph-name="G" unicode="G" horiz-adv-x="1552" 
d="M1241 711q132 0 201 -17t69 -69v-4q0 -28 -16.5 -56.5t-33.5 -62.5t-17 -76v-336q0 -43 -19 -67t-50 -28t-66.5 4t-73.5 26q-32 14 -61 43q-95 -45 -173.5 -66.5t-185.5 -21.5q-125 0 -240.5 29.5t-216 91t-173 150t-111 215.5t-31.5 277q7 161 71 296t168.5 225t241 140
t289.5 50q60 0 121 -9t97.5 -16.5t84 -6t94.5 19.5q52 20 95 0.5t53 -68.5q6 -34 15 -112t17 -162t11 -105q6 -51 -11 -77.5t-51 -26.5h-4q-32 0 -61.5 30t-53.5 75.5t-57.5 98t-70.5 98t-96 75.5t-130 30q-104 0 -186 -68t-124.5 -182.5t-37.5 -250.5q5 -130 39 -235
t86 -172.5t118.5 -110.5t137 -57.5t141.5 -4.5v209q0 42 -17 76t-34.5 62.5t-17.5 56.5v4q0 52 69 69t201 17z" />
    <glyph glyph-name="H" unicode="H" horiz-adv-x="1585" 
d="M1513 1352q0 -32 -34.5 -86t-34.5 -107v-885q0 -34 11 -62.5t23.5 -45.5t23.5 -40t11 -46v-2q0 -27 -21 -45t-63.5 -26t-85.5 -10.5t-108 -2.5q-64 0 -107 2.5t-85.5 10.5t-63.5 26t-21 45v2q0 28 17.5 56t35 62t17.5 76v373h-471v-373q0 -42 17.5 -76t35 -62t17.5 -56
v-2q0 -27 -21 -45t-63.5 -26t-86 -10.5t-108.5 -2.5q-64 0 -106.5 2.5t-85 10.5t-63.5 26t-21 45v2q0 28 17 56t34.5 62t17.5 76v885q0 53 -34.5 107t-34.5 86v4q0 27 21 45t63.5 26t85 10.5t106.5 2.5q65 0 108.5 -2.5t86 -10.5t63.5 -26t21 -45v-4q0 -23 -11 -46t-24 -40
t-24 -45.5t-11 -61.5v-350h471v350q0 33 -11 61.5t-24 45.5t-24 40t-11 46v4q0 27 21 45t63.5 26t85.5 10.5t107 2.5q65 0 108 -2.5t85.5 -10.5t63.5 -26t21 -45v-4z" />
    <glyph glyph-name="I" unicode="I" horiz-adv-x="698" 
d="M627 1352q0 -23 -11 -46t-24 -40t-24 -45.5t-11 -61.5v-870q0 -43 17.5 -76.5t35 -62t17.5 -56.5v-4q0 -96 -277 -96q-278 0 -278 96v4q0 28 17 56.5t34.5 62t17.5 76.5v870q0 53 -34.5 107t-34.5 86v4q0 27 21 45t63.5 26t85.5 10.5t108 2.5t108 -2.5t85.5 -10.5t63 -26
t20.5 -45v-4z" />
    <glyph glyph-name="J" unicode="J" horiz-adv-x="1148" 
d="M1098 1356v-4q0 -32 -34 -86t-34 -107v-602q0 -287 -136.5 -432t-385.5 -145q-141 0 -260 51.5t-170 142.5q-29 50 -34 109.5t11 99.5q21 59 72.5 88.5t108 27t102.5 -31.5q33 -21 52.5 -52t25.5 -63t8.5 -67.5t-0.5 -65.5q-5 -76 82 -76q61 0 83.5 64t22.5 244v708
q0 53 -33.5 107t-33.5 86v4q0 27 20.5 45t62.5 26t85 10.5t108 2.5t108 -2.5t85.5 -10.5t63 -26t20.5 -45z" />
    <glyph glyph-name="K" unicode="K" horiz-adv-x="1482" 
d="M1321 309q19 -29 53.5 -59t61 -49.5t47 -47.5t20.5 -59v-4q0 -22 -11.5 -38.5t-35.5 -26.5t-51 -16.5t-68.5 -9.5t-76 -4t-84.5 -1q-66 0 -111.5 2.5t-92.5 10.5t-71 26t-24 45v2q0 22 10.5 47t20 43t7.5 45.5t-22 58.5l-234 365l-102 -107v-243q0 -43 17.5 -76.5t35 -62
t17.5 -56.5v-4q0 -96 -277 -96q-278 0 -278 96v4q0 28 17 56.5t34.5 62t17.5 76.5v870q0 53 -34.5 107t-34.5 86v4q0 27 21 45t63.5 26t85.5 10.5t108 2.5t108 -2.5t85.5 -10.5t63 -26t20.5 -45v-4q0 -23 -11 -46t-24 -40t-24 -45.5t-11 -61.5v-391l369 391q34 36 42.5 61.5
t-3 41.5t-28.5 28t-32.5 28t-15.5 34v4q0 28 16 45t53.5 25.5t80 11t114.5 2.5q119 0 172 -16.5t53 -61.5v-2q0 -37 -35 -64t-92 -57.5t-86 -60.5l-245 -260z" />
    <glyph glyph-name="L" unicode="L" horiz-adv-x="1261" 
d="M1157 461q33 0 49.5 -27t12.5 -78q-19 -160 -45 -299q-9 -48 -32 -70t-67 -22q-30 0 -88 17.5t-117 17.5h-600q-198 0 -198 96v4q0 28 17 56.5t34.5 62t17.5 76.5v864q0 53 -34.5 107t-34.5 86v4q0 27 21 45t63.5 26t85.5 10.5t108 2.5t108 -2.5t85.5 -10.5t63 -26
t20.5 -45v-4q0 -23 -11 -46t-24 -40t-24 -45.5t-11 -61.5v-864q0 -73 24 -103t78 -30h146q53 0 95 31t70.5 75t54 87.5t58 74.5t70.5 31h4z" />
    <glyph glyph-name="M" unicode="M" horiz-adv-x="1822" 
d="M1751 1352q0 -23 -11 -46t-24 -40t-24 -45.5t-11 -61.5v-870q0 -43 17.5 -76.5t35 -62t17.5 -56.5v-4q0 -96 -276 -96q-279 0 -279 96v4q0 28 17.5 56.5t35 62.5t17.5 76v860q-238 -602 -351 -873q-22 -55 -49.5 -75.5t-72.5 -20.5q-44 0 -79 21.5t-63 83.5
q-55 130 -327 745v-741q0 -34 14 -63t31 -46t31 -40t14 -46v-4q0 -49 -48 -72.5t-124 -23.5q-75 0 -122.5 23.5t-47.5 72.5v4q0 23 14 46t31 40t31 46t14 63v856q0 34 -12 62.5t-27 45.5t-27 40t-12 46v4q0 97 199 97q81 0 138.5 -8t90 -18.5t56.5 -34t33.5 -40.5t25.5 -52
q3 -6 4 -9q104 -243 264 -629q237 586 268 656q23 51 54.5 78.5t92.5 42t165 14.5q64 0 106.5 -2.5t85 -10.5t63.5 -26t21 -45v-4z" />
    <glyph glyph-name="N" unicode="N" horiz-adv-x="1515" 
d="M1294 1440q75 0 122.5 -24t47.5 -73v-4q0 -23 -14 -46t-30 -40t-30 -45.5t-14 -62.5v-985q0 -166 -135 -166q-72 0 -114 25.5t-95 91.5q-36 45 -708 909v-731q0 -34 14 -63t31 -46t31 -40t14 -46v-4q0 -49 -47.5 -72.5t-122.5 -23.5q-76 0 -124 23.5t-48 72.5v4
q0 23 14 46t31 40t31 46t14 63v856q0 34 -12 62.5t-26 45.5t-26 40t-12 46v4q0 97 199 97q104 0 162.5 -13.5t87 -35.5t69.5 -74q7 -9 248 -322.5t360 -466.5v617q0 34 -14 62.5t-30 45.5t-30 40t-14 46v4q0 49 47.5 73t122.5 24z" />
    <glyph glyph-name="O" unicode="O" 
d="M795 1454q162 0 302 -52t243 -145.5t162 -233t59 -306.5t-59 -306.5t-162 -233t-243 -145.5t-302 -52q-157 0 -295 52t-239.5 145.5t-160.5 233t-59 306.5q0 223 98 391.5t268.5 257t387.5 88.5zM842 166q125 10 187 169t40 406q-22 246 -110.5 391.5t-213.5 135.5
q-83 -7 -139.5 -82t-79 -203t-8.5 -291q22 -248 110.5 -393t213.5 -133z" />
    <glyph glyph-name="P" unicode="P" horiz-adv-x="1300" 
d="M657 1434q274 0 438.5 -129.5t164.5 -341.5q0 -210 -164.5 -339.5t-438.5 -129.5h-98v-220q0 -44 41 -100t41 -94v-2q0 -52 -69.5 -68t-221.5 -16q-43 0 -73 1t-65 3.5t-58 8.5t-43 14.5t-29.5 23t-9.5 33.5v2q0 28 17 56t34.5 62t17.5 76v865q0 34 -11 62.5t-23.5 45.5
t-23.5 40t-11 46v2q0 99 198 99h387zM604 655q80 0 135.5 45.5t79 113t23.5 149.5q0 128 -50.5 218.5t-132.5 90.5q-54 0 -77 -29.5t-23 -103.5v-484h45z" />
    <glyph glyph-name="Q" unicode="Q" 
d="M1561 717q0 -270 -146 -457t-387 -252q0 -97 45.5 -138t157.5 -13q55 12 79.5 9t39.5 -26q9 -13 1.5 -49t-28.5 -67q-47 -72 -130.5 -109t-195.5 -31q-72 4 -133.5 29.5t-111.5 73t-77.5 125.5t-23.5 178q-176 29 -313 123.5t-217 251t-80 352.5q0 223 98 391.5
t268.5 257t387.5 88.5q162 0 302 -52t243 -145.5t162 -233t59 -306.5zM850 166q83 7 139 81.5t78 202.5t8 291q-22 247 -109.5 392t-213.5 135q-125 -10 -186.5 -169t-41.5 -407q22 -248 110.5 -393t215.5 -133z" />
    <glyph glyph-name="R" unicode="R" horiz-adv-x="1406" 
d="M1415 139q6 -62 -63.5 -103.5t-196.5 -41.5q-53 0 -92.5 5.5t-78 20t-68 43.5t-50.5 74q-75 157 -176 424h-20h-111v-272q0 -42 17 -76t34 -62.5t17 -56.5v-4q0 -96 -277 -96q-278 0 -278 96v4q0 28 17 56.5t34.5 62t17.5 76.5v850q0 34 -11 62.5t-23.5 45.5t-23.5 40
t-11 46v2q0 99 200 99h398q280 0 448 -118.5t168 -326.5q0 -236 -223 -350q51 -116 105.5 -200.5t95.5 -125t75 -69.5t53.5 -52t22.5 -53zM616 723q109 0 167.5 72.5t58.5 193.5q0 123 -51.5 203t-131.5 80q-52 0 -76 -30t-24 -103v-416h57z" />
    <glyph glyph-name="S" unicode="S" horiz-adv-x="1304" 
d="M819 889q93 -32 163 -65t125.5 -72t89.5 -84t51 -99.5t14 -119.5t-25 -144q-42 -153 -202.5 -241.5t-368.5 -83.5q-59 2 -128 15.5t-110.5 23t-94.5 5t-102 -33.5q-48 -26 -92 -4t-53 71q-20 111 -43 367q-6 54 11 92.5t50 38.5h2q28 0 51 -22t41.5 -57t38.5 -78.5
t48.5 -87.5t65 -81.5t93.5 -64t129 -31.5q127 -9 193.5 31.5t77.5 114.5q12 76 -43.5 128t-227.5 117q-73 27 -129.5 52t-114.5 59.5t-99 71t-74 85t-46.5 103t-11 124t26.5 148.5q23 76 76.5 133.5t125.5 90t149 48t159 15.5q60 0 115 -11t84.5 -20t74 -6.5t97.5 25.5
q51 23 93.5 2.5t51.5 -70.5q13 -62 45 -323q5 -54 -12 -86.5t-49 -32.5h-5q-32 0 -64 27t-58 68t-60 88t-68.5 88t-86.5 68t-111 27q-65 0 -115 -27.5t-63 -76.5q-26 -99 44 -167.5t271 -137.5z" />
    <glyph glyph-name="T" unicode="T" horiz-adv-x="1447" 
d="M1405 1104q6 -52 -11 -78.5t-51 -26.5h-4q-37 0 -69 28t-58 68.5t-54 80.5t-71 68t-96 28h-59v-983q0 -42 17 -76t34.5 -62.5t17.5 -56.5v-4q0 -96 -278 -96q-277 0 -277 96v4q0 28 17.5 56.5t35 62t17.5 76.5v983h-59q-53 0 -96 -28t-71.5 -68t-54.5 -80.5t-58.5 -68.5
t-70.5 -28h-2q-73 0 -61 105q7 82 43 270q9 50 31.5 72t66.5 22q30 0 88 -17t117 -17h670q59 0 116.5 17t88.5 17q42 0 64.5 -22t33.5 -72q29 -151 43 -270z" />
    <glyph glyph-name="U" unicode="U" horiz-adv-x="1482" 
d="M1260 1440q75 0 123.5 -24t48.5 -73v-4q0 -23 -14 -46t-31.5 -40t-31.5 -45.5t-14 -62.5v-594q0 -258 -147 -416t-416 -158q-131 0 -245 35.5t-202 103.5t-139 177t-51 246v620q0 53 -34.5 107t-34.5 86v4q0 27 21 45t63.5 26t85 10.5t106.5 2.5q65 0 108.5 -2.5
t86 -10.5t63.5 -26t21 -45v-4q0 -23 -11 -46t-24 -40t-24 -45.5t-11 -61.5v-620q0 -193 92 -292.5t236 -99.5q139 0 217 107t78 291v600q0 34 -14 62.5t-31 45.5t-31 40t-14 46v4q0 49 47.5 73t122.5 24z" />
    <glyph glyph-name="V" unicode="V" horiz-adv-x="1443" 
d="M1272 1440q70 0 121 -23t51 -67v-4q0 -30 -27 -60.5t-64 -70.5t-53 -82l-401 -1049q-36 -90 -147 -90q-85 0 -129.5 23.5t-71.5 88.5l-418 1002q-14 32 -38.5 64t-44.5 52t-35 49t-15 60v2q0 58 65 81.5t207 23.5q51 0 88 -1.5t77 -6.5t65 -13.5t41 -24.5t16 -38v-4
q0 -26 -13 -60t-17 -56t12 -77l305 -774l264 758q15 40 13.5 71t-9.5 46t-17.5 37t-9.5 42v4q0 49 54 73t131 24z" />
    <glyph glyph-name="W" unicode="W" horiz-adv-x="2113" 
d="M1942 1440q70 0 121 -23t51 -67v-4q0 -30 -27 -60.5t-64 -70.5t-53 -82l-393 -1027q-8 -21 -15.5 -37t-21.5 -35t-35 -29.5t-47 -10.5q-56 0 -87.5 23.5t-55.5 88.5l-266 752l-295 -774q-36 -90 -115 -90q-58 0 -85.5 22.5t-55.5 89.5l-371 1002q-12 32 -35 64t-42.5 52
t-34.5 49t-15 60v2q0 58 65.5 81.5t208.5 23.5q136 0 210.5 -16.5t74.5 -67.5v-4q0 -26 -15 -58.5t-22 -55t6 -75.5l222 -635l286 820q11 27 17.5 40t20 27.5t34.5 19.5t53 5q37 0 58.5 -4.5t37.5 -21t24 -32.5t24 -55l264 -790l211 606q15 40 14 71t-9 46t-17 37t-9 42v4
q0 49 53.5 73t129.5 24z" />
    <glyph glyph-name="X" unicode="X" horiz-adv-x="1390" 
d="M1231 338q18 -23 68 -75t71 -87t21 -76v-4q0 -57 -65 -79.5t-208 -22.5q-44 0 -76 1t-71 3.5t-66 8.5t-51.5 14.5t-36.5 23t-12 33.5v2q0 21 8 45.5t13.5 41t-2.5 44.5t-36 63l-227 295l-190 -282q-25 -38 -28 -68t7.5 -45.5t22.5 -37.5t12 -42v-4q0 -49 -55 -72.5
t-133 -23.5q-45 0 -86 9t-71 30t-30 51v4q0 31 24.5 62t69.5 74t70 77l289 393l-305 396q-19 23 -54 61.5t-53.5 60.5t-34.5 55.5t-16 65.5v2q0 58 64.5 81.5t207.5 23.5q66 0 114 -2.5t97.5 -10.5t76 -26t26.5 -45v-4q0 -21 -9 -46t-15 -42t1 -44.5t33 -60.5l186 -241
l156 229q24 38 26.5 67t-8 45t-22.5 38t-12 42v4q0 49 55 73t133 24q45 0 86 -9t70.5 -30t29.5 -51v-4q0 -31 -24 -62t-68 -74t-69 -77l-252 -345z" />
    <glyph glyph-name="Y" unicode="Y" horiz-adv-x="1304" 
d="M1135 1440q70 0 120 -23t50 -67v-4q0 -24 -16.5 -49.5t-39 -45.5t-50 -52.5t-44.5 -65.5l-268 -519v-340q0 -42 17.5 -76t34.5 -62t17 -56v-2q0 -19 -9.5 -33.5t-29.5 -23t-43 -14.5t-58 -8.5t-65 -3.5t-73 -1t-73 1t-65 3.5t-57.5 8.5t-42.5 14.5t-29.5 23t-9.5 33.5v2
q0 28 17.5 56t35 62t17.5 76v283l-321 535q-21 34 -62.5 80.5t-64.5 83t-23 77.5v2q0 58 65.5 81.5t208.5 23.5q65 0 112.5 -2.5t97 -10.5t76 -26t26.5 -45v-4q0 -22 -10 -46t-19.5 -40.5t-9.5 -43.5t16 -59l217 -424l187 408q19 40 20.5 70t-8 45t-19.5 36t-10 41v4
q0 49 54 73t131 24z" />
    <glyph glyph-name="Z" unicode="Z" horiz-adv-x="1374" 
d="M1260 461q33 0 50 -27t11 -78q-24 -201 -45 -299q-9 -48 -31.5 -70t-66.5 -22q-30 0 -87 17.5t-118 17.5h-770q-112 0 -142 68t35 168q181 282 680 1036h-291q-53 0 -95 -31t-70.5 -75t-54 -87.5t-58 -74.5t-70.5 -31h-4q-34 0 -50.5 26t-10.5 78q25 202 45 297
q9 50 31.5 72t66.5 22q30 0 88 -17t117 -17h688q78 0 112.5 -37t25.5 -95t-54 -128q-49 -78 -351.5 -537.5t-312.5 -474.5h379q53 0 96 31t71 75t53.5 87.5t57.5 74.5t70 31h5z" />
    <glyph glyph-name="bracketleft" unicode="[" horiz-adv-x="628" 
d="M496 16q82 0 82 -82q0 -79 -82 -79h-301q-46 0 -64 20t-18 59v1526q0 39 18 59.5t64 20.5h301q82 0 82 -80q0 -82 -82 -82h-88v-1362h88z" />
    <glyph glyph-name="backslash" unicode="\" horiz-adv-x="890" 
d="M633 -45q-6 21 -265 718.5t-288 774.5q-19 54 6 80t68 26q38 0 62 -14.5t40 -56.5q19 -51 283 -763t272 -736q20 -51 -5 -77t-67 -26q-39 0 -63.5 16t-42.5 58z" />
    <glyph glyph-name="bracketright" unicode="]" horiz-adv-x="626" 
d="M514 1460v-1526q0 -38 -17.5 -58.5t-62.5 -20.5h-303q-45 0 -62.5 20.5t-17.5 58.5q0 40 17.5 61t62.5 21h88v1362h-88q-80 0 -80 82q0 39 18 59.5t62 20.5h303q44 0 62 -20.5t18 -59.5z" />
    <glyph glyph-name="asciicircum" unicode="^" horiz-adv-x="831" 
d="M504 1505q28 -30 114 -128t121 -140q18 -20 19 -41t-12 -32.5t-34.5 -13.5t-47.5 15l-248 138q-162 -87 -248 -138q-32 -20 -60.5 -13t-32.5 31.5t17 53.5q184 214 238 268q21 24 28.5 31.5t23 16t34.5 8.5q9 0 16 -1t14 -4.5l11 -5.5t11.5 -9t10.5 -9.5t12.5 -13
t12.5 -13.5z" />
    <glyph glyph-name="underscore" unicode="_" horiz-adv-x="940" 
d="M788 0q44 0 62 -20.5t18 -59.5q0 -82 -80 -82h-634q-46 0 -64 21.5t-18 60.5t18 59.5t64 20.5h634z" />
    <glyph glyph-name="grave" unicode="`" horiz-adv-x="628" 
d="M334 1436q148 -131 193 -189t20 -102q-14 -24 -37 -32.5t-70 -1.5t-100 22.5t-152 48.5q-94 32 -110.5 86t31.5 129q31 53 61.5 76.5t71.5 15.5t92 -53z" />
    <glyph glyph-name="a" unicode="a" horiz-adv-x="1144" 
d="M1022 367q0 -33 16 -61.5t35 -45.5t35 -40t16 -46v-4q0 -62 -48 -110.5t-152 -71.5q-96 -21 -165 5.5t-89 100.5q-4 11 -8 37q-35 -67 -102.5 -109t-166.5 -42q-68 0 -128.5 15t-113 45.5t-84.5 84t-34 123.5q-4 93 27.5 161t90 105.5t129.5 54.5t158 17h166v84
q0 117 -13 161t-52 50q-29 4 -48.5 -11t-29.5 -41t-22 -58t-24.5 -62t-37.5 -54t-61 -33t-95 1q-45 8 -71.5 47.5t-23.5 94.5t38 103q36 49 103 81t135.5 43.5t142.5 11.5q62 0 124 -11.5t127 -39.5t114 -70t80.5 -110t31.5 -152v-254zM516 174q88 0 88 182v117h-41
q-69 0 -105 -46.5t-36 -131.5q0 -121 94 -121z" />
    <glyph glyph-name="b" unicode="b" horiz-adv-x="1275" 
d="M750 1004q216 0 355.5 -140.5t139.5 -371.5q0 -234 -133 -373t-348 -139q-174 0 -289 94q-73 -38 -106 -49q-248 -90 -248 65v1043q0 42 -17.5 75t-35 61t-17.5 56v4q0 55 58 99t182 90q52 19 94.5 27t77.5 3.5t54.5 -29t19.5 -67.5v-512q90 64 213 64zM670 158
q67 0 106 86t39 248q0 161 -39 246t-106 85q-71 0 -106.5 -92.5t-35.5 -238.5q0 -148 35.5 -241t106.5 -93z" />
    <glyph glyph-name="c" unicode="c" horiz-adv-x="1028" 
d="M674 268q103 -2 190 60q69 57 113 18q16 -19 18.5 -60t-31 -93.5t-80.5 -100t-130 -80t-179 -32.5q-83 0 -162 19t-150.5 60t-125.5 99t-85.5 142t-31.5 183q0 221 141.5 367.5t364.5 153.5q128 6 219.5 -27t163.5 -105q36 -36 56.5 -82t14.5 -99.5t-48 -94.5
q-30 -29 -74 -38.5t-89.5 3.5t-85 62.5t-56.5 128.5q-13 64 -44.5 92t-74.5 22q-69 -9 -100 -102t-7 -227q23 -137 95.5 -201.5t177.5 -67.5z" />
    <glyph glyph-name="d" unicode="d" horiz-adv-x="1267" 
d="M1145 367q0 -34 16 -63t35 -46t35 -40t16 -46v-4q0 -62 -49.5 -110t-153.5 -70q-92 -21 -162.5 8t-88.5 98q-4 10 -9 25q-115 -139 -282 -139q-215 0 -348.5 139t-133.5 373q0 231 139.5 371.5t354.5 140.5q126 0 213 -64v193q0 42 -17 75t-34 61t-17 56v4q0 55 57.5 99
t180.5 90q52 19 95 27t78.5 3.5t55 -29t19.5 -67.5v-1085zM596 158q70 0 105.5 93.5t35.5 240.5q0 146 -35.5 238.5t-105.5 92.5q-67 0 -106 -85t-39 -246q0 -162 39 -248t106 -86z" />
    <glyph glyph-name="e" unicode="e" horiz-adv-x="1011" 
d="M821 291q5 2 17 7t17 7t15 5.5t14.5 4.5t12.5 2t13.5 0.5t11.5 -2.5t12 -6q38 -25 19 -92q-23 -83 -111 -149q-123 -93 -301 -88q-107 2 -199.5 35t-165 95t-114.5 160t-42 222q0 141 63.5 257.5t177 184.5t253.5 70q102 1 188 -29t143.5 -82t91.5 -116.5t40 -133.5
q9 -104 -21 -142t-104 -38h-432q14 -73 59.5 -120t105 -62.5t121 -12.5t115.5 23zM545 854q-68 0 -106 -64t-38 -180h187q59 0 65 52q6 26 3 59t-10 62.5t-33.5 50t-67.5 20.5z" />
    <glyph glyph-name="f" unicode="f" horiz-adv-x="798" 
d="M573 1497q145 0 252 -73t107 -189q0 -54 -35 -98t-104 -50q-53 -5 -90.5 6.5t-57 34t-32 50.5t-19 56.5t-13.5 52t-21 38.5t-36 14q-78 -3 -79 -116t71 -252h178q46 0 70 -22.5t24 -59.5t-24 -59.5t-70 -22.5h-143v-518q0 -43 16.5 -76.5t33.5 -62t17 -56.5v-4
q0 -96 -276 -96q-279 0 -279 96v4q0 28 17.5 56.5t35 62t17.5 76.5v518h-49q-46 0 -70 22.5t-24 59.5t24 59.5t70 22.5h49v88q0 189 122.5 313.5t317.5 124.5z" />
    <glyph glyph-name="g" unicode="g" horiz-adv-x="1058" 
d="M688 131q197 0 294 -62t97 -194q0 -167 -152.5 -263.5t-391.5 -96.5q-99 0 -190 15t-173 47t-133.5 90t-56.5 136q-7 103 35.5 158t109.5 62q-59 128 57 280q-149 113 -149 299q0 180 139 291t348 111q58 0 121 -13q44 107 123 183q77 77 160.5 83.5t132.5 -73.5
q20 -44 19 -85.5t-34.5 -75t-91.5 -44.5q-22 -4 -56.5 -6.5t-61.5 -7.5t-52 -17q107 -51 168.5 -140t61.5 -206q0 -181 -139.5 -291t-350.5 -110q-80 0 -168 20q-9 -35 9.5 -55.5t57 -27t89.5 -9t105 0.5q49 1 73 1zM500 866q-44 -4 -61.5 -79t-6.5 -193q9 -118 39.5 -189
t75.5 -67q43 4 60.5 79.5t6.5 192.5q-9 118 -39 188.5t-75 67.5zM543 -299q59 0 93.5 21t33.5 61q0 65 -146 65q-120 0 -211 31q2 -47 25.5 -83.5t59 -56t72.5 -29t73 -9.5z" />
    <glyph glyph-name="h" unicode="h" horiz-adv-x="1247" 
d="M1167 289q0 -43 17.5 -76.5t35 -62t17.5 -56.5v-4q0 -96 -279 -96q-276 0 -276 96v4q0 28 17.5 56.5t35 62t17.5 76.5v350q0 102 -28 146t-85 44q-49 0 -80.5 -44.5t-32.5 -133.5v-362q0 -43 17.5 -76.5t35 -62t17.5 -56.5v-4q0 -96 -277 -96q-278 0 -278 96v4
q0 28 17.5 56.5t35 62t17.5 76.5v844q0 42 -17.5 75t-35 61t-17.5 56v4q0 55 57.5 99t180.5 90q247 90 247 -66v-541q97 90 224 93q102 4 182.5 -25.5t131 -84.5t77 -128.5t26.5 -159.5v-317z" />
    <glyph glyph-name="i" unicode="i" horiz-adv-x="604" 
d="M526 289q0 -42 17 -76t34 -62.5t17 -56.5v-4q0 -96 -277 -96q-276 0 -276 96v4q0 28 17 56.5t34 62t17 76.5v297q0 52 -34 106t-34 86v4q0 55 57.5 99t180.5 90q52 19 95 27t78 3.5t54.5 -29t19.5 -67.5v-616zM319 1102q-102 0 -170.5 58t-68.5 157t68.5 157t170.5 58
q101 0 170.5 -58t69.5 -157t-69.5 -157t-170.5 -58z" />
    <glyph glyph-name="j" unicode="j" horiz-adv-x="641" 
d="M526 905v-958q0 -183 -105.5 -300.5t-281.5 -117.5q-278 0 -387 135q-25 32 -31 80t16.5 98.5t72.5 79.5q38 22 83.5 24t86.5 -20.5t59 -68.5q6 -15 13 -44.5t16.5 -52.5t25.5 -43q32 -40 82 -30q26 4 39 27t10 55q-3 24 -16 47t-29 44.5t-32 48t-26.5 70.5t-10.5 101
v506q0 52 -35 106t-35 86v4q0 55 57.5 99t180.5 90q247 90 247 -66zM319 1102q-101 0 -169 58t-68 157t68 157t169 58q102 0 171 -58t69 -157t-69 -157t-171 -58z" />
    <glyph glyph-name="k" unicode="k" horiz-adv-x="1277" 
d="M1116 309q21 -30 54 -60.5t57.5 -49t42.5 -46.5t18 -59v-4q0 -22 -10.5 -38.5t-33 -26.5t-47.5 -16.5t-64.5 -9.5t-72.5 -4t-83 -1q-66 0 -112 2.5t-93 10.5t-71.5 26t-24.5 45v2q0 22 10.5 47t20 43t7.5 45.5t-22 58.5l-76 119l-90 -82v-22q0 -43 17.5 -76.5t35 -62
t17.5 -56.5v-4q0 -96 -279 -96q-276 0 -276 96v4q0 28 17.5 56.5t35 62t17.5 76.5v844q0 42 -17.5 75t-35 61t-17.5 56v4q0 55 57.5 99t180.5 90q247 90 247 -66v-924l213 193q39 32 52.5 57t5.5 41.5t-21.5 29.5t-27 30.5t-13.5 35.5v5q0 53 63 68.5t208 15.5
q118 0 167.5 -16t49.5 -62v-4q0 -36 -38 -65.5t-101 -63.5t-93 -62l-104 -94z" />
    <glyph glyph-name="l" unicode="l" horiz-adv-x="604" 
d="M526 289q0 -42 17 -76t34 -62.5t17 -56.5v-4q0 -96 -277 -96q-276 0 -276 96v4q0 28 17 56.5t34 62t17 76.5v844q0 42 -17 75t-34 61t-17 56v4q0 55 57.5 99t180.5 90q52 19 95 27t78 3.5t54.5 -29t19.5 -67.5v-1163z" />
    <glyph glyph-name="m" unicode="m" horiz-adv-x="1835" 
d="M1755 289q0 -43 17.5 -76.5t35 -62t17.5 -56.5v-4q0 -96 -279 -96q-276 0 -276 96v4q0 28 17 56.5t33.5 62.5t16.5 76v323q0 104 -22.5 147.5t-73.5 43.5q-100 0 -100 -185v-329q0 -42 17.5 -76t34.5 -62.5t17 -56.5v-4q0 -96 -278 -96q-277 0 -277 96v4q0 28 17.5 56.5
t35 62t17.5 76.5v323q0 103 -23 147t-75 44q-98 0 -101 -176v-338q0 -43 17.5 -76.5t35 -62t17.5 -56.5v-4q0 -96 -279 -96q-276 0 -276 96v4q0 28 17.5 56.5t35 62t17.5 76.5v297q0 52 -35 106t-35 86v4q0 55 57.5 99t180.5 90q54 19 92 26.5t68.5 2.5t45.5 -28.5t15 -66.5
v-59q35 69 101 112t144 46q131 6 220.5 -46t134.5 -147q29 85 99.5 137.5t158.5 55.5q99 4 176.5 -25t124.5 -84.5t71.5 -128.5t24.5 -160v-317z" />
    <glyph glyph-name="n" unicode="n" horiz-adv-x="1247" 
d="M1167 289q0 -43 17.5 -76.5t35 -62t17.5 -56.5v-4q0 -96 -279 -96q-276 0 -276 96v4q0 28 17.5 56.5t35 62t17.5 76.5v323q0 101 -28.5 146t-84.5 45q-49 0 -80.5 -44.5t-32.5 -133.5v-336q0 -43 17.5 -76.5t35 -62t17.5 -56.5v-4q0 -96 -279 -96q-276 0 -276 96v4
q0 28 17.5 56.5t35 62t17.5 76.5v297q0 52 -35 106t-35 86v4q0 55 57.5 99t180.5 90q54 19 92 26.5t68.5 2.5t45.5 -28.5t15 -66.5v-61q35 70 104.5 113.5t151.5 46.5q135 6 229.5 -47.5t138 -143.5t43.5 -207v-317z" />
    <glyph glyph-name="o" unicode="o" horiz-adv-x="1193" 
d="M592 1004q117 0 221.5 -37t181.5 -102.5t122.5 -162.5t45.5 -210q0 -114 -45.5 -211t-123 -162.5t-181.5 -102t-221 -36.5q-156 0 -285.5 62t-208 180.5t-78.5 269.5q0 150 78.5 268.5t208 181t285.5 62.5zM623 145q62 4 88 102.5t14 254.5q-14 156 -57 248t-105 86
q-63 -4 -89.5 -102.5t-12.5 -254.5t57 -248t105 -86z" />
    <glyph glyph-name="p" unicode="p" horiz-adv-x="1263" 
d="M754 1004q213 0 346 -139.5t133 -372.5q0 -232 -139 -372t-355 -140q-127 0 -213 61v-191q0 -34 13 -62.5t28 -45.5t28 -40t13 -46v-2q0 -98 -291 -98q-276 0 -276 98v2q0 28 17.5 56t35 62t17.5 76v764q0 42 -17.5 76t-35 62.5t-17.5 56.5v4q0 60 52.5 103.5t174.5 70.5
q70 15 118.5 16.5t74.5 -24.5t26 -84v-16q111 125 267 125zM657 158q69 0 108.5 85t39.5 246q0 163 -39.5 248.5t-108.5 85.5q-47 0 -79 -46t-46 -119t-14 -169q0 -146 34.5 -238.5t104.5 -92.5z" />
    <glyph glyph-name="q" unicode="q" horiz-adv-x="1234" 
d="M1145 -150q0 -42 17.5 -76t34.5 -62t17 -56v-2q0 -98 -278 -98q-291 0 -291 98v2q0 23 13 46t29 40t29 45.5t13 62.5v191q-86 -61 -213 -61q-216 0 -356 140t-140 372q0 233 134 372.5t348 139.5q164 0 278 -89q76 41 117 56q72 26 125 31.5t88 -18t35 -79.5v-1055z
M596 158q70 0 105.5 92.5t35.5 238.5q0 147 -35.5 240.5t-105.5 93.5q-67 0 -106 -86t-39 -248q0 -161 39 -246t106 -85z" />
    <glyph glyph-name="r" unicode="r" horiz-adv-x="1013" 
d="M993 864q18 -39 19.5 -89.5t-22 -102t-70.5 -80.5q-29 -19 -67 -27t-78.5 -2t-75.5 40.5t-52 94.5q-7 31 -28.5 43.5t-45.5 3.5q-23 -6 -33.5 -32t-13.5 -92v-332q0 -43 17.5 -76.5t35 -62t17.5 -56.5v-4q0 -96 -279 -96q-276 0 -276 96v4q0 28 17 56.5t34 62t17 76.5
v297q0 52 -34 106t-34 86v4q0 55 57.5 99t180.5 90q54 19 92 26.5t68.5 2.5t45.5 -28.5t15 -66.5v-76q111 175 291 175q137 0 202 -140z" />
    <glyph glyph-name="s" unicode="s" horiz-adv-x="1026" 
d="M616 647q149 -58 205 -91q158 -94 152 -245q-2 -46 -17 -96q-28 -98 -102 -155.5t-169 -74t-214 -3.5q-47 5 -95.5 16.5t-71.5 17t-56.5 -0.5t-73.5 -29q-38 -20 -73.5 -2.5t-43.5 57.5q-5 26 -12 83.5t-14 128t-8 79.5q-6 43 8 73.5t41 30.5h2q26 0 46.5 -20t35 -51
t37 -69t49.5 -71.5t76 -61t112 -36.5q62 -9 100 9.5t48 53.5q14 55 -36 92.5t-182 82.5q-137 48 -209.5 119.5t-78 157.5t40.5 187q44 90 157.5 134t235.5 41q47 -1 91 -7t64.5 -9.5t49 2t63.5 24.5q38 23 74 11t43 -52q3 -25 17.5 -121t17.5 -125q4 -42 -9.5 -67t-39.5 -25
h-5q-30 0 -53.5 21t-42.5 51t-43 61t-67 55.5t-101 28.5q-83 0 -100 -51q-14 -44 17 -78.5t134 -75.5z" />
    <glyph glyph-name="t" unicode="t" horiz-adv-x="874" 
d="M803 309q39 -19 26 -87q-16 -82 -93 -151q-102 -91 -247 -91q-163 0 -262.5 106.5t-99.5 284.5v436h-43q-39 0 -66.5 22.5t-27.5 63.5q0 61 90.5 163t216.5 175q63 36 119 45.5t91.5 -14.5t35.5 -80v-211h151q46 0 70 -22.5t24 -59.5t-24 -59.5t-70 -22.5h-151v-387
q0 -183 147 -129q23 9 35 13.5t28 8.5t28 3t22 -7z" />
    <glyph glyph-name="u" unicode="u" horiz-adv-x="1290" 
d="M1157 367q0 -34 16 -63t35.5 -46t35.5 -40t16 -46v-4q0 -60 -55 -109t-161 -71q-90 -20 -153 8t-86 98q-1 2 -12 47q-37 -73 -109.5 -117t-173.5 -44q-200 0 -305 114.5t-105 294.5v225q0 42 -17 76t-34.5 62.5t-17.5 56.5v4q0 60 52.5 103.5t174.5 70.5q258 58 258 -92
v-524q0 -101 27.5 -146t83.5 -45q50 0 81.5 43.5t32.5 132.5v258q0 42 -17.5 76t-34.5 62.5t-17 56.5v4q0 60 52.5 103.5t174.5 70.5q258 58 258 -92v-528z" />
    <glyph glyph-name="v" unicode="v" horiz-adv-x="1116" 
d="M946 1004q70 0 120 -23.5t50 -69.5v-2q0 -30 -26 -61t-62 -71t-51 -81l-207 -555q-29 -77 -73.5 -112t-127.5 -35q-87 0 -141.5 26t-79.5 89l-246 563q-13 31 -37.5 62.5t-44.5 51.5t-35.5 49t-15.5 60v4q0 57 70 81t213 24q66 0 111 -2.5t91 -10.5t69.5 -26t23.5 -45v-5
q0 -26 -12.5 -60.5t-16.5 -56.5t12 -75l142 -352l114 336q15 39 13 70t-10.5 46.5t-17.5 37t-9 42.5v2q0 50 53.5 74.5t130.5 24.5z" />
    <glyph glyph-name="w" unicode="w" 
d="M1430 1004q70 0 121 -23.5t51 -69.5v-2q0 -30 -27 -61.5t-63.5 -71t-51.5 -78.5l-207 -557q-13 -34 -18 -46t-16 -34.5t-20.5 -30.5t-26 -19t-37 -14t-48.5 -3q-81 0 -115.5 24t-58.5 93l-114 342l-121 -312q-31 -81 -46 -102q-39 -44 -118 -45q-80 0 -117 24.5t-65 92.5
l-234 561q-15 38 -49 77t-57 73t-23 73v4q0 57 66.5 81t208.5 24q65 0 109.5 -2.5t89 -10.5t67 -26t22.5 -45v-5q0 -27 -15 -61t-22.5 -57t5.5 -76l106 -313l172 503q17 51 41 72t86 21q66 0 90 -22t45 -93l144 -461l90 279q15 40 12 71.5t-12 46.5t-19 36t-10 42v2
q0 50 54.5 74.5t130.5 24.5z" />
    <glyph glyph-name="x" unicode="x" horiz-adv-x="1173" 
d="M981 315q18 -20 68.5 -66.5t72 -78.5t21.5 -70v-4q0 -57 -65.5 -79.5t-207.5 -22.5q-44 0 -76 1t-71 3.5t-66 8.5t-51.5 14.5t-36.5 23t-12 33.5v2q0 21 10 45t17 39.5t0 42t-35 59.5l-84 96l-66 -83q-28 -36 -34.5 -64t1.5 -42.5t18.5 -36.5t10.5 -42v-4
q0 -49 -54 -72.5t-132 -23.5q-45 0 -86.5 9t-72 30t-30.5 51v4q0 31 27.5 62t78 73t77.5 74l157 186l-145 168q-20 24 -57.5 61.5t-59.5 61t-40.5 57t-18.5 64.5v4q0 57 66 81t208 24q66 0 114 -2.5t97.5 -10.5t76 -26t26.5 -45v-5q0 -21 -10.5 -44.5t-19 -39t-4.5 -41
t28 -55.5l81 -94l56 74q24 31 32 55t3.5 40.5t-12.5 29.5t-16.5 29.5t-8.5 33.5v2q0 50 55 74.5t133 24.5q45 0 85.5 -9t70.5 -31t30 -53v-2q0 -30 -23 -58.5t-69.5 -69t-70.5 -68.5l-160 -195z" />
    <glyph glyph-name="y" unicode="y" horiz-adv-x="1136" 
d="M981 1004q68 0 112 -23t44 -70v-2q0 -30 -25 -62t-60 -72t-51 -79q-231 -569 -233 -575q-66 -164 -122.5 -274.5t-108 -173t-91.5 -92t-94 -52.5q-33 -14 -79 -19.5t-102 2t-101 29.5q-31 15 -55.5 43t-36.5 62t-4.5 73t38.5 72q49 49 117 43t117 -57q23 -23 42 -35.5
t44 -15t48.5 14t53 58.5t60.5 111l-375 760q-18 39 -55.5 79t-62 73.5t-24.5 72.5v4q0 56 68.5 79.5t206.5 25.5q65 -1 108 -4t89 -11t69 -25.5t23 -43.5v-5q0 -26 -13.5 -60t-18 -56t12.5 -78l158 -397l135 383q15 40 15 70t-8 46t-16.5 38t-8.5 42v2q0 50 53.5 74.5
t130.5 24.5z" />
    <glyph glyph-name="z" unicode="z" horiz-adv-x="1134" 
d="M1026 381q36 0 55.5 -28.5t5.5 -76.5q-24 -83 -69 -219q-16 -50 -36 -71t-62 -21q-30 0 -88 17.5t-117 17.5h-570q-65 0 -82.5 43t23.5 100l465 664h-100q-53 0 -95 -22.5t-68.5 -55t-52 -64.5t-59.5 -54.5t-76 -22.5h-2q-37 0 -56 27.5t-5 76.5q8 30 16 61.5t20 77
t21 80.5q24 93 111 93q31 0 81.5 -16.5t110.5 -16.5h539q62 0 77 -44.5t-30 -111.5l-459 -653h138q53 0 97.5 22.5t74.5 55t57.5 64.5t61 54.5t71.5 22.5h2z" />
    <glyph glyph-name="braceleft" unicode="{" horiz-adv-x="692" 
d="M532 166q0 -60 8 -107t20.5 -72t28 -46t29 -29.5t24.5 -21.5t15 -23t0 -33q-6 -26 -39.5 -37.5t-81.5 -5t-99.5 25t-99 57t-73.5 87.5q-13 25 -21.5 53.5t-13 52t-6 68t-1.5 72t0.5 95t0.5 108.5q0 58 -12.5 95.5t-32 52t-41.5 25.5t-41.5 18t-32 27t-12.5 54t12.5 54.5
t32 27t41.5 18t41.5 26t32 52t12.5 94.5q0 41 -0.5 108.5t-0.5 95t1.5 72t6 68t13 52t21.5 53.5q26 49 73.5 87.5t99 57.5t99.5 26t81.5 -4.5t39.5 -37.5q4 -24 0 -34t-15 -23t-24.5 -22t-29 -30t-28 -46t-20.5 -72t-8 -107v-268q0 -61 -18 -108t-43.5 -72.5t-57.5 -41.5
t-55.5 -21t-42.5 -5q19 0 42.5 -4.5t55.5 -20.5t57.5 -41.5t43.5 -73t18 -108.5v-268z" />
    <glyph glyph-name="bar" unicode="|" horiz-adv-x="526" 
d="M334 1540q44 0 62 -20.5t18 -59.5v-1526q0 -38 -17.5 -58.5t-62.5 -20.5h-141q-45 0 -62.5 20.5t-17.5 58.5v1526q0 39 18 59.5t62 20.5h141z" />
    <glyph glyph-name="braceright" unicode="}" horiz-adv-x="692" 
d="M469 954q0 -57 12.5 -94.5t32 -52t41.5 -26t41.5 -18t32 -27t12.5 -54.5t-12.5 -54t-32 -27t-41.5 -18t-41.5 -25.5t-32 -52t-12.5 -95.5q0 -41 0.5 -108.5t0.5 -95t-1.5 -72t-6 -68t-13 -52t-21.5 -53.5q-26 -49 -73.5 -87.5t-99 -57t-99.5 -25t-81.5 5t-39.5 37.5
q-4 23 0 33t15 23t24.5 21.5t29 29.5t28 46t20.5 72t8 107v268q0 61 18 108.5t43.5 73t57.5 41.5t55.5 20.5t42.5 4.5q-19 0 -42.5 5t-55.5 21t-57.5 41.5t-43.5 72.5t-18 108v268q0 60 -8 107t-20.5 72t-28 46t-29 30t-24.5 22t-15 23t0 34q6 26 39.5 37.5t81.5 4.5
t99.5 -26t99 -57.5t73.5 -87.5q13 -25 21.5 -53.5t13 -52t6 -68t1.5 -72t-0.5 -95t-0.5 -108.5z" />
    <glyph glyph-name="asciitilde" unicode="~" horiz-adv-x="987" 
d="M895 872q18 -9 20 -43t-14 -77.5t-44 -84.5t-76 -69.5t-103 -28.5q-82 0 -221 60q-104 43 -158 39q-35 -3 -70.5 -28.5t-66.5 -43t-64 -6.5q-37 11 -22 82q16 83 82 154q77 83 172 83q98 0 192 -49q109 -54 187 -59q31 -2 60.5 12.5t46.5 31.5t39.5 27.5t39.5 -0.5z" />
    <glyph glyph-name="exclamdown" unicode="&#xa1;" horiz-adv-x="565" 
d="M283 647q-80 0 -135.5 49.5t-55.5 134.5q0 83 55.5 133t135.5 50q79 0 133.5 -49.5t54.5 -133.5q0 -85 -54 -134.5t-134 -49.5zM492 -240q11 -101 -42 -161t-167 -60q-115 0 -167.5 59.5t-41.5 161.5q40 369 112 693q15 63 36 87.5t61 24.5q39 0 60 -24.5t34 -87.5
q25 -108 40 -182t36 -208t39 -303z" />
    <glyph glyph-name="cent" unicode="&#xa2;" horiz-adv-x="1028" 
d="M977 573q14 -12 18 -36t-4.5 -55t-26.5 -65.5t-50 -68.5t-71.5 -62.5t-94.5 -49.5t-117 -27v-170q0 -80 -82 -80t-82 80v174q-90 15 -168.5 53t-142 97.5t-100 148.5t-36.5 197q0 205 123.5 346.5t323.5 169.5v170q0 46 21.5 64t60.5 18t60.5 -18t21.5 -64v-168
q166 -17 276 -127q37 -36 58 -82.5t15 -100t-48 -94.5q-30 -29 -74 -38.5t-89.5 3.5t-85 62.5t-56.5 128.5q-13 64 -44.5 92.5t-74.5 22.5q-69 -9 -100 -102.5t-7 -227.5q45 -261 273 -268q107 -5 190 59q69 57 113 18z" />
    <glyph glyph-name="sterling" unicode="&#xa3;" horiz-adv-x="1271" 
d="M1133 461q35 0 57 -27t18 -78q-20 -165 -45 -297q-9 -50 -31.5 -72t-66.5 -22q-30 0 -88 17.5t-117 17.5h-700q-46 0 -67 31.5t-12.5 75.5t42.5 81q35 37 58 72t34 72t15.5 68t0 73t-11 73.5t-18.5 82.5h-80q-80 0 -80 82t80 82h43q-21 120 -23 192q-5 95 24 174.5
t82.5 133t126.5 90.5t153.5 54t166.5 17q324 0 451 -186q24 -36 31.5 -88t-3.5 -102t-51 -85t-104 -35q-60 0 -103 19t-66.5 48.5t-39 66t-26 73t-22 66t-31.5 48.5t-50 19q-84 0 -114.5 -92.5t-10.5 -242.5q17 -126 20 -170h263q82 0 82 -82t-82 -82h-258
q-6 -103 -44 -187.5t-124 -177.5h381q53 0 95 20.5t68 49t49.5 57.5t54.5 49.5t68 20.5h5z" />
    <glyph glyph-name="currency" unicode="&#xa4;" horiz-adv-x="1372" 
d="M1133 387q61 -63 137 -139q58 -58 0 -115t-115 0q-3 3 -27 27.5t-59.5 60l-64.5 64.5q-141 -80 -318 -80q-176 0 -317 80q-24 -23 -52 -51t-46.5 -47t-35.5 -36l-18 -18q-57 -57 -115 0t0 115q3 4 23.5 24t54 53.5t60.5 61.5q-125 138 -125 330q0 194 125 332
q-28 28 -60.5 60t-54 53.5l-23.5 23.5q-32 37 -30 63t30 54q57 57 115 -3q5 -4 152 -151q139 82 317 82q179 0 318 -82l151 151q58 60 115 3q28 -28 30 -54t-30 -63q-19 -15 -137 -137q124 -137 124 -332q0 -193 -124 -330zM717 373q62 4 88 102t12 254q-12 155 -56 247.5
t-106 86.5q-62 -4 -88 -102t-12 -254q12 -155 56 -247.5t106 -86.5z" />
    <glyph glyph-name="yen" unicode="&#xa5;" horiz-adv-x="1304" 
d="M1133 1440q70 0 121 -23t51 -67v-4q0 -30 -25.5 -60.5t-65.5 -71.5t-61 -81l-211 -410h113q82 0 82 -80q0 -82 -82 -82h-170v-61h170q82 0 82 -82t-82 -82h-170v-62q0 -52 34.5 -106.5t34.5 -87.5v-2q0 -27 -20.5 -45t-62.5 -26t-85 -10.5t-108 -2.5t-108.5 2.5t-86 10.5
t-63.5 26t-21 45v2q0 29 17.5 57.5t35 61.5t17.5 75v62h-170q-82 0 -82 82t82 82h170v57l-2 4h-168q-82 0 -82 82q0 80 82 80h70l-222 371q-21 34 -61.5 80.5t-63 82.5t-22.5 76v4q0 57 65 80t207 23q44 0 76 -1t71.5 -3.5t66.5 -8.5t51.5 -14.5t36.5 -23t12 -33.5v-2
q0 -22 -10 -46t-20 -41t-10 -44.5t17 -59.5l215 -422l189 406q18 40 19 70t-8.5 45t-19.5 36t-10 41v4q0 49 54 73t131 24z" />
    <glyph glyph-name="brokenbar" unicode="&#xa6;" horiz-adv-x="526" 
d="M332 1567q46 0 64 -20.5t18 -59.5v-725q0 -39 -18 -60.5t-64 -21.5h-139q-80 0 -80 82v725q0 39 18 59.5t62 20.5h139zM332 487q47 0 64.5 -20.5t17.5 -60.5v-723q0 -40 -18 -61t-64 -21h-139q-45 0 -62.5 21t-17.5 61v723q0 40 17.5 60.5t62.5 20.5h139z" />
    <glyph glyph-name="section" unicode="&#xa7;" horiz-adv-x="1316" 
d="M848 1049q174 -107 242 -164q142 -121 154 -267q6 -77 -19 -167q-44 -162 -201 -244q114 -165 51 -363q-46 -146 -170.5 -219.5t-292.5 -68.5q-160 0 -283 47.5t-186 146.5q-23 38 -30.5 87t3 94.5t50.5 76.5t104 31t109 -31.5t68.5 -78t41.5 -94.5t41.5 -87t55.5 -49
q64 -22 107.5 16t49.5 107q5 61 -30 112.5t-75.5 81t-154.5 99.5q-8 5 -12 8q-175 106 -242 162q-141 119 -155 262q-8 79 18 172q43 162 201 244q-115 165 -51 364q46 146 170.5 219t294.5 70q159 0 282 -48t185 -147q23 -38 30.5 -86.5t-3 -94t-50.5 -76.5t-104 -31
q-54 0 -95 22.5t-63 57t-41.5 76t-32.5 79t-34 67t-48 38.5q-66 21 -109.5 -18t-48.5 -107q-4 -46 9 -82t52.5 -72t80 -63t119.5 -75q8 -4 12 -7zM686 489q131 -84 182 -124q10 29 11 38q5 42 -5.5 75t-51.5 70t-64 53t-99 63q-18 12 -28 18q-127 80 -182 125q-9 -27 -9 -39
q-5 -43 7 -77.5t44.5 -65.5t67.5 -55.5t94 -60.5q22 -13 33 -20z" />
    <glyph glyph-name="dieresis" unicode="&#xa8;" horiz-adv-x="960" 
d="M262 1505q80 0 134.5 -49.5t54.5 -132.5q0 -85 -54.5 -133.5t-134.5 -48.5t-135 49t-55 133q0 83 55 132.5t135 49.5zM700 1505q80 0 134.5 -49.5t54.5 -132.5q0 -85 -54.5 -133.5t-134.5 -48.5t-135 49t-55 133q0 83 55 132.5t135 49.5z" />
    <glyph glyph-name="copyright" unicode="&#xa9;" horiz-adv-x="1980" 
d="M989 -213q-186 0 -356 73t-293 196t-195.5 293t-72.5 356q0 150 46.5 290t131 253t197.5 198t253 131.5t289 46.5q187 0 357.5 -72.5t293.5 -195.5t196 -293.5t73 -357.5q0 -186 -73 -356t-196 -293t-293.5 -196t-357.5 -73zM989 1530q-168 0 -320 -65t-262.5 -175.5
t-175.5 -263.5t-65 -321t65 -320.5t175.5 -262.5t262.5 -175.5t320 -65.5q224 0 414 110.5t301 300t111 413.5q0 168 -65.5 321t-176.5 263.5t-263.5 175.5t-320.5 65zM1403 530q42 -21 27 -71q-44 -134 -157 -210.5t-265 -76.5q-113 0 -214.5 34.5t-181 100.5t-124 173.5
t-37.5 242.5q7 154 84.5 272t201 179t271.5 61q43 0 87 -6.5t70 -12t60 -4t69 14.5q37 14 67.5 0t37.5 -49q4 -24 11 -80.5t13.5 -117t8.5 -75.5q3 -37 -9.5 -56.5t-36.5 -19.5h-2q-23 0 -45 21.5t-39.5 54.5t-42 70.5t-51 70.5t-69 54.5t-93.5 21.5q-117 0 -193.5 -102
t-66.5 -250q6 -94 37 -166t77 -113t102.5 -62t113 -17.5t109.5 26.5t92 64q42 44 88 28z" />
    <glyph glyph-name="guillemotleft" unicode="&#xab;" horiz-adv-x="942" 
d="M125 750q72 69 268 237q28 23 54.5 17t32 -32t-12.5 -61q-24 -38 -58.5 -100t-57.5 -105l-23 -42q86 -162 139 -248q16 -26 14 -47.5t-13.5 -35t-32.5 -12.5t-42 19q-88 73 -268 235q-23 22 -30.5 30t-15 23.5t-7.5 35.5q0 27 11 43t42 43zM514 750q72 69 268 237
q28 23 54.5 17t32 -32t-12.5 -61q-24 -38 -58.5 -100t-57.5 -105l-23 -42q86 -162 139 -248q16 -26 14 -47.5t-13.5 -35t-32.5 -12.5t-42 19q-88 73 -268 235q-23 22 -30.5 30t-15 23.5t-7.5 35.5q0 27 11 43t42 43z" />
    <glyph glyph-name="registered" unicode="&#xae;" horiz-adv-x="1978" 
d="M989 -213q-186 0 -356 73t-293 196t-195.5 293t-72.5 356q0 150 46.5 290t131 253t197.5 198t253 131.5t289 46.5q186 0 356 -72.5t293 -195.5t196 -293.5t73 -357.5q0 -186 -73 -356t-196 -293t-293 -196t-356 -73zM989 1530q-168 0 -320.5 -65t-263 -175.5t-176 -263.5
t-65.5 -321t65.5 -320.5t176 -262.5t263 -175.5t320.5 -65.5q224 0 414 110.5t301 300t111 413.5q0 168 -65.5 321t-176.5 263.5t-263.5 175.5t-320.5 65zM1544 287q5 -45 -45.5 -75t-142.5 -30q-51 0 -86.5 7t-68 30.5t-52.5 65.5q-58 118 -127 307l-96 -2v-197
q0 -39 25.5 -77.5t25.5 -61.5v-2q0 -70 -201 -70t-201 70v2q0 23 25 61.5t25 77.5v615q0 39 -25 78t-25 61v4q0 70 144 70h289q201 0 322.5 -85.5t121.5 -234.5q0 -171 -162 -254q37 -83 76.5 -144.5t69 -90.5t54.5 -49.5t38.5 -37t15.5 -38.5zM969 709q80 0 120.5 51.5
t40.5 140.5q0 88 -36.5 145.5t-94.5 57.5q-38 0 -55.5 -21.5t-17.5 -74.5v-299h43z" />
    <glyph glyph-name="macron" unicode="&#xaf;" horiz-adv-x="956" 
d="M803 1391q47 0 64.5 -18t17.5 -56t-17.5 -56t-64.5 -18h-651q-45 0 -62.5 18t-17.5 56t17.5 56t62.5 18h651z" />
    <glyph glyph-name="degree" unicode="&#xb0;" horiz-adv-x="829" 
d="M416 1456q138 0 240 -89.5t102 -231.5t-102 -232t-240 -90q-139 0 -241.5 89.5t-102.5 232.5t102.5 232t241.5 89zM416 932q44 0 68 55.5t24 147.5t-23.5 147t-68.5 55q-46 0 -70 -55t-24 -147t24 -147.5t70 -55.5z" />
    <glyph glyph-name="plusminus" unicode="&#xb1;" horiz-adv-x="942" 
d="M788 469q44 0 63 -27t19 -67t-19 -67t-63 -27h-634q-82 0 -82 94t82 94h634zM154 848q-82 0 -82 94t82 94h223v224q0 81 94 81t94 -81v-224h223q44 0 63 -27t19 -67t-19 -67t-63 -27h-223v-223q0 -82 -94 -82t-94 82v223h-223z" />
    <glyph glyph-name="acute" unicode="&#xb4;" horiz-adv-x="628" 
d="M520 1397q48 -75 31.5 -129t-111.5 -86q-99 -33 -152 -48t-100 -22.5t-69.5 1t-36.5 32.5q-26 43 18.5 101t192.5 190q51 45 92 53t72.5 -15.5t62.5 -76.5z" />
    <glyph glyph-name="paragraph" unicode="&#xb6;" horiz-adv-x="1144" 
d="M918 1434q155 -4 155 -91v-4q0 -23 -13.5 -46t-30.5 -40t-30.5 -45.5t-13.5 -62.5v-1045q0 -80 -82 -80t-82 80v1172h-129v-1172q0 -44 -20.5 -62t-59.5 -18q-82 0 -82 80v539h-81q-170 0 -273.5 107.5t-103.5 289.5t103.5 290t273.5 108h469z" />
    <glyph glyph-name="cedilla" unicode="&#xb8;" horiz-adv-x="589" 
d="M272 -92q77 6 130.5 -7.5t78 -41.5t32.5 -59t3 -66q-12 -68 -75.5 -104t-159.5 -36q-57 0 -106.5 10.5t-81 37.5t-17.5 65q17 50 106 19q41 -12 68 -1.5t29 35.5q3 23 -10 34t-40 11h-55q-27 0 -40 15.5t-3 48.5q4 16 17 48.5t24 57.5l10 25h121z" />
    <glyph glyph-name="guillemotright" unicode="&#xbb;" horiz-adv-x="942" 
d="M817 750q38 -36 46 -52q7 -15 7 -34q0 -8 -1 -14.5t-2.5 -11.5t-5 -11.5t-5.5 -9.5t-8 -10t-8.5 -9.5l-11 -11l-11.5 -11.5q-159 -143 -270 -235q-27 -24 -53 -18t-31 32.5t12 61.5q23 38 57 100t57 105l23 43q-86 161 -137 247q-20 32 -12.5 60.5t31.5 32.5t53 -17
q217 -186 270 -237zM428 750q31 -27 42 -43t11 -43q0 -20 -7.5 -35.5t-15 -23.5t-30.5 -30q-188 -170 -270 -235q-27 -24 -53 -18t-31 32.5t12 61.5q24 38 58.5 100t57.5 105l23 43q-86 161 -139 247q-20 32 -12.5 60.5t31.5 32.5t53 -17q45 -37 142.5 -122.5t127.5 -114.5z
" />
    <glyph glyph-name="questiondown" unicode="&#xbf;" horiz-adv-x="1083" 
d="M586 647q-80 0 -134.5 49.5t-54.5 134.5q0 83 54.5 133t134.5 50t135 -50t55 -133q0 -85 -55 -134.5t-135 -49.5zM834 39q73 0 117.5 -34t54 -85.5t-6 -110.5t-53.5 -110q-55 -73 -157 -117.5t-236 -44.5q-219 0 -350 96t-131 248q0 76 22.5 135t58.5 95.5t79.5 66.5
t86.5 56.5t79 56.5t58.5 75.5t22.5 104.5q0 94 113 94q115 0 115 -102t-24.5 -181.5t-59.5 -129.5t-70 -94.5t-59.5 -102t-24.5 -127.5q0 -133 82 -133q33 0 52.5 19t27.5 49.5t13.5 67t15.5 73t27 67t54.5 49.5t92.5 19z" />
    <glyph glyph-name="Agrave" unicode="&#xc0;" horiz-adv-x="1423" 
d="M1300 326q16 -41 51 -80.5t59 -73t24 -72.5v-4q0 -57 -66 -79.5t-209 -22.5q-136 0 -210.5 16.5t-74.5 67.5v2q0 26 13 60.5t17 56.5t-13 77l-51 132h-478l-40 -119q-15 -39 -13.5 -69.5t9.5 -45.5t17 -36.5t9 -41.5v-4q0 -49 -53.5 -72.5t-130.5 -23.5q-70 0 -120 23
t-50 67v4q0 24 17 48.5t39.5 44t48 52.5t38.5 68l324 846q15 53 11.5 75t-15 56.5t-11.5 60.5v4q0 97 207 97q112 0 159 -23t75 -90zM420 569h356l-188 480zM688 1845q148 -131 193 -189t20 -102q-14 -24 -36.5 -32.5t-69.5 -1t-100 22.5t-152 48q-95 32 -111.5 86t31.5 129
q31 53 61.5 76.5t71.5 15.5t92 -53z" />
    <glyph glyph-name="Aacute" unicode="&#xc1;" horiz-adv-x="1423" 
d="M1300 326q16 -41 51 -80.5t59 -73t24 -72.5v-4q0 -57 -66 -79.5t-209 -22.5q-136 0 -210.5 16.5t-74.5 67.5v2q0 26 13 60.5t17 56.5t-13 77l-51 132h-478l-40 -119q-15 -39 -13.5 -69.5t9.5 -45.5t17 -36.5t9 -41.5v-4q0 -49 -53.5 -72.5t-130.5 -23.5q-70 0 -120 23
t-50 67v4q0 24 17 48.5t39.5 44t48 52.5t38.5 68l324 846q15 53 11.5 75t-15 56.5t-11.5 60.5v4q0 97 207 97q112 0 159 -23t75 -90zM420 569h356l-188 480zM879 1806q48 -75 31.5 -129t-111.5 -86q-99 -33 -152 -48.5t-100 -22.5t-70 1.5t-37 32.5q-26 43 18.5 101
t192.5 190q51 45 92.5 53t73 -15.5t62.5 -76.5z" />
    <glyph glyph-name="Acircumflex" unicode="&#xc2;" horiz-adv-x="1423" 
d="M1300 326q16 -41 51 -80.5t59 -73t24 -72.5v-4q0 -57 -66 -79.5t-209 -22.5q-136 0 -210.5 16.5t-74.5 67.5v2q0 26 13 60.5t17 56.5t-13 77l-51 132h-478l-40 -119q-15 -39 -13.5 -69.5t9.5 -45.5t17 -36.5t9 -41.5v-4q0 -49 -53.5 -72.5t-130.5 -23.5q-70 0 -120 23
t-50 67v4q0 24 17 48.5t39.5 44t48 52.5t38.5 68l324 846q15 53 11.5 75t-15 56.5t-11.5 60.5v4q0 97 207 97q112 0 159 -23t75 -90zM420 569h356l-188 480zM969 1665q38 -40 15 -72.5t-73 -9.5l-241 115q-158 -74 -242 -115q-51 -23 -73 9.5t16 72.5q143 143 217 221l9 9
l8 8l7 7t7.5 7t7 5t7.5 4.5t7.5 3.5t8.5 3t9 1.5t11 0.5q9 0 17 -2t13 -3.5t13 -8t10.5 -8.5t13 -13t13.5 -14q37 -39 219 -221z" />
    <glyph glyph-name="Atilde" unicode="&#xc3;" horiz-adv-x="1423" 
d="M1300 326q16 -41 51 -80.5t59 -73t24 -72.5v-4q0 -57 -66 -79.5t-209 -22.5q-136 0 -210.5 16.5t-74.5 67.5v2q0 26 13 60.5t17 56.5t-13 77l-51 132h-478l-40 -119q-15 -39 -13.5 -69.5t9.5 -45.5t17 -36.5t9 -41.5v-4q0 -49 -53.5 -72.5t-130.5 -23.5q-70 0 -120 23
t-50 67v4q0 24 17 48.5t39.5 44t48 52.5t38.5 68l324 846q15 53 11.5 75t-15 56.5t-11.5 60.5v4q0 97 207 97q112 0 159 -23t75 -90zM420 569h356l-188 480zM522 1876q91 0 183 -47q97 -51 174 -57q31 -2 59 11.5t44 29.5t37 26t38 0q17 -9 18.5 -41t-13.5 -73.5t-42 -81
t-72 -66.5t-98 -27q-73 0 -209 58q-96 42 -149 37q-33 -3 -67 -27t-63.5 -40.5t-60.5 -6.5q-35 12 -21 80q17 82 82 150q72 74 160 75z" />
    <glyph glyph-name="Adieresis" unicode="&#xc4;" horiz-adv-x="1423" 
d="M1300 326q16 -41 51 -80.5t59 -73t24 -72.5v-4q0 -57 -66 -79.5t-209 -22.5q-136 0 -210.5 16.5t-74.5 67.5v2q0 26 13 60.5t17 56.5t-13 77l-51 132h-478l-40 -119q-15 -39 -13.5 -69.5t9.5 -45.5t17 -36.5t9 -41.5v-4q0 -49 -53.5 -72.5t-130.5 -23.5q-70 0 -120 23
t-50 67v4q0 24 17 48.5t39.5 44t48 52.5t38.5 68l324 846q15 53 11.5 75t-15 56.5t-11.5 60.5v4q0 97 207 97q112 0 159 -23t75 -90zM420 569h356l-188 480zM453 1915q80 0 134 -49.5t54 -132.5q0 -85 -54 -134t-134 -49t-135.5 49.5t-55.5 133.5q0 83 55.5 132.5
t135.5 49.5zM891 1915q80 0 134 -49.5t54 -132.5q0 -85 -54 -134t-134 -49t-135.5 49.5t-55.5 133.5q0 83 55.5 132.5t135.5 49.5z" />
    <glyph glyph-name="Aring" unicode="&#xc5;" horiz-adv-x="1423" 
d="M1300 326q16 -41 51 -80.5t59 -73t24 -72.5v-4q0 -57 -66 -79.5t-209 -22.5q-136 0 -210.5 16.5t-74.5 67.5v2q0 26 13 60.5t17 56.5t-13 77l-51 132h-478l-40 -119q-15 -39 -13.5 -69.5t9.5 -45.5t17 -36.5t9 -41.5v-4q0 -49 -53.5 -72.5t-130.5 -23.5q-70 0 -120 23
t-50 67v4q0 24 17 48.5t39.5 44t48 52.5t38.5 68l324 846q15 53 11.5 75t-15 56.5t-11.5 60.5v4q0 97 207 97q112 0 159 -23t75 -90zM420 569h356l-188 480zM651 1923q97 0 168.5 -53t71.5 -144t-71.5 -143.5t-168.5 -52.5q-98 0 -169.5 52.5t-71.5 143.5t71.5 144t169.5 53
zM651 1614q49 0 49 112q0 113 -49 113q-23 0 -37 -28.5t-14 -84.5t14 -84t37 -28z" />
    <glyph glyph-name="AE" unicode="&#xc6;" horiz-adv-x="2037" 
d="M1923 434q71 0 62 -104q-9 -78 -46 -271q-9 -50 -31.5 -72t-66.5 -22q-30 0 -88 17.5t-117 17.5h-600q-198 0 -198 98v2q0 28 17 56.5t34.5 62.5t17.5 76v113h-467l-73 -121q-23 -37 -31 -66t-5.5 -45t8 -39.5t5.5 -42.5v-4q0 -49 -53.5 -72.5t-130.5 -23.5
q-70 0 -120 23t-50 67v4q0 24 19 50t44.5 47t57.5 53.5t51 62.5l540 838q20 32 20.5 60t-10.5 45.5t-22.5 42t-11.5 46.5v4q0 54 47.5 75.5t138.5 21.5h733q59 0 116.5 17t88.5 17q42 0 65 -22t34 -70q29 -159 43 -272q6 -51 -11.5 -78t-50.5 -27h-4q-37 0 -69 28t-58 68.5
t-54 80.5t-71 68t-96 28h-105q-54 0 -78 -30t-24 -103v-348h180q33 0 57.5 24t36 52.5t30.5 52.5t42 24h4q44 0 58 -55t14 -180t-14 -179.5t-58 -54.5h-4q-23 0 -42 24t-30.5 53t-36 53t-57.5 24h-180v-334q0 -73 24 -103t78 -30h146q53 0 95 28t70.5 68t54 80t58 68
t70.5 28h4zM541 569h366v596z" />
    <glyph glyph-name="Ccedilla" unicode="&#xc7;" horiz-adv-x="1468" 
d="M1364 477q60 -29 37 -100q-62 -184 -218 -290.5t-366 -106.5l-24 -72q77 6 130.5 -7t78 -40.5t32.5 -59t2 -67.5q-10 -68 -74.5 -104t-160.5 -36q-56 0 -105 10.5t-80.5 37.5t-17.5 65q17 48 104 21q42 -13 69 -2.5t30 34.5q1 23 -11 34t-40 11h-56q-26 0 -39.5 15.5
t-3.5 48.5l22.5 58.5l22.5 58.5q-139 17 -257.5 72.5t-211 147t-142 230t-42.5 307.5q7 161 71.5 296t169 225t241.5 140t290 50q60 0 121.5 -9t98.5 -16.5t84.5 -6t94.5 19.5q51 20 93.5 0.5t52.5 -68.5q18 -100 43 -379q6 -51 -10.5 -77.5t-51.5 -26.5h-2q-37 0 -72 42
t-68.5 101.5t-74 119.5t-106.5 102t-150 42q-105 0 -191 -64.5t-132.5 -177t-38.5 -245.5q9 -130 52.5 -230.5t107 -158t142 -86.5t157 -24t152 37t126.5 89q31 33 66.5 42t54.5 -3z" />
    <glyph glyph-name="Egrave" unicode="&#xc8;" horiz-adv-x="1269" 
d="M1155 434q35 0 51.5 -26.5t10.5 -77.5q-7 -78 -43 -273q-9 -48 -32 -70t-67 -22q-30 0 -88 17.5t-117 17.5h-600q-198 0 -198 96v4q0 28 17 56.5t34.5 62t17.5 76.5v844q0 34 -11 62.5t-23.5 45.5t-23.5 40t-11 46v2q0 99 198 99h559q61 0 118 17t87 17q44 0 67 -22
t32 -72q28 -129 45 -270q6 -52 -11 -78.5t-51 -26.5h-4q-32 0 -60.5 20t-48.5 50.5t-45 66t-49 66t-62 50.5t-83 20h-107q-52 0 -76 -30t-24 -103v-348h178q34 0 58.5 24t36.5 52.5t31 52.5t42 24h4q44 0 57 -54.5t13 -180.5q0 -127 -13 -181.5t-57 -54.5h-4q-23 0 -42 24
t-31 53t-36.5 53t-58.5 24h-178v-332q0 -73 24 -103t76 -30h146q53 0 96 28t71.5 68t54 80t58 68t70.5 28h2zM623 1845q148 -131 193 -189t20 -102q-14 -24 -37 -32.5t-70 -1.5t-100 22.5t-152 48.5q-95 32 -111.5 86t31.5 129q31 53 62 76.5t72 15.5t92 -53z" />
    <glyph glyph-name="Eacute" unicode="&#xc9;" horiz-adv-x="1269" 
d="M1155 434q35 0 51.5 -26.5t10.5 -77.5q-7 -78 -43 -273q-9 -48 -32 -70t-67 -22q-30 0 -88 17.5t-117 17.5h-600q-198 0 -198 96v4q0 28 17 56.5t34.5 62t17.5 76.5v844q0 34 -11 62.5t-23.5 45.5t-23.5 40t-11 46v2q0 99 198 99h559q61 0 118 17t87 17q44 0 67 -22
t32 -72q28 -129 45 -270q6 -52 -11 -78.5t-51 -26.5h-4q-32 0 -60.5 20t-48.5 50.5t-45 66t-49 66t-62 50.5t-83 20h-107q-52 0 -76 -30t-24 -103v-348h178q34 0 58.5 24t36.5 52.5t31 52.5t42 24h4q44 0 57 -54.5t13 -180.5q0 -127 -13 -181.5t-57 -54.5h-4q-23 0 -42 24
t-31 53t-36.5 53t-58.5 24h-178v-332q0 -73 24 -103t76 -30h146q53 0 96 28t71.5 68t54 80t58 68t70.5 28h2zM831 1806q48 -75 31.5 -129t-110.5 -86q-99 -33 -152 -48.5t-100 -22.5t-70 1.5t-37 32.5q-26 43 18.5 101t192.5 190q51 45 92 53t72.5 -15.5t62.5 -76.5z" />
    <glyph glyph-name="Ecircumflex" unicode="&#xca;" horiz-adv-x="1269" 
d="M1155 434q35 0 51.5 -26.5t10.5 -77.5q-7 -78 -43 -273q-9 -48 -32 -70t-67 -22q-30 0 -88 17.5t-117 17.5h-600q-198 0 -198 96v4q0 28 17 56.5t34.5 62t17.5 76.5v844q0 34 -11 62.5t-23.5 45.5t-23.5 40t-11 46v2q0 99 198 99h559q61 0 118 17t87 17q44 0 67 -22
t32 -72q28 -129 45 -270q6 -52 -11 -78.5t-51 -26.5h-4q-32 0 -60.5 20t-48.5 50.5t-45 66t-49 66t-62 50.5t-83 20h-107q-52 0 -76 -30t-24 -103v-348h178q34 0 58.5 24t36.5 52.5t31 52.5t42 24h4q44 0 57 -54.5t13 -180.5q0 -127 -13 -181.5t-57 -54.5h-4q-23 0 -42 24
t-31 53t-36.5 53t-58.5 24h-178v-332q0 -73 24 -103t76 -30h146q53 0 96 28t71.5 68t54 80t58 68t70.5 28h2zM924 1665q38 -40 15 -72.5t-73 -9.5l-241 115q-158 -74 -242 -115q-51 -23 -73 9.5t16 72.5q143 143 217 221l9 9l8 8l7 7t7.5 7t7 5t7.5 4.5t7.5 3.5t8.5 3t9 1.5
t11 0.5q9 0 17 -2t13 -3.5t13 -8t10.5 -8.5t13 -13t13.5 -14q37 -39 219 -221z" />
    <glyph glyph-name="Edieresis" unicode="&#xcb;" horiz-adv-x="1269" 
d="M1155 434q35 0 51.5 -26.5t10.5 -77.5q-7 -78 -43 -273q-9 -48 -32 -70t-67 -22q-30 0 -88 17.5t-117 17.5h-600q-198 0 -198 96v4q0 28 17 56.5t34.5 62t17.5 76.5v844q0 34 -11 62.5t-23.5 45.5t-23.5 40t-11 46v2q0 99 198 99h559q61 0 118 17t87 17q44 0 67 -22
t32 -72q28 -129 45 -270q6 -52 -11 -78.5t-51 -26.5h-4q-32 0 -60.5 20t-48.5 50.5t-45 66t-49 66t-62 50.5t-83 20h-107q-52 0 -76 -30t-24 -103v-348h178q34 0 58.5 24t36.5 52.5t31 52.5t42 24h4q44 0 57 -54.5t13 -180.5q0 -127 -13 -181.5t-57 -54.5h-4q-23 0 -42 24
t-31 53t-36.5 53t-58.5 24h-178v-332q0 -73 24 -103t76 -30h146q53 0 96 28t71.5 68t54 80t58 68t70.5 28h2zM385 1915q80 0 134 -49.5t54 -132.5q0 -85 -54 -134t-134 -49t-135 49t-55 134q0 83 55 132.5t135 49.5zM823 1915q80 0 134.5 -49.5t54.5 -132.5
q0 -85 -54.5 -134t-134.5 -49t-135 49t-55 134q0 83 55 132.5t135 49.5z" />
    <glyph glyph-name="Igrave" unicode="&#xcc;" horiz-adv-x="698" 
d="M627 1352q0 -23 -11 -46t-24 -40t-24 -45.5t-11 -61.5v-870q0 -43 17.5 -76.5t35 -62t17.5 -56.5v-4q0 -96 -277 -96q-278 0 -278 96v4q0 28 17 56.5t34.5 62t17.5 76.5v870q0 53 -34.5 107t-34.5 86v4q0 27 21 45t63.5 26t85.5 10.5t108 2.5t108 -2.5t85.5 -10.5t63 -26
t20.5 -45v-4zM367 1845q148 -131 193 -189t20 -102q-14 -24 -37 -32.5t-70 -1.5t-100 22.5t-152 48.5q-95 32 -111.5 86t31.5 129q31 53 62 76.5t72 15.5t92 -53z" />
    <glyph glyph-name="Iacute" unicode="&#xcd;" horiz-adv-x="698" 
d="M627 1352q0 -23 -11 -46t-24 -40t-24 -45.5t-11 -61.5v-870q0 -43 17.5 -76.5t35 -62t17.5 -56.5v-4q0 -96 -277 -96q-278 0 -278 96v4q0 28 17 56.5t34.5 62t17.5 76.5v870q0 53 -34.5 107t-34.5 86v4q0 27 21 45t63.5 26t85.5 10.5t108 2.5t108 -2.5t85.5 -10.5t63 -26
t20.5 -45v-4zM557 1806q48 -75 31.5 -129t-111.5 -86q-99 -33 -152 -48t-100 -22.5t-69.5 1t-36.5 32.5q-26 43 18.5 101t192.5 190q51 45 92 53t72.5 -15.5t62.5 -76.5z" />
    <glyph glyph-name="Icircumflex" unicode="&#xce;" horiz-adv-x="698" 
d="M627 1352q0 -23 -11 -46t-24 -40t-24 -45.5t-11 -61.5v-870q0 -43 17.5 -76.5t35 -62t17.5 -56.5v-4q0 -96 -277 -96q-278 0 -278 96v4q0 28 17 56.5t34.5 62t17.5 76.5v870q0 53 -34.5 107t-34.5 86v4q0 27 21 45t63.5 26t85.5 10.5t108 2.5t108 -2.5t85.5 -10.5t63 -26
t20.5 -45v-4zM649 1665q38 -40 15.5 -72.5t-72.5 -9.5l-242 115q-157 -74 -241 -115q-51 -23 -73.5 9.5t15.5 72.5q143 143 217 221l9 9l8 8l7 7t7.5 7t7 5t7.5 4.5t7.5 3.5t8.5 3t9 1.5t11 0.5q9 0 17 -2t13 -3.5t13 -8t10.5 -8.5t13 -13t13.5 -14q37 -39 219 -221z" />
    <glyph glyph-name="Idieresis" unicode="&#xcf;" horiz-adv-x="698" 
d="M627 1352q0 -23 -11 -46t-24 -40t-24 -45.5t-11 -61.5v-870q0 -43 17.5 -76.5t35 -62t17.5 -56.5v-4q0 -96 -277 -96q-278 0 -278 96v4q0 28 17 56.5t34.5 62t17.5 76.5v870q0 53 -34.5 107t-34.5 86v4q0 27 21 45t63.5 26t85.5 10.5t108 2.5t108 -2.5t85.5 -10.5t63 -26
t20.5 -45v-4zM131 1915q80 0 134 -49.5t54 -132.5q0 -85 -54 -134t-134 -49t-135 49t-55 134q0 83 55 132.5t135 49.5zM569 1915q80 0 134.5 -49.5t54.5 -132.5q0 -85 -54.5 -134t-134.5 -49t-135 49t-55 134q0 83 55 132.5t135 49.5z" />
    <glyph glyph-name="Eth" unicode="&#xd0;" horiz-adv-x="1556" 
d="M682 1434q205 0 366.5 -56t262.5 -154t153 -227t52 -280t-52 -280t-153 -227t-262.5 -154t-366.5 -56h-385q-199 0 -199 98v2q0 28 17.5 56.5t35 62t17.5 76.5v354h-14q-82 0 -82 82q0 80 82 80h14v328q0 43 -17.5 76.5t-35 61.5t-17.5 56v4q0 97 199 97h385zM684 162
q120 0 206.5 78t126.5 201t40 276t-40 276t-126.5 201t-206.5 78q-52 0 -76 -30t-24 -103v-328h192q44 0 62 -20.5t18 -59.5q0 -82 -80 -82h-192v-354q0 -73 24 -103t76 -30z" />
    <glyph glyph-name="Ntilde" unicode="&#xd1;" horiz-adv-x="1536" 
d="M1294 1440q75 0 122.5 -24t47.5 -73v-4q0 -23 -14 -46t-30 -40t-30 -45.5t-14 -62.5v-985q0 -166 -135 -166q-72 0 -114 25.5t-95 91.5q-36 45 -708 909v-731q0 -34 14 -63t31 -46t31 -40t14 -46v-4q0 -49 -47.5 -72.5t-122.5 -23.5q-76 0 -124 23.5t-48 72.5v4
q0 23 14 46t31 40t31 46t14 63v856q0 34 -12 62.5t-26 45.5t-26 40t-12 46v4q0 97 199 97q104 0 162.5 -13.5t87 -35.5t69.5 -74q7 -9 248 -322.5t360 -466.5v617q0 34 -14 62.5t-30 45.5t-30 40t-14 46v4q0 49 47.5 73t122.5 24zM682 1876q90 0 182 -47q97 -51 174 -57
q31 -2 59 11.5t44 29.5t37.5 26t38.5 0q17 -9 18.5 -41t-13.5 -73.5t-42 -81t-72 -66.5t-98 -27q-73 0 -209 58q-96 42 -150 37q-33 -3 -67 -27t-63 -40.5t-60 -6.5q-35 12 -21 80q17 82 82 150q72 74 160 75z" />
    <glyph glyph-name="Ograve" unicode="&#xd2;" 
d="M795 1454q162 0 302 -52t243 -145.5t162 -233t59 -306.5t-59 -306.5t-162 -233t-243 -145.5t-302 -52q-157 0 -295 52t-239.5 145.5t-160.5 233t-59 306.5q0 223 98 391.5t268.5 257t387.5 88.5zM842 166q125 10 187 169t40 406q-22 246 -110.5 391.5t-213.5 135.5
q-83 -7 -139.5 -82t-79 -203t-8.5 -291q22 -248 110.5 -393t213.5 -133zM819 1845q148 -131 193 -189t20 -102q-14 -24 -36.5 -32.5t-69.5 -1t-100 22.5t-152 48q-95 32 -111.5 86t31.5 129q31 53 61.5 76.5t71.5 15.5t92 -53z" />
    <glyph glyph-name="Oacute" unicode="&#xd3;" 
d="M795 1454q162 0 302 -52t243 -145.5t162 -233t59 -306.5t-59 -306.5t-162 -233t-243 -145.5t-302 -52q-157 0 -295 52t-239.5 145.5t-160.5 233t-59 306.5q0 223 98 391.5t268.5 257t387.5 88.5zM842 166q125 10 187 169t40 406q-22 246 -110.5 391.5t-213.5 135.5
q-83 -7 -139.5 -82t-79 -203t-8.5 -291q22 -248 110.5 -393t213.5 -133zM1008 1806q48 -75 31.5 -129t-111.5 -86q-99 -33 -152 -48.5t-100 -22.5t-70 1.5t-37 32.5q-26 43 18.5 101t192.5 190q51 45 92.5 53t73 -15.5t62.5 -76.5z" />
    <glyph glyph-name="Ocircumflex" unicode="&#xd4;" 
d="M795 1454q162 0 302 -52t243 -145.5t162 -233t59 -306.5t-59 -306.5t-162 -233t-243 -145.5t-302 -52q-157 0 -295 52t-239.5 145.5t-160.5 233t-59 306.5q0 223 98 391.5t268.5 257t387.5 88.5zM842 166q125 10 187 169t40 406q-22 246 -110.5 391.5t-213.5 135.5
q-83 -7 -139.5 -82t-79 -203t-8.5 -291q22 -248 110.5 -393t213.5 -133zM1100 1665q38 -40 15 -72.5t-73 -9.5l-241 115q-158 -74 -242 -115q-51 -23 -73 9.5t16 72.5q143 143 217 221l9 9l8 8l7 7t7.5 7t7 5t7.5 4.5t7.5 3.5t8.5 3t9 1.5t11 0.5q9 0 17 -2t13 -3.5t13 -8
t10.5 -8.5t13 -13t13.5 -14q37 -39 219 -221z" />
    <glyph glyph-name="Otilde" unicode="&#xd5;" 
d="M795 1454q162 0 302 -52t243 -145.5t162 -233t59 -306.5t-59 -306.5t-162 -233t-243 -145.5t-302 -52q-157 0 -295 52t-239.5 145.5t-160.5 233t-59 306.5q0 223 98 391.5t268.5 257t387.5 88.5zM842 166q125 10 187 169t40 406q-22 246 -110.5 391.5t-213.5 135.5
q-83 -7 -139.5 -82t-79 -203t-8.5 -291q22 -248 110.5 -393t213.5 -133zM653 1876q91 0 183 -47q97 -51 174 -57q31 -2 59 11.5t44 29.5t37 26t38 0q17 -9 18.5 -41t-13.5 -73.5t-42 -81t-72 -66.5t-98 -27q-73 0 -209 58q-96 42 -149 37q-33 -3 -67 -27t-63.5 -40.5
t-60.5 -6.5q-35 12 -21 80q17 82 82 150q72 74 160 75z" />
    <glyph glyph-name="Odieresis" unicode="&#xd6;" 
d="M795 1454q162 0 302 -52t243 -145.5t162 -233t59 -306.5t-59 -306.5t-162 -233t-243 -145.5t-302 -52q-157 0 -295 52t-239.5 145.5t-160.5 233t-59 306.5q0 223 98 391.5t268.5 257t387.5 88.5zM842 166q125 10 187 169t40 406q-22 246 -110.5 391.5t-213.5 135.5
q-83 -7 -139.5 -82t-79 -203t-8.5 -291q22 -248 110.5 -393t213.5 -133zM582 1915q80 0 134 -49.5t54 -132.5q0 -85 -54 -134t-134 -49t-135.5 49.5t-55.5 133.5q0 83 55.5 132.5t135.5 49.5zM1020 1915q80 0 134 -49.5t54 -132.5q0 -85 -54 -134t-134 -49t-135.5 49.5
t-55.5 133.5q0 83 55.5 132.5t135.5 49.5z" />
    <glyph glyph-name="multiply" unicode="&#xd7;" horiz-adv-x="780" 
d="M524 713q80 -82 158 -160q56 -57 -10 -123q-66 -69 -125 -10l-158 158l-158 -158q-58 -58 -122 10q-69 65 -11 123q1 1 24 24.5t60.5 61.5t73.5 74q-41 40 -158 157q-58 58 11 123q65 68 122 11l158 -158l158 158q59 59 125 -11q66 -67 10 -123l-24.5 -24.5t-61 -60.5
t-72.5 -72z" />
    <glyph glyph-name="Oslash" unicode="&#xd8;" 
d="M1395 1196q164 -198 164 -479q0 -167 -59 -306.5t-162 -233t-243 -145.5t-302 -52q-273 0 -469 145q-112 -109 -115 -115q-59 -56 -115 0q-59 59 0 115q3 6 111 111q-164 198 -164 481q0 223 98 391.5t268 257t386 88.5q282 0 483 -147l58.5 58.5l42.5 42.5t14 15
q57 57 114 0q59 -55 0 -114q-1 -2 -13 -14t-41.5 -42t-55.5 -57zM745 1268q-83 -7 -139.5 -82t-79 -203t-8.5 -291q7 -77 17 -125l229 229t242 240q-45 117 -112.5 178t-148.5 54zM842 166q125 10 187 169t40 406q-5 44 -16 115l-469 -469q45 -112 111.5 -170t146.5 -51z
" />
    <glyph glyph-name="Ugrave" unicode="&#xd9;" horiz-adv-x="1482" 
d="M1260 1440q75 0 123.5 -24t48.5 -73v-4q0 -23 -14 -46t-31.5 -40t-31.5 -45.5t-14 -62.5v-594q0 -258 -147 -416t-416 -158q-131 0 -245 35.5t-202 103.5t-139 177t-51 246v620q0 53 -34.5 107t-34.5 86v4q0 27 21 45t63.5 26t85 10.5t106.5 2.5q65 0 108.5 -2.5
t86 -10.5t63.5 -26t21 -45v-4q0 -23 -11 -46t-24 -40t-24 -45.5t-11 -61.5v-620q0 -193 92 -292.5t236 -99.5q139 0 217 107t78 291v600q0 34 -14 62.5t-31 45.5t-31 40t-14 46v4q0 49 47.5 73t122.5 24zM831 1845q148 -131 193 -189t20 -102q-14 -24 -36.5 -32.5t-69.5 -1
t-100 22.5t-152 48q-95 32 -111.5 86t31.5 129q31 53 61.5 76.5t71.5 15.5t92 -53z" />
    <glyph glyph-name="Uacute" unicode="&#xda;" horiz-adv-x="1482" 
d="M1260 1440q75 0 123.5 -24t48.5 -73v-4q0 -23 -14 -46t-31.5 -40t-31.5 -45.5t-14 -62.5v-594q0 -258 -147 -416t-416 -158q-131 0 -245 35.5t-202 103.5t-139 177t-51 246v620q0 53 -34.5 107t-34.5 86v4q0 27 21 45t63.5 26t85 10.5t106.5 2.5q65 0 108.5 -2.5
t86 -10.5t63.5 -26t21 -45v-4q0 -23 -11 -46t-24 -40t-24 -45.5t-11 -61.5v-620q0 -193 92 -292.5t236 -99.5q139 0 217 107t78 291v600q0 34 -14 62.5t-31 45.5t-31 40t-14 46v4q0 49 47.5 73t122.5 24zM999 1806q48 -75 31.5 -129t-110.5 -86q-99 -33 -152 -48.5
t-100 -22.5t-70 1.5t-37 32.5q-26 43 18.5 101t192.5 190q51 45 92 53t72.5 -15.5t62.5 -76.5z" />
    <glyph glyph-name="Ucircumflex" unicode="&#xdb;" horiz-adv-x="1482" 
d="M1260 1440q75 0 123.5 -24t48.5 -73v-4q0 -23 -14 -46t-31.5 -40t-31.5 -45.5t-14 -62.5v-594q0 -258 -147 -416t-416 -158q-131 0 -245 35.5t-202 103.5t-139 177t-51 246v620q0 53 -34.5 107t-34.5 86v4q0 27 21 45t63.5 26t85 10.5t106.5 2.5q65 0 108.5 -2.5
t86 -10.5t63.5 -26t21 -45v-4q0 -23 -11 -46t-24 -40t-24 -45.5t-11 -61.5v-620q0 -193 92 -292.5t236 -99.5q139 0 217 107t78 291v600q0 34 -14 62.5t-31 45.5t-31 40t-14 46v4q0 49 47.5 73t122.5 24zM1133 1665q38 -40 15 -72.5t-73 -9.5l-241 115q-158 -74 -242 -115
q-51 -23 -73 9.5t16 72.5q143 143 217 221l9 9l8 8l7 7t7.5 7t7 5t7.5 4.5t7.5 3.5t8.5 3t9 1.5t11 0.5q9 0 17 -2t13 -3.5t12 -7.5l10.5 -9t13 -13t13.5 -14q18 -20 220 -221z" />
    <glyph glyph-name="Udieresis" unicode="&#xdc;" horiz-adv-x="1482" 
d="M1260 1440q75 0 123.5 -24t48.5 -73v-4q0 -23 -14 -46t-31.5 -40t-31.5 -45.5t-14 -62.5v-594q0 -258 -147 -416t-416 -158q-131 0 -245 35.5t-202 103.5t-139 177t-51 246v620q0 53 -34.5 107t-34.5 86v4q0 27 21 45t63.5 26t85 10.5t106.5 2.5q65 0 108.5 -2.5
t86 -10.5t63.5 -26t21 -45v-4q0 -23 -11 -46t-24 -40t-24 -45.5t-11 -61.5v-620q0 -193 92 -292.5t236 -99.5q139 0 217 107t78 291v600q0 34 -14 62.5t-31 45.5t-31 40t-14 46v4q0 49 47.5 73t122.5 24zM573 1915q80 0 134.5 -49.5t54.5 -132.5q0 -85 -54.5 -134
t-134.5 -49t-135 49t-55 134q0 83 55 132.5t135 49.5zM1012 1915q80 0 134 -49.5t54 -132.5q0 -85 -54 -134t-134 -49t-135.5 49.5t-55.5 133.5q0 83 55.5 132.5t135.5 49.5z" />
    <glyph glyph-name="Yacute" unicode="&#xdd;" horiz-adv-x="1304" 
d="M1135 1440q70 0 120 -23t50 -67v-4q0 -24 -16.5 -49.5t-39 -45.5t-50 -52.5t-44.5 -65.5l-268 -519v-340q0 -42 17.5 -76t34.5 -62t17 -56v-2q0 -19 -9.5 -33.5t-29.5 -23t-43 -14.5t-58 -8.5t-65 -3.5t-73 -1t-73 1t-65 3.5t-57.5 8.5t-42.5 14.5t-29.5 23t-9.5 33.5v2
q0 28 17.5 56t35 62t17.5 76v283l-321 535q-21 34 -62.5 80.5t-64.5 83t-23 77.5v2q0 58 65.5 81.5t208.5 23.5q65 0 112.5 -2.5t97 -10.5t76 -26t26.5 -45v-4q0 -22 -10 -46t-19.5 -40.5t-9.5 -43.5t16 -59l217 -424l187 408q19 40 20.5 70t-8 45t-19.5 36t-10 41v4
q0 49 54 73t131 24zM922 1806q48 -75 31.5 -129t-111.5 -86q-99 -33 -152 -48.5t-100 -22.5t-70 1.5t-37 32.5q-26 43 18.5 101t192.5 190q51 45 92.5 53t73 -15.5t62.5 -76.5z" />
    <glyph glyph-name="Thorn" unicode="&#xde;" horiz-adv-x="1300" 
d="M655 1184q275 0 440 -129.5t165 -341.5q0 -211 -165 -340t-440 -129h-94q7 -26 42.5 -76.5t35.5 -87.5v-2q0 -52 -69.5 -68t-221.5 -16q-65 0 -108 2.5t-85 10.5t-62.5 26t-20.5 45v2q0 28 17 56t34.5 62t17.5 76v885q0 42 -17 76t-34.5 62.5t-17.5 56.5v2q0 27 20.5 45
t62.5 26t85 10.5t108 2.5q152 0 221.5 -16t69.5 -68v-2q0 -38 -37 -89t-43 -81h96zM602 406q61 0 108 25.5t74.5 69.5t41.5 97.5t14 114.5q0 130 -60 218.5t-178 88.5h-45v-614h45z" />
    <glyph glyph-name="germandbls" unicode="&#xdf;" horiz-adv-x="1533" 
d="M1124 758q56 -26 98 -47.5t84 -46.5t70.5 -49t54.5 -52t40.5 -58t23 -65.5t7.5 -76t-11 -87.5q-30 -149 -157 -222.5t-324 -73.5q-112 0 -214.5 30t-154.5 82q-52 54 -59.5 125t35 123.5t120.5 52.5q54 0 90.5 -22.5t56.5 -56t36.5 -68t42 -63t61.5 -36.5q58 -11 91 10
t36 62q6 55 -39.5 93.5t-187.5 105.5q-215 102 -292.5 247t7.5 300q73 135 80 264q3 63 -17 94.5t-59 28.5q-36 -2 -60 -33.5t-36 -89.5t-16.5 -121.5t-4.5 -149.5v-839q0 -63 -49.5 -94t-159.5 -31q-276 0 -276 96v4q0 28 17.5 56.5t35 62t17.5 76.5v690q0 99 29 179.5
t77.5 135t115.5 91t140.5 53t153.5 16.5q167 0 280 -79.5t111 -178.5q0 -87 -47 -137.5t-158 -93.5q-56 -21 53 -83q37 -20 238 -115q11 -5 20 -9z" />
    <glyph glyph-name="agrave" unicode="&#xe0;" horiz-adv-x="1144" 
d="M1022 367q0 -33 16 -61.5t35 -45.5t35 -40t16 -46v-4q0 -62 -48 -110.5t-152 -71.5q-96 -21 -165 5.5t-89 100.5q-4 11 -8 37q-35 -67 -102.5 -109t-166.5 -42q-68 0 -128.5 15t-113 45.5t-84.5 84t-34 123.5q-4 93 27.5 161t90 105.5t129.5 54.5t158 17h166v84
q0 117 -13 161t-52 50q-29 4 -48.5 -11t-29.5 -41t-22 -58t-24.5 -62t-37.5 -54t-61 -33t-95 1q-45 8 -71.5 47.5t-23.5 94.5t38 103q36 49 103 81t135.5 43.5t142.5 11.5q62 0 124 -11.5t127 -39.5t114 -70t80.5 -110t31.5 -152v-254zM516 174q88 0 88 182v117h-41
q-69 0 -105 -46.5t-36 -131.5q0 -121 94 -121zM596 1415q148 -131 193 -189t20 -102q-14 -24 -36.5 -32.5t-69.5 -1t-100 22.5t-152 48q-95 32 -111.5 86t31.5 129q31 53 61.5 76.5t71.5 15.5t92 -53z" />
    <glyph glyph-name="aacute" unicode="&#xe1;" horiz-adv-x="1144" 
d="M1022 367q0 -33 16 -61.5t35 -45.5t35 -40t16 -46v-4q0 -62 -48 -110.5t-152 -71.5q-96 -21 -165 5.5t-89 100.5q-4 11 -8 37q-35 -67 -102.5 -109t-166.5 -42q-68 0 -128.5 15t-113 45.5t-84.5 84t-34 123.5q-4 93 27.5 161t90 105.5t129.5 54.5t158 17h166v84
q0 117 -13 161t-52 50q-29 4 -48.5 -11t-29.5 -41t-22 -58t-24.5 -62t-37.5 -54t-61 -33t-95 1q-45 8 -71.5 47.5t-23.5 94.5t38 103q36 49 103 81t135.5 43.5t142.5 11.5q62 0 124 -11.5t127 -39.5t114 -70t80.5 -110t31.5 -152v-254zM516 174q88 0 88 182v117h-41
q-69 0 -105 -46.5t-36 -131.5q0 -121 94 -121zM784 1376q48 -75 31.5 -129t-110.5 -86q-99 -33 -152 -48.5t-100 -22.5t-70 1.5t-37 32.5q-26 43 18.5 101t192.5 190q51 45 92 53t72.5 -15.5t62.5 -76.5z" />
    <glyph glyph-name="acircumflex" unicode="&#xe2;" horiz-adv-x="1144" 
d="M1022 367q0 -33 16 -61.5t35 -45.5t35 -40t16 -46v-4q0 -62 -48 -110.5t-152 -71.5q-96 -21 -165 5.5t-89 100.5q-4 11 -8 37q-35 -67 -102.5 -109t-166.5 -42q-68 0 -128.5 15t-113 45.5t-84.5 84t-34 123.5q-4 93 27.5 161t90 105.5t129.5 54.5t158 17h166v84
q0 117 -13 161t-52 50q-29 4 -48.5 -11t-29.5 -41t-22 -58t-24.5 -62t-37.5 -54t-61 -33t-95 1q-45 8 -71.5 47.5t-23.5 94.5t38 103q36 49 103 81t135.5 43.5t142.5 11.5q62 0 124 -11.5t127 -39.5t114 -70t80.5 -110t31.5 -152v-254zM516 174q88 0 88 182v117h-41
q-69 0 -105 -46.5t-36 -131.5q0 -121 94 -121zM877 1235q38 -40 15 -72.5t-73 -9.5l-241 115q-158 -74 -242 -115q-51 -23 -73 9.5t16 72.5q143 143 217 221l9 9l8 8l7 7t7.5 7t7 5t7.5 4.5t7.5 3.5t8.5 3t9 1.5t11 0.5q9 0 17 -2t13 -3.5t12 -7.5l10.5 -9t13 -13t13.5 -14
q18 -19 220 -221z" />
    <glyph glyph-name="atilde" unicode="&#xe3;" horiz-adv-x="1144" 
d="M1022 367q0 -33 16 -61.5t35 -45.5t35 -40t16 -46v-4q0 -62 -48 -110.5t-152 -71.5q-96 -21 -165 5.5t-89 100.5q-4 11 -8 37q-35 -67 -102.5 -109t-166.5 -42q-68 0 -128.5 15t-113 45.5t-84.5 84t-34 123.5q-4 93 27.5 161t90 105.5t129.5 54.5t158 17h166v84
q0 117 -13 161t-52 50q-29 4 -48.5 -11t-29.5 -41t-22 -58t-24.5 -62t-37.5 -54t-61 -33t-95 1q-45 8 -71.5 47.5t-23.5 94.5t38 103q36 49 103 81t135.5 43.5t142.5 11.5q62 0 124 -11.5t127 -39.5t114 -70t80.5 -110t31.5 -152v-254zM516 174q88 0 88 182v117h-41
q-69 0 -105 -46.5t-36 -131.5q0 -121 94 -121zM430 1446q90 0 182 -47q99 -52 174 -58q31 -2 59 11.5t44.5 30.5t37 26t38.5 0q17 -9 18.5 -41t-13.5 -73.5t-42 -81t-72 -66.5t-98 -27q-73 0 -209 58q-94 41 -150 36q-33 -3 -67 -27t-63 -40t-60 -6q-35 12 -21 80
q17 82 82 150q72 74 160 75z" />
    <glyph glyph-name="adieresis" unicode="&#xe4;" horiz-adv-x="1144" 
d="M1022 367q0 -33 16 -61.5t35 -45.5t35 -40t16 -46v-4q0 -62 -48 -110.5t-152 -71.5q-96 -21 -165 5.5t-89 100.5q-4 11 -8 37q-35 -67 -102.5 -109t-166.5 -42q-68 0 -128.5 15t-113 45.5t-84.5 84t-34 123.5q-4 93 27.5 161t90 105.5t129.5 54.5t158 17h166v84
q0 117 -13 161t-52 50q-29 4 -48.5 -11t-29.5 -41t-22 -58t-24.5 -62t-37.5 -54t-61 -33t-95 1q-45 8 -71.5 47.5t-23.5 94.5t38 103q36 49 103 81t135.5 43.5t142.5 11.5q62 0 124 -11.5t127 -39.5t114 -70t80.5 -110t31.5 -152v-254zM516 174q88 0 88 182v117h-41
q-69 0 -105 -46.5t-36 -131.5q0 -121 94 -121zM358 1485q80 0 134.5 -49.5t54.5 -132.5q0 -85 -54.5 -134t-134.5 -49t-135 49t-55 134q0 83 55 132.5t135 49.5zM797 1485q80 0 134 -49.5t54 -132.5q0 -85 -54 -134t-134 -49t-135.5 49.5t-55.5 133.5q0 83 55.5 132.5
t135.5 49.5z" />
    <glyph glyph-name="aring" unicode="&#xe5;" horiz-adv-x="1144" 
d="M1022 367q0 -33 16 -61.5t35 -45.5t35 -40t16 -46v-4q0 -62 -48 -110.5t-152 -71.5q-96 -21 -165 5.5t-89 100.5q-4 11 -8 37q-35 -67 -102.5 -109t-166.5 -42q-68 0 -128.5 15t-113 45.5t-84.5 84t-34 123.5q-4 93 27.5 161t90 105.5t129.5 54.5t158 17h166v84
q0 117 -13 161t-52 50q-29 4 -48.5 -11t-29.5 -41t-22 -58t-24.5 -62t-37.5 -54t-61 -33t-95 1q-45 8 -71.5 47.5t-23.5 94.5t38 103q36 49 103 81t135.5 43.5t142.5 11.5q62 0 124 -11.5t127 -39.5t114 -70t80.5 -110t31.5 -152v-254zM516 174q88 0 88 182v117h-41
q-69 0 -105 -46.5t-36 -131.5q0 -121 94 -121zM578 1493q97 0 168 -53t71 -144t-71 -143.5t-168 -52.5q-99 0 -170.5 52.5t-71.5 143.5t72 144t170 53zM578 1184q49 0 49 112q0 113 -49 113q-23 0 -37.5 -28.5t-14.5 -84.5t14.5 -84t37.5 -28z" />
    <glyph glyph-name="ae" unicode="&#xe6;" horiz-adv-x="1650" 
d="M1575 309q39 -25 19 -92q-25 -83 -113 -150q-124 -92 -301 -87q-146 3 -266 63.5t-185 173.5q-28 -102 -112 -169.5t-224 -67.5q-68 0 -128.5 14.5t-112.5 45t-84 84t-35 124.5q-3 93 28.5 161t90 105.5t129 54.5t157.5 17h168v84q0 115 -13.5 160t-51.5 51
q-29 4 -48.5 -11t-30 -41t-22.5 -58t-25 -62t-37.5 -54t-61 -33t-95.5 1q-45 8 -71.5 47.5t-23.5 94.5t38 103q36 49 103.5 81t136.5 43.5t143 11.5q73 0 158.5 -26t156.5 -71q128 94 291 97q102 1 188 -29t143.5 -82t91.5 -116.5t40 -133.5q9 -105 -20.5 -142.5
t-104.5 -37.5h-432q14 -73 59.5 -120t105 -62.5t121 -12.5t115.5 23l17.5 7t17 7t14.5 5.5t15 4.5t13 2t13.5 0.5t12 -2.5t12.5 -6zM516 174q90 0 90 182v117h-43q-69 0 -104 -46.5t-35 -131.5q0 -121 92 -121zM1184 854q-68 0 -106 -64t-38 -180h187q59 0 65 52q6 25 3 58
t-10 63t-33.5 50.5t-67.5 20.5z" />
    <glyph glyph-name="ccedilla" unicode="&#xe7;" horiz-adv-x="1028" 
d="M977 346q15 -12 18.5 -37t-6.5 -57.5t-29.5 -68.5t-54 -70.5t-77 -63t-101.5 -47.5t-125 -22l-24 -72q77 6 130.5 -7.5t78 -41.5t32.5 -59t2 -66q-10 -68 -74.5 -104t-160.5 -36q-57 0 -106.5 10.5t-81 37.5t-17.5 65q20 49 106 19q41 -12 68 -1.5t29 35.5q3 23 -9 34
t-40 11h-56q-27 0 -40 15.5t-3 48.5q9 29 45 117q-93 13 -174 50t-146 96.5t-103 150t-38 200.5q0 221 141.5 367.5t364.5 153.5q128 6 219.5 -27.5t161.5 -104.5q37 -36 58 -82t15 -99.5t-48 -94.5q-30 -29 -74 -38.5t-89.5 3.5t-85 62.5t-56.5 128.5q-13 64 -44.5 92
t-74.5 22q-70 -9 -100.5 -101.5t-6.5 -227.5q45 -262 273 -269q100 -5 190 60q69 57 113 18z" />
    <glyph glyph-name="egrave" unicode="&#xe8;" horiz-adv-x="1011" 
d="M821 291q5 2 17 7t17 7t15 5.5t14.5 4.5t12.5 2t13.5 0.5t11.5 -2.5t12 -6q38 -25 19 -92q-23 -83 -111 -149q-123 -93 -301 -88q-107 2 -199.5 35t-165 95t-114.5 160t-42 222q0 141 63.5 257.5t177 184.5t253.5 70q102 1 188 -29t143.5 -82t91.5 -116.5t40 -133.5
q9 -104 -21 -142t-104 -38h-432q14 -73 59.5 -120t105 -62.5t121 -12.5t115.5 23zM545 854q-68 0 -106 -64t-38 -180h187q59 0 65 52q6 26 3 59t-10 62.5t-33.5 50t-67.5 20.5zM539 1415q148 -131 193 -189t20 -102q-14 -24 -37 -32.5t-70 -1.5t-100 22.5t-152 48.5
q-95 32 -111.5 86t31.5 129q31 53 62 76.5t72 15.5t92 -53z" />
    <glyph glyph-name="eacute" unicode="&#xe9;" horiz-adv-x="1011" 
d="M821 291q5 2 17 7t17 7t15 5.5t14.5 4.5t12.5 2t13.5 0.5t11.5 -2.5t12 -6q38 -25 19 -92q-23 -83 -111 -149q-123 -93 -301 -88q-107 2 -199.5 35t-165 95t-114.5 160t-42 222q0 141 63.5 257.5t177 184.5t253.5 70q102 1 188 -29t143.5 -82t91.5 -116.5t40 -133.5
q9 -104 -21 -142t-104 -38h-432q14 -73 59.5 -120t105 -62.5t121 -12.5t115.5 23zM545 854q-68 0 -106 -64t-38 -180h187q59 0 65 52q6 26 3 59t-10 62.5t-33.5 50t-67.5 20.5zM729 1376q48 -75 31.5 -129t-111.5 -86q-99 -33 -152 -48t-100 -22.5t-69.5 1t-36.5 32.5
q-26 43 18.5 101t192.5 190q51 45 92 53t72.5 -15.5t62.5 -76.5z" />
    <glyph glyph-name="ecircumflex" unicode="&#xea;" horiz-adv-x="1011" 
d="M821 291q5 2 17 7t17 7t15 5.5t14.5 4.5t12.5 2t13.5 0.5t11.5 -2.5t12 -6q38 -25 19 -92q-23 -83 -111 -149q-123 -93 -301 -88q-107 2 -199.5 35t-165 95t-114.5 160t-42 222q0 141 63.5 257.5t177 184.5t253.5 70q102 1 188 -29t143.5 -82t91.5 -116.5t40 -133.5
q9 -104 -21 -142t-104 -38h-432q14 -73 59.5 -120t105 -62.5t121 -12.5t115.5 23zM545 854q-68 0 -106 -64t-38 -180h187q59 0 65 52q6 26 3 59t-10 62.5t-33.5 50t-67.5 20.5zM819 1235q38 -40 15.5 -72.5t-72.5 -9.5l-242 115q-157 -74 -241 -115q-51 -23 -73.5 9.5
t15.5 72.5q143 143 217 221l9 9l8 8l7 7t7.5 7t7 5t7.5 4.5t7.5 3.5t8.5 3t9 1.5t11 0.5q9 0 17 -2t13 -3.5t13 -8t10.5 -8.5t13 -13t13.5 -14q37 -39 219 -221z" />
    <glyph glyph-name="edieresis" unicode="&#xeb;" horiz-adv-x="1011" 
d="M821 291q5 2 17 7t17 7t15 5.5t14.5 4.5t12.5 2t13.5 0.5t11.5 -2.5t12 -6q38 -25 19 -92q-23 -83 -111 -149q-123 -93 -301 -88q-107 2 -199.5 35t-165 95t-114.5 160t-42 222q0 141 63.5 257.5t177 184.5t253.5 70q102 1 188 -29t143.5 -82t91.5 -116.5t40 -133.5
q9 -104 -21 -142t-104 -38h-432q14 -73 59.5 -120t105 -62.5t121 -12.5t115.5 23zM545 854q-68 0 -106 -64t-38 -180h187q59 0 65 52q6 26 3 59t-10 62.5t-33.5 50t-67.5 20.5zM303 1485q80 0 134.5 -49.5t54.5 -132.5q0 -85 -54.5 -134t-134.5 -49t-135 49t-55 134
q0 83 55 132.5t135 49.5zM741 1485q80 0 134.5 -49.5t54.5 -132.5q0 -85 -54.5 -134t-134.5 -49t-135 49t-55 134q0 83 55 132.5t135 49.5z" />
    <glyph glyph-name="igrave" unicode="&#xec;" horiz-adv-x="604" 
d="M526 289q0 -42 17 -76t34 -62.5t17 -56.5v-4q0 -96 -277 -96q-276 0 -276 96v4q0 28 17 56.5t34 62t17 76.5v297q0 52 -34 106t-34 86v4q0 55 57.5 99t180.5 90q52 19 95 27t78 3.5t54.5 -29t19.5 -67.5v-616zM322 1415q148 -131 193 -189t20 -102q-14 -24 -37 -32.5
t-70 -1.5t-100 22.5t-152 48.5q-95 32 -111.5 86t31.5 129q31 53 62 76.5t72 15.5t92 -53z" />
    <glyph glyph-name="iacute" unicode="&#xed;" horiz-adv-x="604" 
d="M526 289q0 -42 17 -76t34 -62.5t17 -56.5v-4q0 -96 -277 -96q-276 0 -276 96v4q0 28 17 56.5t34 62t17 76.5v297q0 52 -34 106t-34 86v4q0 55 57.5 99t180.5 90q52 19 95 27t78 3.5t54.5 -29t19.5 -67.5v-616zM510 1376q48 -75 31.5 -129t-111.5 -86q-99 -33 -152 -48
t-100 -22.5t-69.5 1t-36.5 32.5q-26 43 18.5 101t192.5 190q51 45 92 53t72.5 -15.5t62.5 -76.5z" />
    <glyph glyph-name="icircumflex" unicode="&#xee;" horiz-adv-x="604" 
d="M526 289q0 -42 17 -76t34 -62.5t17 -56.5v-4q0 -96 -277 -96q-276 0 -276 96v4q0 28 17 56.5t34 62t17 76.5v297q0 52 -34 106t-34 86v4q0 55 57.5 99t180.5 90q52 19 95 27t78 3.5t54.5 -29t19.5 -67.5v-616zM602 1235q38 -40 15.5 -72.5t-72.5 -9.5l-242 115
q-158 -74 -242 -115q-51 -23 -73 9.5t16 72.5q143 143 217 221l9 9l8 8l7 7t7.5 7t7 5t7.5 4.5t7.5 3.5t8.5 3t9 1.5t11 0.5q9 0 17 -2t13 -3.5t13 -8t10.5 -8.5t13 -13t13.5 -14q37 -39 219 -221z" />
    <glyph glyph-name="idieresis" unicode="&#xef;" horiz-adv-x="604" 
d="M526 289q0 -42 17 -76t34 -62.5t17 -56.5v-4q0 -96 -277 -96q-276 0 -276 96v4q0 28 17 56.5t34 62t17 76.5v297q0 52 -34 106t-34 86v4q0 55 57.5 99t180.5 90q52 19 95 27t78 3.5t54.5 -29t19.5 -67.5v-616zM84 1485q80 0 134 -49.5t54 -132.5q0 -85 -54 -134t-134 -49
t-135 49t-55 134q0 83 55 132.5t135 49.5zM522 1485q80 0 134.5 -49.5t54.5 -132.5q0 -85 -54.5 -134t-134.5 -49t-135 49t-55 134q0 83 55 132.5t135 49.5z" />
    <glyph glyph-name="eth" unicode="&#xf0;" horiz-adv-x="1236" 
d="M817 1278q174 -123 270 -312t87 -434q-5 -140 -56.5 -248t-135.5 -173t-187.5 -98t-221.5 -33q-158 0 -284 65t-197.5 181t-71.5 261q0 131 61 229.5t161.5 148.5t224.5 50q171 0 270 -86q-32 156 -155 285q-128 -87 -148 -102q-40 -26 -63 -21.5t-45 35.5
q-22 28 -18 54.5t42 52.5q3 3 16.5 12.5t43 29t51.5 35.5q-76 49 -156 76q-69 25 -97.5 45.5t-25.5 57.5q5 79 148 65q188 -22 344 -94q139 97 145 100q39 26 63.5 21.5t45.5 -35.5q22 -28 17.5 -54.5t-42.5 -52.5q-2 -2 -13.5 -9.5t-32 -22.5t-40.5 -29zM588 147
q72 0 112.5 82.5t40.5 216.5q0 135 -40.5 218.5t-112.5 83.5q-71 0 -111.5 -83.5t-40.5 -218.5q0 -133 40.5 -216t111.5 -83z" />
    <glyph glyph-name="ntilde" unicode="&#xf1;" horiz-adv-x="1247" 
d="M1167 289q0 -43 17.5 -76.5t35 -62t17.5 -56.5v-4q0 -96 -279 -96q-276 0 -276 96v4q0 28 17.5 56.5t35 62t17.5 76.5v323q0 101 -28.5 146t-84.5 45q-49 0 -80.5 -44.5t-32.5 -133.5v-336q0 -43 17.5 -76.5t35 -62t17.5 -56.5v-4q0 -96 -279 -96q-276 0 -276 96v4
q0 28 17.5 56.5t35 62t17.5 76.5v297q0 52 -35 106t-35 86v4q0 55 57.5 99t180.5 90q54 19 92 26.5t68.5 2.5t45.5 -28.5t15 -66.5v-61q35 70 104.5 113.5t151.5 46.5q135 6 229.5 -47.5t138 -143.5t43.5 -207v-317zM492 1446q90 0 182 -47q99 -52 174 -58q25 -2 48.5 7
t38 22t31.5 25t29 16.5t31 -2.5q17 -9 18.5 -41t-13.5 -73.5t-42 -81t-72 -66.5t-98 -27q-73 0 -209 58q-94 41 -149 36q-27 -3 -54 -18t-45.5 -30.5t-43 -24t-48.5 -0.5q-35 12 -21 80q18 83 83 150q72 75 160 75z" />
    <glyph glyph-name="ograve" unicode="&#xf2;" horiz-adv-x="1193" 
d="M592 1004q117 0 221.5 -37t181.5 -102.5t122.5 -162.5t45.5 -210q0 -114 -45.5 -211t-123 -162.5t-181.5 -102t-221 -36.5q-156 0 -285.5 62t-208 180.5t-78.5 269.5q0 150 78.5 268.5t208 181t285.5 62.5zM623 145q62 4 88 102.5t14 254.5q-14 156 -57 248t-105 86
q-63 -4 -89.5 -102.5t-12.5 -254.5t57 -248t105 -86zM610 1415q148 -131 193 -189t20 -102q-14 -24 -36.5 -32.5t-69.5 -1t-100 22.5t-152 48q-95 32 -111.5 86t31.5 129q31 53 61.5 76.5t71.5 15.5t92 -53z" />
    <glyph glyph-name="oacute" unicode="&#xf3;" horiz-adv-x="1193" 
d="M592 1004q117 0 221.5 -37t181.5 -102.5t122.5 -162.5t45.5 -210q0 -114 -45.5 -211t-123 -162.5t-181.5 -102t-221 -36.5q-156 0 -285.5 62t-208 180.5t-78.5 269.5q0 150 78.5 268.5t208 181t285.5 62.5zM623 145q62 4 88 102.5t14 254.5q-14 156 -57 248t-105 86
q-63 -4 -89.5 -102.5t-12.5 -254.5t57 -248t105 -86zM799 1376q48 -75 31.5 -129t-111.5 -86q-99 -33 -152 -48.5t-100 -22.5t-70 1.5t-37 32.5q-26 43 18.5 101t192.5 190q51 45 92.5 53t73 -15.5t62.5 -76.5z" />
    <glyph glyph-name="ocircumflex" unicode="&#xf4;" horiz-adv-x="1193" 
d="M592 1004q117 0 221.5 -37t181.5 -102.5t122.5 -162.5t45.5 -210q0 -114 -45.5 -211t-123 -162.5t-181.5 -102t-221 -36.5q-156 0 -285.5 62t-208 180.5t-78.5 269.5q0 150 78.5 268.5t208 181t285.5 62.5zM623 145q62 4 88 102.5t14 254.5q-14 156 -57 248t-105 86
q-63 -4 -89.5 -102.5t-12.5 -254.5t57 -248t105 -86zM891 1235q38 -40 15.5 -72.5t-72.5 -9.5l-242 115q-158 -74 -242 -115q-51 -23 -73 9.5t16 72.5q143 143 217 221l9 9l8 8l7 7t7.5 7t7 5t7.5 4.5t7.5 3.5t8.5 3t9 1.5t11 0.5q9 0 17 -2t13 -3.5t13 -8t10.5 -8.5t13 -13
t13.5 -14q37 -39 219 -221z" />
    <glyph glyph-name="otilde" unicode="&#xf5;" horiz-adv-x="1193" 
d="M592 1004q117 0 221.5 -37t181.5 -102.5t122.5 -162.5t45.5 -210q0 -114 -45.5 -211t-123 -162.5t-181.5 -102t-221 -36.5q-156 0 -285.5 62t-208 180.5t-78.5 269.5q0 150 78.5 268.5t208 181t285.5 62.5zM623 145q62 4 88 102.5t14 254.5q-14 156 -57 248t-105 86
q-63 -4 -89.5 -102.5t-12.5 -254.5t57 -248t105 -86zM444 1446q91 0 183 -47q99 -52 174 -58q25 -2 48.5 7t38 22t31.5 25t29 16.5t31 -2.5q17 -9 18.5 -41t-13.5 -73.5t-42 -81t-72 -66.5t-98 -27q-73 0 -209 58q-94 41 -149 36q-27 -3 -54 -18t-45.5 -30.5t-43 -24
t-48.5 -0.5q-35 12 -21 80q17 82 82 150q72 74 160 75z" />
    <glyph glyph-name="odieresis" unicode="&#xf6;" horiz-adv-x="1193" 
d="M592 1004q117 0 221.5 -37t181.5 -102.5t122.5 -162.5t45.5 -210q0 -114 -45.5 -211t-123 -162.5t-181.5 -102t-221 -36.5q-156 0 -285.5 62t-208 180.5t-78.5 269.5q0 150 78.5 268.5t208 181t285.5 62.5zM623 145q62 4 88 102.5t14 254.5q-14 156 -57 248t-105 86
q-63 -4 -89.5 -102.5t-12.5 -254.5t57 -248t105 -86zM373 1485q80 0 134 -49.5t54 -132.5q0 -85 -54 -134t-134 -49t-135.5 49.5t-55.5 133.5q0 83 55.5 132.5t135.5 49.5zM811 1485q80 0 134 -49.5t54 -132.5q0 -85 -54 -134t-134 -49t-135 49t-55 134q0 83 55 132.5
t135 49.5z" />
    <glyph glyph-name="divide" unicode="&#xf7;" horiz-adv-x="940" 
d="M469 911q-80 0 -134 49t-54 134q0 83 54 132.5t134 49.5q81 0 135.5 -49t54.5 -133q0 -85 -54.5 -134t-135.5 -49zM469 602q81 0 135.5 -49.5t54.5 -134.5q0 -84 -54.5 -133t-135.5 -49q-80 0 -134 49.5t-54 132.5q0 85 54 134.5t134 49.5zM788 846q80 0 80 -94
q0 -95 -80 -95h-636q-80 0 -80 95q0 94 80 94h636z" />
    <glyph glyph-name="oslash" unicode="&#xf8;" horiz-adv-x="1193" 
d="M1038 821q125 -138 125 -329q0 -114 -45.5 -211t-123 -162.5t-181.5 -102t-221 -36.5q-179 0 -318 77l-84 -84q-37 -32 -62.5 -30t-53.5 30q-58 57 0 115q2 1 73 72q-127 137 -127 332q0 150 78.5 268.5t208 181t285.5 62.5q176 0 317 -80q21 20 43 42l31.5 31.5
t11.5 10.5q59 59 115 0q59 -56 0 -115zM563 836q-63 -4 -89.5 -102.5t-12.5 -254.5v-6l227 227q-24 68 -56 104t-69 32zM623 145q62 4 88 102.5t14 254.5q0 4 -2 6q-37 -38 -113 -114t-112 -113q22 -68 54 -103.5t71 -32.5z" />
    <glyph glyph-name="ugrave" unicode="&#xf9;" horiz-adv-x="1290" 
d="M1157 367q0 -34 16 -63t35.5 -46t35.5 -40t16 -46v-4q0 -60 -55 -109t-161 -71q-90 -20 -153 8t-86 98q-1 2 -12 47q-37 -73 -109.5 -117t-173.5 -44q-200 0 -305 114.5t-105 294.5v225q0 42 -17 76t-34.5 62.5t-17.5 56.5v4q0 60 52.5 103.5t174.5 70.5q258 58 258 -92
v-524q0 -101 27.5 -146t83.5 -45q50 0 81.5 43.5t32.5 132.5v258q0 42 -17.5 76t-34.5 62.5t-17 56.5v4q0 60 52.5 103.5t174.5 70.5q258 58 258 -92v-528zM664 1415q148 -131 193 -189t20 -102q-14 -24 -37 -32.5t-70 -1.5t-100 22.5t-152 48.5q-95 32 -111.5 86t31.5 129
q31 53 62 76.5t72 15.5t92 -53z" />
    <glyph glyph-name="uacute" unicode="&#xfa;" horiz-adv-x="1290" 
d="M1157 367q0 -34 16 -63t35.5 -46t35.5 -40t16 -46v-4q0 -60 -55 -109t-161 -71q-90 -20 -153 8t-86 98q-1 2 -12 47q-37 -73 -109.5 -117t-173.5 -44q-200 0 -305 114.5t-105 294.5v225q0 42 -17 76t-34.5 62.5t-17.5 56.5v4q0 60 52.5 103.5t174.5 70.5q258 58 258 -92
v-524q0 -101 27.5 -146t83.5 -45q50 0 81.5 43.5t32.5 132.5v258q0 42 -17.5 76t-34.5 62.5t-17 56.5v4q0 60 52.5 103.5t174.5 70.5q258 58 258 -92v-528zM852 1376q48 -75 31.5 -129t-111.5 -86q-99 -33 -152 -48t-100 -22.5t-69.5 1t-36.5 32.5q-26 43 18.5 101
t192.5 190q51 45 92 53t72.5 -15.5t62.5 -76.5z" />
    <glyph glyph-name="ucircumflex" unicode="&#xfb;" horiz-adv-x="1290" 
d="M1157 367q0 -34 16 -63t35.5 -46t35.5 -40t16 -46v-4q0 -60 -55 -109t-161 -71q-90 -20 -153 8t-86 98q-1 2 -12 47q-37 -73 -109.5 -117t-173.5 -44q-200 0 -305 114.5t-105 294.5v225q0 42 -17 76t-34.5 62.5t-17.5 56.5v4q0 60 52.5 103.5t174.5 70.5q258 58 258 -92
v-524q0 -101 27.5 -146t83.5 -45q50 0 81.5 43.5t32.5 132.5v258q0 42 -17.5 76t-34.5 62.5t-17 56.5v4q0 60 52.5 103.5t174.5 70.5q258 58 258 -92v-528zM944 1235q38 -40 15.5 -72.5t-72.5 -9.5l-242 115q-158 -74 -242 -115q-51 -23 -73 9.5t16 72.5q143 143 217 221
l9 9l8 8l7 7t7.5 7t7 5t7.5 4.5t7.5 3.5t8.5 3t9 1.5t11 0.5q9 0 17 -2t13 -3.5t13 -8t10.5 -8.5t13 -13t13.5 -14q37 -39 219 -221z" />
    <glyph glyph-name="udieresis" unicode="&#xfc;" horiz-adv-x="1290" 
d="M1157 367q0 -34 16 -63t35.5 -46t35.5 -40t16 -46v-4q0 -60 -55 -109t-161 -71q-90 -20 -153 8t-86 98q-1 2 -12 47q-37 -73 -109.5 -117t-173.5 -44q-200 0 -305 114.5t-105 294.5v225q0 42 -17 76t-34.5 62.5t-17.5 56.5v4q0 60 52.5 103.5t174.5 70.5q258 58 258 -92
v-524q0 -101 27.5 -146t83.5 -45q50 0 81.5 43.5t32.5 132.5v258q0 42 -17.5 76t-34.5 62.5t-17 56.5v4q0 60 52.5 103.5t174.5 70.5q258 58 258 -92v-528zM426 1485q80 0 134 -49.5t54 -132.5q0 -85 -54 -134t-134 -49t-135 49t-55 134q0 83 55 132.5t135 49.5zM864 1485
q80 0 134.5 -49.5t54.5 -132.5q0 -85 -54.5 -134t-134.5 -49t-135 49t-55 134q0 83 55 132.5t135 49.5z" />
    <glyph glyph-name="yacute" unicode="&#xfd;" horiz-adv-x="1136" 
d="M981 1004q68 0 112 -23t44 -70v-2q0 -30 -25 -62t-60 -72t-51 -79q-231 -569 -233 -575q-66 -164 -122.5 -274.5t-108 -173t-91.5 -92t-94 -52.5q-33 -14 -79 -19.5t-102 2t-101 29.5q-31 15 -55.5 43t-36.5 62t-4.5 73t38.5 72q49 49 117 43t117 -57q23 -23 42 -35.5
t44 -15t48.5 14t53 58.5t60.5 111l-375 760q-18 39 -55.5 79t-62 73.5t-24.5 72.5v4q0 56 68.5 79.5t206.5 25.5q65 -1 108 -4t89 -11t69 -25.5t23 -43.5v-5q0 -26 -13.5 -60t-18 -56t12.5 -78l158 -397l135 383q15 40 15 70t-8 46t-16.5 38t-8.5 42v2q0 50 53.5 74.5
t130.5 24.5zM862 1376q48 -75 31.5 -129t-111.5 -86q-99 -33 -152 -48t-100 -22.5t-69.5 1t-36.5 32.5q-26 43 18.5 101t192.5 190q51 45 92 53t72.5 -15.5t62.5 -76.5z" />
    <glyph glyph-name="thorn" unicode="&#xfe;" horiz-adv-x="1265" 
d="M754 1004q214 0 347.5 -139.5t133.5 -372.5q0 -232 -140 -372t-356 -140q-127 0 -213 61v-191q0 -34 13 -62.5t28 -45.5t28 -40t13 -46v-2q0 -98 -291 -98q-276 0 -276 98v2q0 28 17.5 56t35 62t17.5 76v1283q0 42 -17.5 75t-35 61t-17.5 56v4q0 55 57.5 99t180.5 90
q247 90 247 -66v-534q103 86 228 86zM657 158q69 0 108.5 85t39.5 246q0 163 -39.5 248.5t-108.5 85.5q-47 0 -79 -46t-46 -119t-14 -169q0 -146 34.5 -238.5t104.5 -92.5z" />
    <glyph glyph-name="ydieresis" unicode="&#xff;" horiz-adv-x="1136" 
d="M981 1004q68 0 112 -23t44 -70v-2q0 -30 -25 -62t-60 -72t-51 -79q-231 -569 -233 -575q-66 -164 -122.5 -274.5t-108 -173t-91.5 -92t-94 -52.5q-33 -14 -79 -19.5t-102 2t-101 29.5q-31 15 -55.5 43t-36.5 62t-4.5 73t38.5 72q49 49 117 43t117 -57q23 -23 42 -35.5
t44 -15t48.5 14t53 58.5t60.5 111l-375 760q-18 39 -55.5 79t-62 73.5t-24.5 72.5v4q0 56 68.5 79.5t206.5 25.5q65 -1 108 -4t89 -11t69 -25.5t23 -43.5v-5q0 -26 -13.5 -60t-18 -56t12.5 -78l158 -397l135 383q15 40 15 70t-8 46t-16.5 38t-8.5 42v2q0 50 53.5 74.5
t130.5 24.5zM436 1485q80 0 134.5 -49.5t54.5 -132.5q0 -85 -54.5 -134t-134.5 -49t-135 49t-55 134q0 83 55 132.5t135 49.5zM874 1485q80 0 134.5 -49.5t54.5 -132.5q0 -85 -54.5 -134t-134.5 -49t-135 49t-55 134q0 83 55 132.5t135 49.5z" />
    <glyph glyph-name="Amacron" unicode="&#x100;" horiz-adv-x="1423" 
d="M1300 326q16 -41 51 -80.5t59 -73t24 -72.5v-4q0 -57 -66 -79.5t-209 -22.5q-136 0 -210.5 16.5t-74.5 67.5v2q0 26 13 60.5t17 56.5t-13 77l-51 132h-478l-40 -119q-15 -39 -13.5 -69.5t9.5 -45.5t17 -36.5t9 -41.5v-4q0 -49 -53.5 -72.5t-130.5 -23.5q-70 0 -120 23
t-50 67v4q0 24 17 48.5t39.5 44t48 52.5t38.5 68l324 846q15 53 11.5 75t-15 56.5t-11.5 60.5v4q0 97 207 97q112 0 159 -23t75 -90zM420 569h356l-188 480zM995 1800q47 0 64.5 -18t17.5 -56t-17.5 -55.5t-64.5 -17.5h-651q-45 0 -62.5 18t-17.5 55q0 38 17.5 56t62.5 18
h651z" />
    <glyph glyph-name="amacron" unicode="&#x101;" horiz-adv-x="1144" 
d="M1022 367q0 -33 16 -61.5t35 -45.5t35 -40t16 -46v-4q0 -62 -48 -110.5t-152 -71.5q-96 -21 -165 5.5t-89 100.5q-4 11 -8 37q-35 -67 -102.5 -109t-166.5 -42q-68 0 -128.5 15t-113 45.5t-84.5 84t-34 123.5q-4 93 27.5 161t90 105.5t129.5 54.5t158 17h166v84
q0 117 -13 161t-52 50q-29 4 -48.5 -11t-29.5 -41t-22 -58t-24.5 -62t-37.5 -54t-61 -33t-95 1q-45 8 -71.5 47.5t-23.5 94.5t38 103q36 49 103 81t135.5 43.5t142.5 11.5q62 0 124 -11.5t127 -39.5t114 -70t80.5 -110t31.5 -152v-254zM516 174q88 0 88 182v117h-41
q-69 0 -105 -46.5t-36 -131.5q0 -121 94 -121zM901 1370q47 0 64.5 -18t17.5 -56t-17.5 -55.5t-64.5 -17.5h-651q-45 0 -62.5 18t-17.5 55q0 38 17.5 56t62.5 18h651z" />
    <glyph glyph-name="Abreve" unicode="&#x102;" horiz-adv-x="1423" 
d="M1300 326q16 -41 51 -80.5t59 -73t24 -72.5v-4q0 -57 -66 -79.5t-209 -22.5q-136 0 -210.5 16.5t-74.5 67.5v2q0 26 13 60.5t17 56.5t-13 77l-51 132h-478l-40 -119q-15 -39 -13.5 -69.5t9.5 -45.5t17 -36.5t9 -41.5v-4q0 -49 -53.5 -72.5t-130.5 -23.5q-70 0 -120 23
t-50 67v4q0 24 17 48.5t39.5 44t48 52.5t38.5 68l324 846q15 53 11.5 75t-15 56.5t-11.5 60.5v4q0 97 207 97q112 0 159 -23t75 -90zM420 569h356l-188 480zM928 1864q43 -17 40 -85q-4 -82 -69 -153q-87 -96 -229 -96q-151 0 -239 107q-60 73 -59 151q0 60 40 76
q22 8 34.5 6t26 -11t22.5 -22t25.5 -28t34 -27.5t47.5 -20.5t68 -8t68 8t47.5 20.5t34 27.5t25.5 28t22.5 22t26 11t34.5 -6z" />
    <glyph glyph-name="abreve" unicode="&#x103;" horiz-adv-x="1144" 
d="M1022 367q0 -33 16 -61.5t35 -45.5t35 -40t16 -46v-4q0 -62 -48 -110.5t-152 -71.5q-96 -21 -165 5.5t-89 100.5q-4 11 -8 37q-35 -67 -102.5 -109t-166.5 -42q-68 0 -128.5 15t-113 45.5t-84.5 84t-34 123.5q-4 93 27.5 161t90 105.5t129.5 54.5t158 17h166v84
q0 117 -13 161t-52 50q-29 4 -48.5 -11t-29.5 -41t-22 -58t-24.5 -62t-37.5 -54t-61 -33t-95 1q-45 8 -71.5 47.5t-23.5 94.5t38 103q36 49 103 81t135.5 43.5t142.5 11.5q62 0 124 -11.5t127 -39.5t114 -70t80.5 -110t31.5 -152v-254zM516 174q88 0 88 182v117h-41
q-69 0 -105 -46.5t-36 -131.5q0 -121 94 -121zM836 1434q43 -17 40 -85q-4 -82 -69 -153q-87 -96 -229 -96q-151 0 -239 107q-60 73 -60 151q0 60 40 76q21 10 39.5 5.5t29 -17t27.5 -29.5t34.5 -32.5t51.5 -26.5t77 -11q38 0 68 8t47.5 20.5t34 27.5t25.5 28t22.5 22t26 11
t34.5 -6z" />
    <glyph glyph-name="Aogonek" unicode="&#x104;" horiz-adv-x="1423" 
d="M1300 326q16 -41 51 -80t59 -72.5t24 -73.5v-2q0 -52 -52 -75.5t-163 -28.5q-29 -78 -41 -129t-9 -72t15.5 -31t28 -10t32.5 -5t25 -19q24 -40 -27 -87t-131 -47q-91 0 -138.5 44t-47.5 114q0 63 43.5 128.5t124.5 113.5q-50 2 -86 6t-68.5 12.5t-49 25t-16.5 40.5v4
q0 26 13 59.5t17 55.5t-13 77l-51 134h-475l-43 -121q-15 -38 -13.5 -68.5t9.5 -45.5t17 -36.5t9 -42.5v-4q0 -49 -53 -72.5t-129 -23.5q-70 0 -121 23t-51 67v4q0 24 17 48.5t39.5 44t48 52.5t38.5 68l324 846q12 32 12.5 59.5t-5.5 44.5t-13 41.5t-7 46.5v4q0 97 205 97
q112 0 159 -23t75 -90zM420 569h356l-188 480z" />
    <glyph glyph-name="aogonek" unicode="&#x105;" horiz-adv-x="1146" 
d="M1024 367q0 -33 16 -61.5t35 -45.5t35 -40.5t16 -47.5v-2q0 -112 -141 -166q-37 -97 -49 -153t-2 -74.5t26.5 -22t39 -8t32.5 -20.5q23 -40 -27.5 -86t-130.5 -46q-91 0 -138.5 44t-47.5 114q0 58 37.5 119t108.5 109q-62 2 -104.5 30.5t-57.5 83.5q-4 11 -8 37
q-36 -68 -103.5 -111t-167.5 -43q-67 0 -127.5 15t-112.5 46t-84.5 85t-35.5 125q-2 75 18.5 134t57.5 96.5t90.5 62.5t112 35t126.5 10h168v84q0 117 -13 161t-52 50q-29 4 -48.5 -11t-30 -41t-22.5 -58t-24.5 -62t-37.5 -54t-60.5 -33t-94.5 1q-46 8 -72.5 47.5t-23 94.5
t38.5 103q51 72 157 104t224 32q43 0 86.5 -5.5t91 -19t90 -33.5t81.5 -51t67 -69.5t44.5 -91t16.5 -113.5v-254zM606 356v117h-41q-69 0 -105 -46.5t-36 -131.5q0 -121 94 -121q88 0 88 182z" />
    <glyph glyph-name="Cacute" unicode="&#x106;" horiz-adv-x="1468" 
d="M1364 475q25 -10 37 -35.5t0 -62.5q-62 -185 -218 -291t-368 -106q-104 0 -201.5 21t-186.5 62t-161.5 105.5t-124.5 147t-78 192t-20 235.5q7 161 71.5 296t168.5 225t241 140t291 50q60 0 121 -9t97.5 -16.5t84 -6t94.5 19.5q52 20 94.5 0.5t51.5 -68.5q7 -34 16 -111
t18 -164t11 -104q6 -51 -11 -77.5t-51 -26.5h-4q-28 0 -53.5 22.5t-48 58.5t-46.5 79t-54.5 86.5t-66 79.5t-87.5 58.5t-113 22.5q-161 0 -268 -142.5t-94 -344.5q8 -131 51.5 -231.5t107 -158t142.5 -86t157.5 -23.5t152 37t126.5 89q30 33 65 41.5t56 -4.5zM932 1806
q48 -75 31.5 -129t-111.5 -86q-99 -33 -152 -48t-100 -22.5t-69.5 1t-36.5 32.5q-26 43 18.5 101t192.5 190q51 45 92 53t72.5 -15.5t62.5 -76.5z" />
    <glyph glyph-name="cacute" unicode="&#x107;" horiz-adv-x="1028" 
d="M674 268q103 -2 190 60q69 57 113 18q16 -19 18.5 -60t-31 -93.5t-80.5 -100t-130 -80t-179 -32.5q-83 0 -162 19t-150.5 60t-125.5 99t-85.5 142t-31.5 183q0 221 141.5 367.5t364.5 153.5q128 6 219.5 -27t163.5 -105q36 -36 56.5 -82t14.5 -99.5t-48 -94.5
q-30 -29 -74 -38.5t-89.5 3.5t-85 62.5t-56.5 128.5q-13 64 -44.5 92t-74.5 22q-69 -9 -100 -102t-7 -227q23 -137 95.5 -201.5t177.5 -67.5zM737 1376q48 -75 31.5 -129t-111.5 -86q-99 -33 -152 -48t-100 -22.5t-69.5 1t-36.5 32.5q-26 43 18.5 101t192.5 190q51 45 92 53
t72.5 -15.5t62.5 -76.5z" />
    <glyph glyph-name="Ccircumflex" unicode="&#x108;" horiz-adv-x="1468" 
d="M1364 475q25 -10 37 -35.5t0 -62.5q-62 -185 -218 -291t-368 -106q-104 0 -201.5 21t-186.5 62t-161.5 105.5t-124.5 147t-78 192t-20 235.5q7 161 71.5 296t168.5 225t241 140t291 50q60 0 121 -9t97.5 -16.5t84 -6t94.5 19.5q52 20 94.5 0.5t51.5 -68.5q7 -34 16 -111
t18 -164t11 -104q6 -51 -11 -77.5t-51 -26.5h-4q-28 0 -53.5 22.5t-48 58.5t-46.5 79t-54.5 86.5t-66 79.5t-87.5 58.5t-113 22.5q-161 0 -268 -142.5t-94 -344.5q8 -131 51.5 -231.5t107 -158t142.5 -86t157.5 -23.5t152 37t126.5 89q30 33 65 41.5t56 -4.5zM1104 1665
q38 -40 15.5 -72.5t-72.5 -9.5l-242 115q-158 -74 -242 -115q-51 -23 -73 9.5t16 72.5q143 143 217 221l9 9l8 8l7 7t7.5 7t7 5t7.5 4.5t7.5 3.5t8.5 3t9 1.5t11 0.5q9 0 17 -2t13 -3.5t13 -8t10.5 -8.5t13 -13t13.5 -14q37 -39 219 -221z" />
    <glyph glyph-name="ccircumflex" unicode="&#x109;" horiz-adv-x="1028" 
d="M674 268q103 -2 190 60q69 57 113 18q16 -19 18.5 -60t-31 -93.5t-80.5 -100t-130 -80t-179 -32.5q-83 0 -162 19t-150.5 60t-125.5 99t-85.5 142t-31.5 183q0 221 141.5 367.5t364.5 153.5q128 6 219.5 -27t163.5 -105q36 -36 56.5 -82t14.5 -99.5t-48 -94.5
q-30 -29 -74 -38.5t-89.5 3.5t-85 62.5t-56.5 128.5q-13 64 -44.5 92t-74.5 22q-69 -9 -100 -102t-7 -227q23 -137 95.5 -201.5t177.5 -67.5zM827 1235q38 -40 15.5 -72.5t-72.5 -9.5l-242 115q-157 -74 -241 -115q-51 -23 -73.5 9.5t15.5 72.5q143 143 217 221l9 9l8 8l7 7
t7.5 7t7 5t7.5 4.5t7.5 3.5t8.5 3t9 1.5t11 0.5q9 0 17 -2t13 -3.5t13 -8t10.5 -8.5t13 -13t13.5 -14q37 -39 219 -221z" />
    <glyph glyph-name="Cdotaccent" unicode="&#x10a;" horiz-adv-x="1468" 
d="M1364 475q25 -10 37 -35.5t0 -62.5q-62 -185 -218 -291t-368 -106q-104 0 -201.5 21t-186.5 62t-161.5 105.5t-124.5 147t-78 192t-20 235.5q7 161 71.5 296t168.5 225t241 140t291 50q60 0 121 -9t97.5 -16.5t84 -6t94.5 19.5q52 20 94.5 0.5t51.5 -68.5q7 -34 16 -111
t18 -164t11 -104q6 -51 -11 -77.5t-51 -26.5h-4q-28 0 -53.5 22.5t-48 58.5t-46.5 79t-54.5 86.5t-66 79.5t-87.5 58.5t-113 22.5q-161 0 -268 -142.5t-94 -344.5q8 -131 51.5 -231.5t107 -158t142.5 -86t157.5 -23.5t152 37t126.5 89q30 33 65 41.5t56 -4.5zM807 1915
q80 0 134 -49.5t54 -132.5q0 -85 -54 -134t-134 -49t-135.5 49.5t-55.5 133.5q0 83 55.5 132.5t135.5 49.5z" />
    <glyph glyph-name="cdotaccent" unicode="&#x10b;" horiz-adv-x="1028" 
d="M674 268q103 -2 190 60q69 57 113 18q16 -19 18.5 -60t-31 -93.5t-80.5 -100t-130 -80t-179 -32.5q-83 0 -162 19t-150.5 60t-125.5 99t-85.5 142t-31.5 183q0 221 141.5 367.5t364.5 153.5q128 6 219.5 -27t163.5 -105q36 -36 56.5 -82t14.5 -99.5t-48 -94.5
q-30 -29 -74 -38.5t-89.5 3.5t-85 62.5t-56.5 128.5q-13 64 -44.5 92t-74.5 22q-69 -9 -100 -102t-7 -227q23 -137 95.5 -201.5t177.5 -67.5zM530 1485q80 0 134.5 -49.5t54.5 -132.5q0 -85 -54.5 -134t-134.5 -49t-135 49t-55 134q0 83 55 132.5t135 49.5z" />
    <glyph glyph-name="Ccaron" unicode="&#x10c;" horiz-adv-x="1468" 
d="M1364 475q25 -10 37 -35.5t0 -62.5q-62 -185 -218 -291t-368 -106q-104 0 -201.5 21t-186.5 62t-161.5 105.5t-124.5 147t-78 192t-20 235.5q7 161 71.5 296t168.5 225t241 140t291 50q60 0 121 -9t97.5 -16.5t84 -6t94.5 19.5q52 20 94.5 0.5t51.5 -68.5q7 -34 16 -111
t18 -164t11 -104q6 -51 -11 -77.5t-51 -26.5h-4q-28 0 -53.5 22.5t-48 58.5t-46.5 79t-54.5 86.5t-66 79.5t-87.5 58.5t-113 22.5q-161 0 -268 -142.5t-94 -344.5q8 -131 51.5 -231.5t107 -158t142.5 -86t157.5 -23.5t152 37t126.5 89q30 33 65 41.5t56 -4.5zM1069 1927
q50 23 72.5 -9.5t-15.5 -72.5q-109 -105 -219 -221q-3 -3 -13.5 -14t-13 -13t-10.5 -8.5t-13 -8t-13 -3.5t-17 -2q-8 0 -15 1t-13.5 3.5t-10.5 4.5t-10.5 8t-9.5 8.5t-11 11t-12 12.5q-110 116 -219 221q-38 40 -15 72.5t73 9.5l243 -115q158 74 242 115z" />
    <glyph glyph-name="ccaron" unicode="&#x10d;" horiz-adv-x="1028" 
d="M674 268q103 -2 190 60q69 57 113 18q16 -19 18.5 -60t-31 -93.5t-80.5 -100t-130 -80t-179 -32.5q-83 0 -162 19t-150.5 60t-125.5 99t-85.5 142t-31.5 183q0 221 141.5 367.5t364.5 153.5q128 6 219.5 -27t163.5 -105q36 -36 56.5 -82t14.5 -99.5t-48 -94.5
q-30 -29 -74 -38.5t-89.5 3.5t-85 62.5t-56.5 128.5q-13 64 -44.5 92t-74.5 22q-69 -9 -100 -102t-7 -227q23 -137 95.5 -201.5t177.5 -67.5zM772 1497q50 23 72.5 -9.5t-15.5 -72.5q-109 -105 -219 -221q-3 -3 -13.5 -14t-13 -13t-10.5 -8.5t-13 -8t-13 -3.5t-17 -2
q-10 0 -18 2t-13 3.5t-12.5 7.5t-11 9t-13 13t-13.5 14q-100 105 -220 221q-38 40 -15 72.5t73 9.5l243 -115q158 74 242 115z" />
    <glyph glyph-name="Dcaron" unicode="&#x10e;" horiz-adv-x="1529" 
d="M657 1434q205 0 366 -56t261.5 -154t152.5 -227t52 -280t-52 -280t-152.5 -227t-261.5 -154t-366 -56h-387q-198 0 -198 96v4q0 28 17 56.5t34.5 62t17.5 76.5v844q0 34 -11 62.5t-23.5 45.5t-23.5 40t-11 46v2q0 99 198 99h387zM659 162q90 0 162 44.5t117 122
t68.5 176.5t23.5 212t-23.5 212t-68.5 176.5t-117 122t-162 44.5q-54 0 -77 -29.5t-23 -103.5v-844q0 -74 23 -103.5t77 -29.5zM940 1927q50 23 72.5 -9.5t-15.5 -72.5q-109 -105 -219 -221q-3 -3 -13.5 -14t-13 -13t-10.5 -8.5t-13 -8t-13 -3.5t-17 -2q-8 0 -15 1
t-13.5 3.5t-10.5 4.5t-10.5 8t-9.5 8.5t-11 11t-12 12.5q-110 116 -219 221q-38 40 -15 72.5t73 9.5l243 -115q158 74 242 115z" />
    <glyph glyph-name="dcaron" unicode="&#x10f;" horiz-adv-x="1325" 
d="M1145 367q0 -34 16 -63t35 -46t35 -40t16 -46v-4q0 -62 -49.5 -110t-153.5 -70q-92 -21 -162.5 8t-88.5 98q-4 10 -9 25q-115 -139 -282 -139q-215 0 -348.5 139t-133.5 373q0 231 139.5 371.5t354.5 140.5q126 0 213 -64v193q0 42 -17 75t-34 61t-17 56v4q0 55 57.5 99
t180.5 90q52 19 95 27t78.5 3.5t55 -29t19.5 -67.5v-1085zM596 158q70 0 105.5 93.5t35.5 240.5q0 146 -35.5 238.5t-105.5 92.5q-67 0 -106 -85t-39 -246q0 -162 39 -248t106 -86zM1427 1604q79 -2 129.5 -57t53.5 -150q1 -51 -10 -103.5t-30.5 -96.5t-45 -84.5t-52.5 -67
t-54.5 -46t-51 -21t-41.5 8.5q-15 16 -14.5 30.5t13 38.5t27 45.5t26.5 50.5t12 54q0 18 -15 33.5t-36.5 29.5t-43 32t-36.5 49t-15 71q0 83 52.5 134.5t131.5 48.5z" />
    <glyph glyph-name="Dcroat" unicode="&#x110;" horiz-adv-x="1556" 
d="M682 1434q205 0 366.5 -56t262.5 -154t153 -227t52 -280t-52 -280t-153 -227t-262.5 -154t-366.5 -56h-385q-199 0 -199 98v2q0 28 17.5 56.5t35 62t17.5 76.5v354h-14q-82 0 -82 82q0 80 82 80h14v328q0 43 -17.5 76.5t-35 61.5t-17.5 56v4q0 97 199 97h385zM684 162
q120 0 206.5 78t126.5 201t40 276t-40 276t-126.5 201t-206.5 78q-52 0 -76 -30t-24 -103v-328h192q44 0 62 -20.5t18 -59.5q0 -82 -80 -82h-192v-354q0 -73 24 -103t76 -30z" />
    <glyph glyph-name="dcroat" unicode="&#x111;" horiz-adv-x="1257" 
d="M1145 1061v-694q0 -34 16 -63t35 -46t35 -40t16 -46v-4q0 -62 -49.5 -110t-153.5 -70q-92 -21 -162.5 8t-88.5 98q-4 10 -9 25q-115 -139 -282 -139q-215 0 -348.5 139t-133.5 373q0 231 139.5 371.5t354.5 140.5q126 0 213 -64v121h-238q-44 0 -61.5 21t-17.5 61
q0 39 17.5 59.5t61.5 20.5h213q-4 8 -17.5 30t-19.5 37.5t-6 34.5v4q0 55 57.5 99t180.5 90q52 19 95 27t78.5 3.5t55 -29t19.5 -67.5v-229h20q82 0 82 -80q0 -82 -82 -82h-20zM596 158q70 0 105.5 93.5t35.5 240.5q0 146 -35.5 238.5t-105.5 92.5q-67 0 -106 -85t-39 -246
q0 -162 39 -248t106 -86z" />
    <glyph glyph-name="Emacron" unicode="&#x112;" horiz-adv-x="1269" 
d="M1155 434q35 0 51.5 -26.5t10.5 -77.5q-7 -78 -43 -273q-9 -48 -32 -70t-67 -22q-30 0 -88 17.5t-117 17.5h-600q-198 0 -198 96v4q0 28 17 56.5t34.5 62t17.5 76.5v844q0 34 -11 62.5t-23.5 45.5t-23.5 40t-11 46v2q0 99 198 99h559q61 0 118 17t87 17q44 0 67 -22
t32 -72q28 -129 45 -270q6 -52 -11 -78.5t-51 -26.5h-4q-32 0 -60.5 20t-48.5 50.5t-45 66t-49 66t-62 50.5t-83 20h-107q-52 0 -76 -30t-24 -103v-348h178q34 0 58.5 24t36.5 52.5t31 52.5t42 24h4q44 0 57 -54.5t13 -180.5q0 -127 -13 -181.5t-57 -54.5h-4q-23 0 -42 24
t-31 53t-36.5 53t-58.5 24h-178v-332q0 -73 24 -103t76 -30h146q53 0 96 28t71.5 68t54 80t58 68t70.5 28h2zM928 1800q47 0 64.5 -18t17.5 -56t-17.5 -55.5t-64.5 -17.5h-652q-45 0 -62 17.5t-17 55.5t17 56t62 18h652z" />
    <glyph glyph-name="emacron" unicode="&#x113;" horiz-adv-x="1011" 
d="M821 291q5 2 17 7t17 7t15 5.5t14.5 4.5t12.5 2t13.5 0.5t11.5 -2.5t12 -6q38 -25 19 -92q-23 -83 -111 -149q-123 -93 -301 -88q-107 2 -199.5 35t-165 95t-114.5 160t-42 222q0 141 63.5 257.5t177 184.5t253.5 70q102 1 188 -29t143.5 -82t91.5 -116.5t40 -133.5
q9 -104 -21 -142t-104 -38h-432q14 -73 59.5 -120t105 -62.5t121 -12.5t115.5 23zM545 854q-68 0 -106 -64t-38 -180h187q59 0 65 52q6 26 3 59t-10 62.5t-33.5 50t-67.5 20.5zM846 1370q47 0 64.5 -18t17.5 -56t-17.5 -55.5t-64.5 -17.5h-651q-45 0 -62.5 18t-17.5 55
q0 38 17.5 56t62.5 18h651z" />
    <glyph glyph-name="Ebreve" unicode="&#x114;" horiz-adv-x="1269" 
d="M1155 434q35 0 51.5 -26.5t10.5 -77.5q-7 -78 -43 -273q-9 -48 -32 -70t-67 -22q-30 0 -88 17.5t-117 17.5h-600q-198 0 -198 96v4q0 28 17 56.5t34.5 62t17.5 76.5v844q0 34 -11 62.5t-23.5 45.5t-23.5 40t-11 46v2q0 99 198 99h559q61 0 118 17t87 17q44 0 67 -22
t32 -72q28 -129 45 -270q6 -52 -11 -78.5t-51 -26.5h-4q-32 0 -60.5 20t-48.5 50.5t-45 66t-49 66t-62 50.5t-83 20h-107q-52 0 -76 -30t-24 -103v-348h178q34 0 58.5 24t36.5 52.5t31 52.5t42 24h4q44 0 57 -54.5t13 -180.5q0 -127 -13 -181.5t-57 -54.5h-4q-23 0 -42 24
t-31 53t-36.5 53t-58.5 24h-178v-332q0 -73 24 -103t76 -30h146q53 0 96 28t71.5 68t54 80t58 68t70.5 28h2zM883 1864q43 -17 40 -85q-4 -82 -69 -153q-87 -96 -229 -96q-151 0 -239 107q-60 73 -59 151q0 60 40 76q22 8 34.5 6t26 -11t22.5 -22t25.5 -28t34 -27.5
t47.5 -20.5t68 -8t68 8t47.5 20.5t34 27.5t25.5 28t22.5 22t26 11t34.5 -6z" />
    <glyph glyph-name="ebreve" unicode="&#x115;" horiz-adv-x="1011" 
d="M821 291q5 2 17 7t17 7t15 5.5t14.5 4.5t12.5 2t13.5 0.5t11.5 -2.5t12 -6q38 -25 19 -92q-23 -83 -111 -149q-123 -93 -301 -88q-107 2 -199.5 35t-165 95t-114.5 160t-42 222q0 141 63.5 257.5t177 184.5t253.5 70q102 1 188 -29t143.5 -82t91.5 -116.5t40 -133.5
q9 -104 -21 -142t-104 -38h-432q14 -73 59.5 -120t105 -62.5t121 -12.5t115.5 23zM545 854q-68 0 -106 -64t-38 -180h187q59 0 65 52q6 26 3 59t-10 62.5t-33.5 50t-67.5 20.5zM778 1434q43 -17 40 -85q-4 -82 -69 -153q-87 -96 -229 -96q-151 0 -239 107q-60 73 -59 151
q0 60 40 76q22 8 34.5 6t26 -11t22.5 -22t25.5 -28t34 -27.5t47.5 -20.5t68 -8t68 8t47.5 20.5t34 27.5t25.5 28t22.5 22t26 11t34.5 -6z" />
    <glyph glyph-name="Edotaccent" unicode="&#x116;" horiz-adv-x="1269" 
d="M1155 434q35 0 51.5 -26.5t10.5 -77.5q-7 -78 -43 -273q-9 -48 -32 -70t-67 -22q-30 0 -88 17.5t-117 17.5h-600q-198 0 -198 96v4q0 28 17 56.5t34.5 62t17.5 76.5v844q0 34 -11 62.5t-23.5 45.5t-23.5 40t-11 46v2q0 99 198 99h559q61 0 118 17t87 17q44 0 67 -22
t32 -72q28 -129 45 -270q6 -52 -11 -78.5t-51 -26.5h-4q-32 0 -60.5 20t-48.5 50.5t-45 66t-49 66t-62 50.5t-83 20h-107q-52 0 -76 -30t-24 -103v-348h178q34 0 58.5 24t36.5 52.5t31 52.5t42 24h4q44 0 57 -54.5t13 -180.5q0 -127 -13 -181.5t-57 -54.5h-4q-23 0 -42 24
t-31 53t-36.5 53t-58.5 24h-178v-332q0 -73 24 -103t76 -30h146q53 0 96 28t71.5 68t54 80t58 68t70.5 28h2zM604 1915q80 0 134.5 -49.5t54.5 -132.5q0 -85 -54.5 -134t-134.5 -49t-135 49t-55 134q0 83 55 132.5t135 49.5z" />
    <glyph glyph-name="edotaccent" unicode="&#x117;" horiz-adv-x="1011" 
d="M821 291q5 2 17 7t17 7t15 5.5t14.5 4.5t12.5 2t13.5 0.5t11.5 -2.5t12 -6q38 -25 19 -92q-23 -83 -111 -149q-123 -93 -301 -88q-107 2 -199.5 35t-165 95t-114.5 160t-42 222q0 141 63.5 257.5t177 184.5t253.5 70q102 1 188 -29t143.5 -82t91.5 -116.5t40 -133.5
q9 -104 -21 -142t-104 -38h-432q14 -73 59.5 -120t105 -62.5t121 -12.5t115.5 23zM545 854q-68 0 -106 -64t-38 -180h187q59 0 65 52q6 26 3 59t-10 62.5t-33.5 50t-67.5 20.5zM522 1485q80 0 134.5 -49.5t54.5 -132.5q0 -85 -54.5 -134t-134.5 -49t-135 49t-55 134
q0 83 55 132.5t135 49.5z" />
    <glyph glyph-name="Eogonek" unicode="&#x118;" horiz-adv-x="1269" 
d="M1155 434q34 0 51 -26t11 -78q-16 -133 -46 -271q-9 -50 -31.5 -72t-66.5 -22q-15 0 -39 4q-30 -84 -38 -132.5t3 -64t27 -18.5t37.5 -7t30.5 -19q24 -40 -26.5 -87t-129.5 -47q-92 0 -139 44t-49 114q0 64 44.5 130.5t129.5 115.5q-16 2 -56 2h-598q-198 0 -198 98v2
q0 28 16.5 56.5t33.5 62t17 76.5v844q0 34 -10.5 62.5t-23 45.5t-23 40t-10.5 46v4q0 97 198 97h559q59 0 117 17t88 17q44 0 67 -22t32 -70q36 -196 43 -272q6 -51 -10.5 -78t-51.5 -27h-2q-32 0 -60.5 20t-49 50.5t-45.5 66t-49.5 66t-62.5 50.5t-83 20h-105
q-52 0 -76 -30t-24 -103v-348h178q34 0 58.5 24t36.5 52.5t31 52.5t42 24h4q43 0 56.5 -55t13.5 -180q0 -124 -13.5 -179t-56.5 -55h-4q-23 0 -42 24t-31 53t-36.5 53t-58.5 24h-178v-334q0 -73 24 -103t76 -30h146q53 0 96 28t71 68t54 80t58 68t69 28h4z" />
    <glyph glyph-name="eogonek" unicode="&#x119;" horiz-adv-x="1011" 
d="M934 309q21 -13 25.5 -42.5t-10.5 -66.5t-44.5 -74.5t-80.5 -72t-113 -53.5q-36 -96 -47.5 -151t-1 -73.5t26.5 -22t38.5 -7.5t32.5 -20q23 -40 -27.5 -86t-130.5 -46q-91 0 -138.5 44t-47.5 114q0 58 37 119t106 109h-18q-107 2 -199.5 35t-165 95t-114.5 160t-42 222
q0 141 63.5 257.5t177 184.5t253.5 70q102 1 188 -29t143.5 -82t91.5 -116.5t40 -133.5q9 -105 -20.5 -142.5t-104.5 -37.5h-432q14 -73 59.5 -120t105 -62.5t121 -12.5t115.5 23q5 2 17 7t17 7t15 5.5t14.5 4.5t12.5 2t13.5 0.5t11.5 -2.5t12 -6zM545 854q-68 0 -106 -64
t-38 -180h187q59 0 65 52q6 25 3 58t-10 63t-33.5 50.5t-67.5 20.5z" />
    <glyph glyph-name="Ecaron" unicode="&#x11a;" horiz-adv-x="1269" 
d="M1155 434q35 0 51.5 -26.5t10.5 -77.5q-7 -78 -43 -273q-9 -48 -32 -70t-67 -22q-30 0 -88 17.5t-117 17.5h-600q-198 0 -198 96v4q0 28 17 56.5t34.5 62t17.5 76.5v844q0 34 -11 62.5t-23.5 45.5t-23.5 40t-11 46v2q0 99 198 99h559q61 0 118 17t87 17q44 0 67 -22
t32 -72q28 -129 45 -270q6 -52 -11 -78.5t-51 -26.5h-4q-32 0 -60.5 20t-48.5 50.5t-45 66t-49 66t-62 50.5t-83 20h-107q-52 0 -76 -30t-24 -103v-348h178q34 0 58.5 24t36.5 52.5t31 52.5t42 24h4q44 0 57 -54.5t13 -180.5q0 -127 -13 -181.5t-57 -54.5h-4q-23 0 -42 24
t-31 53t-36.5 53t-58.5 24h-178v-332q0 -73 24 -103t76 -30h146q53 0 96 28t71.5 68t54 80t58 68t70.5 28h2zM866 1927q50 23 73 -9.5t-15 -72.5q-109 -105 -219 -221q-3 -3 -13.5 -14t-13 -13t-10.5 -8.5t-13 -8t-13 -3.5t-17 -2q-8 0 -15 1t-13.5 3.5t-10.5 4.5t-10.5 8
t-9.5 8.5t-11 11t-12 12.5q-110 116 -219 221q-38 40 -15.5 72.5t72.5 9.5l244 -115q157 74 241 115z" />
    <glyph glyph-name="ecaron" unicode="&#x11b;" horiz-adv-x="1011" 
d="M821 291q5 2 17 7t17 7t15 5.5t14.5 4.5t12.5 2t13.5 0.5t11.5 -2.5t12 -6q38 -25 19 -92q-23 -83 -111 -149q-123 -93 -301 -88q-107 2 -199.5 35t-165 95t-114.5 160t-42 222q0 141 63.5 257.5t177 184.5t253.5 70q102 1 188 -29t143.5 -82t91.5 -116.5t40 -133.5
q9 -104 -21 -142t-104 -38h-432q14 -73 59.5 -120t105 -62.5t121 -12.5t115.5 23zM545 854q-68 0 -106 -64t-38 -180h187q59 0 65 52q6 26 3 59t-10 62.5t-33.5 50t-67.5 20.5zM764 1497q50 23 72.5 -9.5t-15.5 -72.5q-109 -105 -219 -221q-3 -3 -13.5 -14t-13 -13
t-10.5 -8.5t-13 -8t-13 -3.5t-17 -2q-8 0 -15 1t-13.5 3.5t-10.5 4.5t-10.5 8t-9.5 8.5t-11 11t-12 12.5q-110 116 -219 221q-38 40 -15 72.5t73 9.5l243 -115q158 74 242 115z" />
    <glyph glyph-name="Gcircumflex" unicode="&#x11c;" horiz-adv-x="1552" 
d="M1241 711q132 0 201 -17t69 -69v-4q0 -28 -16.5 -56.5t-33.5 -62.5t-17 -76v-336q0 -43 -19 -67t-50 -28t-66.5 4t-73.5 26q-32 14 -61 43q-95 -45 -173.5 -66.5t-185.5 -21.5q-125 0 -240.5 29.5t-216 91t-173 150t-111 215.5t-31.5 277q7 161 71 296t168.5 225t241 140
t289.5 50q60 0 121 -9t97.5 -16.5t84 -6t94.5 19.5q52 20 95 0.5t53 -68.5q6 -34 15 -112t17 -162t11 -105q6 -51 -11 -77.5t-51 -26.5h-4q-32 0 -61.5 30t-53.5 75.5t-57.5 98t-70.5 98t-96 75.5t-130 30q-104 0 -186 -68t-124.5 -182.5t-37.5 -250.5q5 -130 39 -235
t86 -172.5t118.5 -110.5t137 -57.5t141.5 -4.5v209q0 42 -17 76t-34.5 62.5t-17.5 56.5v4q0 52 69 69t201 17zM1137 1665q38 -40 15 -72.5t-73 -9.5l-241 115q-158 -74 -242 -115q-51 -23 -73 9.5t16 72.5q143 143 217 221l9 9l8 8l7 7t7.5 7t7 5t7.5 4.5t7.5 3.5t8.5 3
t9 1.5t11 0.5q9 0 17 -2t13 -3.5t13 -8t10.5 -8.5t13 -13t13.5 -14q37 -39 219 -221z" />
    <glyph glyph-name="gcircumflex" unicode="&#x11d;" horiz-adv-x="1058" 
d="M688 131q197 0 294 -62t97 -194q0 -167 -152.5 -263.5t-391.5 -96.5q-99 0 -190 15t-173 47t-133.5 90t-56.5 136q-7 103 35.5 158t109.5 62q-59 128 57 280q-149 113 -149 299q0 180 139 291t348 111q58 0 121 -13q44 107 123 183q77 77 160.5 83.5t132.5 -73.5
q20 -44 19 -85.5t-34.5 -75t-91.5 -44.5q-22 -4 -56.5 -6.5t-61.5 -7.5t-52 -17q107 -51 168.5 -140t61.5 -206q0 -181 -139.5 -291t-350.5 -110q-80 0 -168 20q-9 -35 9.5 -55.5t57 -27t89.5 -9t105 0.5q49 1 73 1zM500 866q-44 -4 -61.5 -79t-6.5 -193q9 -118 39.5 -189
t75.5 -67q43 4 60.5 79.5t6.5 192.5q-9 118 -39 188.5t-75 67.5zM543 -299q59 0 93.5 21t33.5 61q0 65 -146 65q-120 0 -211 31q2 -47 25.5 -83.5t59 -56t72.5 -29t73 -9.5zM827 1235q38 -40 15.5 -72.5t-72.5 -9.5l-242 115q-157 -74 -241 -115q-51 -23 -73.5 9.5
t15.5 72.5q143 143 217 221l9 9l8 8l7 7t7.5 7t7 5t7.5 4.5t7.5 3.5t8.5 3t9 1.5t11 0.5q9 0 17 -2t13 -3.5t13 -8t10.5 -8.5t13 -13t13.5 -14q37 -39 219 -221z" />
    <glyph glyph-name="Gbreve" unicode="&#x11e;" horiz-adv-x="1552" 
d="M1241 711q132 0 201 -17t69 -69v-4q0 -28 -16.5 -56.5t-33.5 -62.5t-17 -76v-336q0 -43 -19 -67t-50 -28t-66.5 4t-73.5 26q-32 14 -61 43q-95 -45 -173.5 -66.5t-185.5 -21.5q-125 0 -240.5 29.5t-216 91t-173 150t-111 215.5t-31.5 277q7 161 71 296t168.5 225t241 140
t289.5 50q60 0 121 -9t97.5 -16.5t84 -6t94.5 19.5q52 20 95 0.5t53 -68.5q6 -34 15 -112t17 -162t11 -105q6 -51 -11 -77.5t-51 -26.5h-4q-32 0 -61.5 30t-53.5 75.5t-57.5 98t-70.5 98t-96 75.5t-130 30q-104 0 -186 -68t-124.5 -182.5t-37.5 -250.5q5 -130 39 -235
t86 -172.5t118.5 -110.5t137 -57.5t141.5 -4.5v209q0 42 -17 76t-34.5 62.5t-17.5 56.5v4q0 52 69 69t201 17zM1075 1864q43 -17 40 -85q-4 -82 -69 -153q-87 -96 -229 -96q-151 0 -239 107q-60 73 -59 151q0 60 40 76q22 8 34.5 6t26 -11t22.5 -22t25.5 -28t34 -27.5
t47.5 -20.5t68 -8t68 8t47.5 20.5t34 27.5t25.5 28t22.5 22t26 11t34.5 -6z" />
    <glyph glyph-name="gbreve" unicode="&#x11f;" horiz-adv-x="1058" 
d="M688 131q197 0 294 -62t97 -194q0 -167 -152.5 -263.5t-391.5 -96.5q-99 0 -190 15t-173 47t-133.5 90t-56.5 136q-7 103 35.5 158t109.5 62q-59 128 57 280q-149 113 -149 299q0 180 139 291t348 111q58 0 121 -13q44 107 123 183q77 77 160.5 83.5t132.5 -73.5
q20 -44 19 -85.5t-34.5 -75t-91.5 -44.5q-22 -4 -56.5 -6.5t-61.5 -7.5t-52 -17q107 -51 168.5 -140t61.5 -206q0 -181 -139.5 -291t-350.5 -110q-80 0 -168 20q-9 -35 9.5 -55.5t57 -27t89.5 -9t105 0.5q49 1 73 1zM500 866q-44 -4 -61.5 -79t-6.5 -193q9 -118 39.5 -189
t75.5 -67q43 4 60.5 79.5t6.5 192.5q-9 118 -39 188.5t-75 67.5zM543 -299q59 0 93.5 21t33.5 61q0 65 -146 65q-120 0 -211 31q2 -47 25.5 -83.5t59 -56t72.5 -29t73 -9.5zM786 1434q43 -17 40 -85q-4 -82 -69 -153q-87 -96 -229 -96q-151 0 -239 107q-60 73 -59 151
q0 60 40 76q22 8 34.5 6t26 -11t22.5 -22t25.5 -28t34 -27.5t47.5 -20.5t68 -8t68 8t47.5 20.5t34 27.5t25.5 28t22.5 22t26 11t34.5 -6z" />
    <glyph glyph-name="Gdotaccent" unicode="&#x120;" horiz-adv-x="1552" 
d="M1241 711q132 0 201 -17t69 -69v-4q0 -28 -16.5 -56.5t-33.5 -62.5t-17 -76v-336q0 -43 -19 -67t-50 -28t-66.5 4t-73.5 26q-32 14 -61 43q-95 -45 -173.5 -66.5t-185.5 -21.5q-125 0 -240.5 29.5t-216 91t-173 150t-111 215.5t-31.5 277q7 161 71 296t168.5 225t241 140
t289.5 50q60 0 121 -9t97.5 -16.5t84 -6t94.5 19.5q52 20 95 0.5t53 -68.5q6 -34 15 -112t17 -162t11 -105q6 -51 -11 -77.5t-51 -26.5h-4q-32 0 -61.5 30t-53.5 75.5t-57.5 98t-70.5 98t-96 75.5t-130 30q-104 0 -186 -68t-124.5 -182.5t-37.5 -250.5q5 -130 39 -235
t86 -172.5t118.5 -110.5t137 -57.5t141.5 -4.5v209q0 42 -17 76t-34.5 62.5t-17.5 56.5v4q0 52 69 69t201 17zM817 1915q80 0 134.5 -49.5t54.5 -132.5q0 -85 -54.5 -134t-134.5 -49t-135 49t-55 134q0 83 55 132.5t135 49.5z" />
    <glyph glyph-name="gdotaccent" unicode="&#x121;" horiz-adv-x="1058" 
d="M688 131q197 0 294 -62t97 -194q0 -167 -152.5 -263.5t-391.5 -96.5q-99 0 -190 15t-173 47t-133.5 90t-56.5 136q-7 103 35.5 158t109.5 62q-59 128 57 280q-149 113 -149 299q0 180 139 291t348 111q58 0 121 -13q44 107 123 183q77 77 160.5 83.5t132.5 -73.5
q20 -44 19 -85.5t-34.5 -75t-91.5 -44.5q-22 -4 -56.5 -6.5t-61.5 -7.5t-52 -17q107 -51 168.5 -140t61.5 -206q0 -181 -139.5 -291t-350.5 -110q-80 0 -168 20q-9 -35 9.5 -55.5t57 -27t89.5 -9t105 0.5q49 1 73 1zM500 866q-44 -4 -61.5 -79t-6.5 -193q9 -118 39.5 -189
t75.5 -67q43 4 60.5 79.5t6.5 192.5q-9 118 -39 188.5t-75 67.5zM543 -299q59 0 93.5 21t33.5 61q0 65 -146 65q-120 0 -211 31q2 -47 25.5 -83.5t59 -56t72.5 -29t73 -9.5zM530 1485q80 0 134.5 -49.5t54.5 -132.5q0 -85 -54.5 -134t-134.5 -49t-135 49t-55 134
q0 83 55 132.5t135 49.5z" />
    <glyph glyph-name="Gcommaaccent" unicode="&#x122;" horiz-adv-x="1552" 
d="M854 -63q79 -3 129 -58t51 -149q1 -52 -10 -105t-30.5 -96.5t-44.5 -84t-52 -67.5t-54 -46.5t-50.5 -21t-40.5 8.5q-15 16 -14.5 30.5t13 38.5t26.5 45.5t26 50.5t12 54q0 18 -15 33.5t-36 29.5t-42.5 32t-36.5 49t-15 71q0 83 52 135t132 50zM1241 711q132 0 201 -17
t69 -69v-4q0 -28 -16.5 -56.5t-33.5 -62.5t-17 -76v-336q0 -43 -19 -67t-50 -28t-66.5 4t-73.5 26q-32 14 -61 43q-95 -45 -173.5 -66.5t-185.5 -21.5q-125 0 -240.5 29.5t-216 91t-173 150t-111 215.5t-31.5 277q7 161 71 296t168.5 225t241 140t289.5 50q60 0 121 -9
t97.5 -16.5t84 -6t94.5 19.5q52 20 95 0.5t53 -68.5q6 -34 15 -112t17 -162t11 -105q6 -51 -11 -77.5t-51 -26.5h-4q-32 0 -61.5 30t-53.5 75.5t-57.5 98t-70.5 98t-96 75.5t-130 30q-104 0 -186 -68t-124.5 -182.5t-37.5 -250.5q5 -130 39 -235t86 -172.5t118.5 -110.5
t137 -57.5t141.5 -4.5v209q0 42 -17 76t-34.5 62.5t-17.5 56.5v4q0 52 69 69t201 17z" />
    <glyph glyph-name="gcommaaccent" unicode="&#x123;" horiz-adv-x="1058" 
d="M688 131q197 0 294 -62t97 -194q0 -167 -152.5 -263.5t-391.5 -96.5q-99 0 -190 15t-173 47t-133.5 90t-56.5 136q-7 103 35.5 158t109.5 62q-59 128 57 280q-149 113 -149 299q0 180 139 291t348 111q58 0 121 -13q44 107 123 183q77 77 160.5 83.5t132.5 -73.5
q20 -44 19 -85.5t-34.5 -75t-91.5 -44.5q-22 -4 -56.5 -6.5t-61.5 -7.5t-52 -17q107 -51 168.5 -140t61.5 -206q0 -181 -139.5 -291t-350.5 -110q-80 0 -168 20q-9 -35 9.5 -55.5t57 -27t89.5 -9t105 0.5q49 1 73 1zM500 866q-44 -4 -61.5 -79t-6.5 -193q9 -118 39.5 -189
t75.5 -67q43 4 60.5 79.5t6.5 192.5q-9 118 -39 188.5t-75 67.5zM543 -299q59 0 93.5 21t33.5 61q0 65 -146 65q-120 0 -211 31q2 -47 25.5 -83.5t59 -56t72.5 -29t73 -9.5zM528 1122q-79 3 -129 58t-51 149q-1 52 10 105t30.5 96.5t44.5 84t52.5 67.5t54.5 46.5t50.5 21
t40.5 -8.5q15 -16 14.5 -30.5t-13 -38.5t-27 -46t-26.5 -51.5t-12 -54.5q0 -17 15 -32t36.5 -29t43 -32t36.5 -49.5t15 -72.5q0 -81 -52.5 -133t-132.5 -50z" />
    <glyph glyph-name="Hcircumflex" unicode="&#x124;" horiz-adv-x="1585" 
d="M1513 1352q0 -32 -34.5 -86t-34.5 -107v-885q0 -34 11 -62.5t23.5 -45.5t23.5 -40t11 -46v-2q0 -27 -21 -45t-63.5 -26t-85.5 -10.5t-108 -2.5q-64 0 -107 2.5t-85.5 10.5t-63.5 26t-21 45v2q0 28 17.5 56t35 62t17.5 76v373h-471v-373q0 -42 17.5 -76t35 -62t17.5 -56
v-2q0 -27 -21 -45t-63.5 -26t-86 -10.5t-108.5 -2.5q-64 0 -106.5 2.5t-85 10.5t-63.5 26t-21 45v2q0 28 17 56t34.5 62t17.5 76v885q0 53 -34.5 107t-34.5 86v4q0 27 21 45t63.5 26t85 10.5t106.5 2.5q65 0 108.5 -2.5t86 -10.5t63.5 -26t21 -45v-4q0 -23 -11 -46t-24 -40
t-24 -45.5t-11 -61.5v-350h471v350q0 33 -11 61.5t-24 45.5t-24 40t-11 46v4q0 27 21 45t63.5 26t85.5 10.5t107 2.5q65 0 108 -2.5t85.5 -10.5t63.5 -26t21 -45v-4zM1092 1665q38 -40 15 -72.5t-73 -9.5l-241 115q-158 -74 -242 -115q-51 -23 -73 9.5t16 72.5
q143 143 217 221l9 9l8 8l7 7t7.5 7t7 5t7.5 4.5t7.5 3.5t8.5 3t9 1.5t11 0.5q9 0 17 -2t13 -3.5t12 -7.5l10.5 -9t13 -13t13.5 -14q18 -20 220 -221z" />
    <glyph glyph-name="hcircumflex" unicode="&#x125;" horiz-adv-x="1247" 
d="M1167 289q0 -43 17.5 -76.5t35 -62t17.5 -56.5v-4q0 -96 -279 -96q-276 0 -276 96v4q0 28 17.5 56.5t35 62t17.5 76.5v350q0 102 -28 146t-85 44q-49 0 -80.5 -44.5t-32.5 -133.5v-362q0 -43 17.5 -76.5t35 -62t17.5 -56.5v-4q0 -96 -277 -96q-278 0 -278 96v4
q0 28 17.5 56.5t35 62t17.5 76.5v844q0 42 -17.5 75t-35 61t-17.5 56v4q0 55 57.5 99t180.5 90q247 90 247 -66v-541q97 90 224 93q102 4 182.5 -25.5t131 -84.5t77 -128.5t26.5 -159.5v-317zM694 1679q38 -40 15.5 -72.5t-72.5 -9.5l-242 115q-157 -74 -241 -115
q-51 -23 -73.5 9.5t15.5 72.5q125 125 217 222l9 9l8 8l7 7t7.5 7t7 5t7.5 4.5t7.5 3.5t8.5 3t9 1.5t11 0.5q9 0 17 -2t13 -3.5t13 -8t10.5 -8.5t13 -13t13.5 -14q56 -58 219 -222z" />
    <glyph glyph-name="Hbar" unicode="&#x126;" horiz-adv-x="1585" 
d="M1470 954h-26v-680q0 -52 34.5 -106t34.5 -86v-4q0 -27 -21 -45t-63.5 -26t-85.5 -10.5t-108 -2.5t-108 2.5t-85.5 10.5t-63 26t-20.5 45v4q0 32 34 86t34 106v373h-469v-373q0 -52 35 -106t35 -86v-4q0 -27 -21 -45t-63.5 -26t-86 -10.5t-108.5 -2.5t-108 2.5t-85 10.5
t-62.5 26t-20.5 45v4q0 32 34.5 86t34.5 106v680h-28q-45 0 -63.5 18.5t-18.5 55.5q0 39 18.5 57.5t63.5 18.5h28v55q0 42 -17 76t-34.5 62.5t-17.5 56.5v2q0 27 20.5 45t62.5 26t85 10.5t108 2.5t108.5 -2.5t86 -10.5t63.5 -26t21 -45v-2q0 -28 -17.5 -56.5t-35 -62.5
t-17.5 -76v-55h469v55q0 42 -17 76t-34 62.5t-17 56.5v2q0 27 20.5 45t63 26t85.5 10.5t108 2.5t108 -2.5t85.5 -10.5t63.5 -26t21 -45v-2q0 -28 -17.5 -56.5t-34.5 -62.5t-17 -76v-55h26q47 0 64.5 -18.5t17.5 -57.5q0 -38 -17.5 -56t-64.5 -18zM1026 809v145h-469v-145
h469z" />
    <glyph glyph-name="hbar" unicode="&#x127;" horiz-adv-x="1247" 
d="M1169 289q0 -43 17 -76.5t34 -62t17 -56.5v-4q0 -96 -276 -96q-279 0 -279 96v4q0 28 17.5 56.5t35 62t17.5 76.5v350q0 101 -27.5 145.5t-83.5 44.5q-50 0 -81.5 -44.5t-31.5 -133.5v-362q0 -42 17 -76t34 -62.5t17 -56.5v-4q0 -96 -277 -96q-278 0 -278 96v4
q0 28 17.5 56.5t35 62t17.5 76.5v772h-27q-46 0 -64 21t-18 61q0 39 18 59.5t64 20.5h2q-5 9 -18.5 30.5t-20 37.5t-6.5 34v4q0 55 58 99t182 90q52 19 95 27t78 3.5t54.5 -29t19.5 -67.5v-229h230q46 0 64 -20.5t18 -59.5q0 -40 -18 -61t-64 -21h-230v-150q97 90 224 93
q102 4 182.5 -25.5t131 -84.5t77 -128.5t26.5 -159.5v-317z" />
    <glyph glyph-name="Itilde" unicode="&#x128;" horiz-adv-x="698" 
d="M618 1352q0 -32 -34.5 -86t-34.5 -107v-870q0 -42 17.5 -76t34.5 -62.5t17 -56.5v-4q0 -96 -276 -96q-279 0 -279 96v4q0 28 17.5 56.5t35 62t17.5 76.5v870q0 33 -11 61.5t-24 45.5t-24 40t-11 46v4q0 27 21 45t63.5 26t86 10.5t108.5 2.5t108 -2.5t85 -10.5t62.5 -26
t20.5 -45v-4zM195 1876q90 0 182 -47q97 -51 174 -57q31 -2 59 11.5t44 29.5t37 26t38 0q17 -9 18.5 -41t-13.5 -73.5t-42 -81t-72 -66.5t-98 -27q-73 0 -209 58q-96 42 -149 37q-33 -3 -67 -27t-63.5 -40.5t-60.5 -6.5q-35 12 -21 80q18 83 83 150q72 75 160 75z" />
    <glyph glyph-name="itilde" unicode="&#x129;" horiz-adv-x="604" 
d="M526 289q0 -42 17 -76t34 -62.5t17 -56.5v-4q0 -96 -277 -96q-276 0 -276 96v4q0 28 17 56.5t34 62t17 76.5v297q0 52 -34 106t-34 86v4q0 55 57.5 99t180.5 90q52 19 95 27t78 3.5t54.5 -29t19.5 -67.5v-616zM156 1446q90 0 182 -47q99 -52 174 -58q25 -2 48.5 7t38 22
t31.5 25t29 16.5t31 -2.5q17 -9 18.5 -41t-13.5 -73.5t-42 -81t-72 -66.5t-98 -27q-73 0 -209 58q-94 41 -149 36q-27 -3 -54 -18t-45.5 -30.5t-43 -24t-48.5 -0.5q-35 12 -21 80q18 83 83 150q72 75 160 75z" />
    <glyph glyph-name="Imacron" unicode="&#x12a;" horiz-adv-x="698" 
d="M627 1352q0 -23 -11 -46t-24 -40t-24 -45.5t-11 -61.5v-870q0 -43 17.5 -76.5t35 -62t17.5 -56.5v-4q0 -96 -277 -96q-278 0 -278 96v4q0 28 17 56.5t34.5 62t17.5 76.5v870q0 53 -34.5 107t-34.5 86v4q0 27 21 45t63.5 26t85.5 10.5t108 2.5t108 -2.5t85.5 -10.5t63 -26
t20.5 -45v-4zM674 1800q47 0 64.5 -18t17.5 -56t-17.5 -55.5t-64.5 -17.5h-651q-45 0 -62.5 18t-17.5 55q0 38 17.5 56t62.5 18h651z" />
    <glyph glyph-name="imacron" unicode="&#x12b;" horiz-adv-x="604" 
d="M526 289q0 -42 17 -76t34 -62.5t17 -56.5v-4q0 -96 -277 -96q-276 0 -276 96v4q0 28 17 56.5t34 62t17 76.5v297q0 52 -34 106t-34 86v4q0 55 57.5 99t180.5 90q52 19 95 27t78 3.5t54.5 -29t19.5 -67.5v-616zM627 1370q47 0 64.5 -18t17.5 -56t-17.5 -55.5t-64.5 -17.5
h-652q-45 0 -62 17.5t-17 55.5t17 56t62 18h652z" />
    <glyph glyph-name="Ibreve" unicode="&#x12c;" horiz-adv-x="698" 
d="M627 1352q0 -23 -11 -46t-24 -40t-24 -45.5t-11 -61.5v-870q0 -43 17.5 -76.5t35 -62t17.5 -56.5v-4q0 -96 -277 -96q-278 0 -278 96v4q0 28 17 56.5t34.5 62t17.5 76.5v870q0 53 -34.5 107t-34.5 86v4q0 27 21 45t63.5 26t85.5 10.5t108 2.5t108 -2.5t85.5 -10.5t63 -26
t20.5 -45v-4zM608 1864q43 -17 40 -85q-4 -82 -69 -153q-87 -96 -229 -96q-151 0 -239 107q-60 73 -59 151q0 60 40 76q22 8 34.5 6t26 -11t22.5 -22t25.5 -28t34 -27.5t47.5 -20.5t68 -8t68 8t47.5 20.5t34 27.5t25.5 28t22.5 22t26 11t34.5 -6z" />
    <glyph glyph-name="ibreve" unicode="&#x12d;" horiz-adv-x="604" 
d="M526 289q0 -42 17 -76t34 -62.5t17 -56.5v-4q0 -96 -277 -96q-276 0 -276 96v4q0 28 17 56.5t34 62t17 76.5v297q0 52 -34 106t-34 86v4q0 55 57.5 99t180.5 90q52 19 95 27t78 3.5t54.5 -29t19.5 -67.5v-616zM561 1434q43 -17 40 -85q-4 -82 -69 -153q-87 -96 -229 -96
q-151 0 -239 107q-60 73 -59 151q0 60 40 76q22 8 34.5 6t26 -11t22.5 -22t25.5 -28t34 -27.5t47.5 -20.5t68 -8t68 8t47.5 20.5t34 27.5t25.5 28t22.5 22t26 11t34.5 -6z" />
    <glyph glyph-name="Iogonek" unicode="&#x12e;" horiz-adv-x="698" 
d="M627 1354q0 -28 -17.5 -56.5t-35 -62.5t-17.5 -76v-870q0 -43 17.5 -76.5t35 -62t17.5 -56.5v-4q0 -80 -189 -94q-36 -94 -47 -148t-0.5 -71.5t27 -21t38.5 -7.5t31 -20q24 -40 -26 -87t-129 -47q-93 0 -141 44t-48 114q0 63 43 128t125 114q-239 7 -239 96v4
q0 28 17 56.5t34.5 62t17.5 76.5v870q0 42 -17 76t-34.5 62.5t-17.5 56.5v2q0 27 21 45t63.5 26t85.5 10.5t108 2.5t108 -2.5t85.5 -10.5t63 -26t20.5 -45v-2z" />
    <glyph glyph-name="iogonek" unicode="&#x12f;" horiz-adv-x="604" 
d="M526 289q0 -43 17.5 -76.5t35 -62t17.5 -56.5v-4q0 -80 -186 -94q-29 -79 -41 -130t-9 -72.5t15.5 -32.5t28 -10.5t32.5 -5t25 -19.5q23 -40 -27.5 -86t-130.5 -46q-91 0 -138.5 44t-47.5 114q0 63 43 128t125 114q-244 4 -244 96v4q0 28 17.5 56.5t35 62t17.5 76.5v297
q0 52 -35 106t-35 86v4q0 55 57.5 99t180.5 90q247 90 247 -66v-616zM319 1102q-101 0 -169 58t-68 157t68 157t169 58q102 0 171 -58t69 -157t-69 -157t-171 -58z" />
    <glyph glyph-name="Idotaccent" unicode="&#x130;" horiz-adv-x="698" 
d="M627 1352q0 -23 -11 -46t-24 -40t-24 -45.5t-11 -61.5v-870q0 -43 17.5 -76.5t35 -62t17.5 -56.5v-4q0 -96 -277 -96q-278 0 -278 96v4q0 28 17 56.5t34.5 62t17.5 76.5v870q0 53 -34.5 107t-34.5 86v4q0 27 21 45t63.5 26t85.5 10.5t108 2.5t108 -2.5t85.5 -10.5t63 -26
t20.5 -45v-4zM350 1915q80 0 134.5 -49.5t54.5 -132.5q0 -85 -54.5 -134t-134.5 -49t-135 49t-55 134q0 83 55 132.5t135 49.5z" />
    <glyph glyph-name="dotlessi" unicode="&#x131;" horiz-adv-x="604" 
d="M526 289q0 -42 17 -76t34 -62.5t17 -56.5v-4q0 -96 -277 -96q-276 0 -276 96v4q0 28 17 56.5t34 62t17 76.5v297q0 52 -34 106t-34 86v4q0 55 57.5 99t180.5 90q52 19 95 27t78 3.5t54.5 -29t19.5 -67.5v-616z" />
    <glyph glyph-name="IJ" unicode="&#x132;" horiz-adv-x="1816" 
d="M627 1352q0 -23 -11 -46t-24 -40t-24 -45.5t-11 -61.5v-870q0 -43 17.5 -76.5t35 -62t17.5 -56.5v-4q0 -96 -277 -96q-278 0 -278 96v4q0 28 17 56.5t34.5 62t17.5 76.5v870q0 53 -34.5 107t-34.5 86v4q0 27 21 45t63.5 26t85.5 10.5t108 2.5t108 -2.5t85.5 -10.5t63 -26
t20.5 -45v-4zM1765 1356v-4q0 -32 -33.5 -86t-33.5 -107v-602q0 -287 -136.5 -432t-385.5 -145q-141 0 -260.5 51.5t-170.5 142.5q-29 50 -34 109.5t12 99.5q21 59 72.5 88.5t108 27t102.5 -31.5q33 -21 52.5 -52t25.5 -63t8.5 -67.5t-0.5 -65.5q-5 -76 82 -76q61 0 83.5 64
t22.5 244v708q0 53 -34 107t-34 86v4q0 27 20.5 45t63 26t85.5 10.5t108 2.5t108 -2.5t85 -10.5t62.5 -26t20.5 -45z" />
    <glyph glyph-name="ij" unicode="&#x133;" horiz-adv-x="1310" 
d="M526 289q0 -42 17 -76t34 -62.5t17 -56.5v-4q0 -96 -277 -96q-276 0 -276 96v4q0 28 17 56.5t34 62t17 76.5v297q0 52 -34 106t-34 86v4q0 55 57.5 99t180.5 90q52 19 95 27t78 3.5t54.5 -29t19.5 -67.5v-616zM319 1102q-102 0 -170.5 58t-68.5 157t68.5 157t170.5 58
q101 0 170.5 -58t69.5 -157t-69.5 -157t-170.5 -58zM1196 905v-958q0 -183 -105.5 -300.5t-281.5 -117.5q-278 0 -387 135q-25 32 -31 80t16 98.5t72 79.5q38 22 84 24t87 -20.5t59 -68.5q6 -15 13 -44.5t16.5 -52.5t25.5 -43q32 -40 82 -30q26 4 39 27t10 55q-4 29 -23 59
t-39 54.5t-36.5 76.5t-16.5 121v506q0 52 -34.5 106t-34.5 86v4q0 55 57 99t180 90q248 90 248 -66zM989 1102q-101 0 -169 58t-68 157t68 157t169 58q102 0 171 -58t69 -157t-69 -157t-171 -58z" />
    <glyph glyph-name="Jcircumflex" unicode="&#x134;" horiz-adv-x="1148" 
d="M1098 1356v-4q0 -32 -34 -86t-34 -107v-602q0 -287 -136.5 -432t-385.5 -145q-141 0 -260 51.5t-170 142.5q-29 50 -34 109.5t11 99.5q21 59 72.5 88.5t108 27t102.5 -31.5q33 -21 52.5 -52t25.5 -63t8.5 -67.5t-0.5 -65.5q-5 -76 82 -76q61 0 83.5 64t22.5 244v708
q0 53 -33.5 107t-33.5 86v4q0 27 20.5 45t62.5 26t85 10.5t108 2.5t108 -2.5t85.5 -10.5t63 -26t20.5 -45zM1053 1665q38 -40 15 -72.5t-73 -9.5l-241 115q-158 -74 -242 -115q-51 -23 -73 9.5t16 72.5q143 143 217 221l9 9l8 8l7 7t7.5 7t7 5t7.5 4.5t7.5 3.5t8.5 3t9 1.5
t11 0.5q9 0 17 -2t13 -3.5t13 -8t10.5 -8.5t13 -13t13.5 -14q37 -39 219 -221z" />
    <glyph glyph-name="jcircumflex" unicode="&#x135;" horiz-adv-x="608" 
d="M526 905v-958q0 -183 -105.5 -300.5t-281.5 -117.5q-278 0 -387 135q-25 32 -31 80t16.5 98.5t72.5 79.5q38 22 83.5 24t86.5 -20.5t59 -68.5q6 -15 13 -44.5t16.5 -52.5t25.5 -43q32 -40 82 -30q26 4 39 27t10 55q-3 24 -16 47t-29 44.5t-32 48t-26.5 70.5t-10.5 101
v506q0 52 -35 106t-35 86v4q0 55 57.5 99t180.5 90q247 90 247 -66zM500 1235q38 -40 15 -72.5t-73 -9.5l-241 115q-158 -74 -242 -115q-51 -23 -73 9.5t16 72.5q143 143 217 221l9 9l8 8l7 7t7.5 7t7 5t7.5 4.5t7.5 3.5t8.5 3t9 1.5t11 0.5q9 0 17 -2t13 -3.5t13 -8
t10.5 -8.5t13 -13t13.5 -14q37 -39 219 -221z" />
    <glyph glyph-name="Kcommaaccent" unicode="&#x136;" horiz-adv-x="1482" 
d="M762 -63q79 -3 129 -58t51 -149q1 -52 -10 -105t-30.5 -96.5t-44.5 -84t-52.5 -67.5t-54.5 -46.5t-50.5 -21t-40.5 8.5q-15 16 -14.5 30.5t13 38.5t27 45.5t26.5 50.5t12 54q0 18 -15 33.5t-36 29.5t-42.5 32t-36.5 49t-15 71q0 83 52 135t132 50zM1321 309
q19 -29 53.5 -59t61 -49.5t47 -47.5t20.5 -59v-4q0 -22 -11.5 -38.5t-35.5 -26.5t-51 -16.5t-68.5 -9.5t-76 -4t-84.5 -1q-66 0 -111.5 2.5t-92.5 10.5t-71 26t-24 45v2q0 22 10.5 47t20 43t7.5 45.5t-22 58.5l-234 365l-102 -107v-243q0 -43 17.5 -76.5t35 -62t17.5 -56.5
v-4q0 -96 -277 -96q-278 0 -278 96v4q0 28 17 56.5t34.5 62t17.5 76.5v870q0 53 -34.5 107t-34.5 86v4q0 27 21 45t63.5 26t85.5 10.5t108 2.5t108 -2.5t85.5 -10.5t63 -26t20.5 -45v-4q0 -23 -11 -46t-24 -40t-24 -45.5t-11 -61.5v-391l369 391q34 36 42.5 61.5t-3 41.5
t-28.5 28t-32.5 28t-15.5 34v4q0 28 16 45t53.5 25.5t80 11t114.5 2.5q119 0 172 -16.5t53 -61.5v-2q0 -37 -35 -64t-92 -57.5t-86 -60.5l-245 -260z" />
    <glyph glyph-name="kcommaaccent" unicode="&#x137;" horiz-adv-x="1277" 
d="M649 -63q79 -3 129 -58t51 -149q1 -52 -10 -105t-30.5 -96.5t-44.5 -84t-52 -67.5t-54 -46.5t-50.5 -21t-40.5 8.5q-15 16 -14.5 30.5t13 38.5t26.5 45.5t26 50.5t12 54q0 18 -15 33.5t-36 29.5t-42.5 32t-36.5 49t-15 71q0 83 52 135t132 50zM1116 309q21 -30 54 -60.5
t57.5 -49t42.5 -46.5t18 -59v-4q0 -22 -10.5 -38.5t-33 -26.5t-47.5 -16.5t-64.5 -9.5t-72.5 -4t-83 -1q-66 0 -112 2.5t-93 10.5t-71.5 26t-24.5 45v2q0 22 10.5 47t20 43t7.5 45.5t-22 58.5l-76 119l-90 -82v-22q0 -43 17.5 -76.5t35 -62t17.5 -56.5v-4q0 -96 -279 -96
q-276 0 -276 96v4q0 28 17.5 56.5t35 62t17.5 76.5v844q0 42 -17.5 75t-35 61t-17.5 56v4q0 55 57.5 99t180.5 90q247 90 247 -66v-924l213 193q39 32 52.5 57t5.5 41.5t-21.5 29.5t-27 30.5t-13.5 35.5v5q0 53 63 68.5t208 15.5q118 0 167.5 -16t49.5 -62v-4
q0 -36 -38 -65.5t-101 -63.5t-93 -62l-104 -94z" />
    <glyph glyph-name="kgreenlandic" unicode="&#x138;" horiz-adv-x="1277" 
d="M1116 309q21 -30 54 -60.5t57.5 -49t42.5 -46.5t18 -59v-4q0 -22 -10.5 -38.5t-33 -26.5t-47.5 -16.5t-64.5 -9.5t-72.5 -4t-83 -1q-44 0 -75 1t-69 3.5t-63.5 8.5t-48 14.5t-34 23t-11.5 33.5v2q0 22 10.5 47t20 43t7.5 45.5t-22 58.5l-76 119l-90 -82v-22
q0 -43 17.5 -76.5t35 -62t17.5 -56.5v-4q0 -96 -279 -96q-276 0 -276 96v4q0 28 17.5 56.5t35 62t17.5 76.5v442q0 43 -17.5 76.5t-35 62t-17.5 56.5v4q0 55 57.5 98.5t180.5 87.5q72 27 125 33t87.5 -17t34.5 -79v-525l213 193q39 32 52.5 57t5.5 41.5t-21.5 29.5t-27 30.5
t-13.5 35.5v5q0 53 63 68.5t208 15.5q118 0 167.5 -16t49.5 -62v-4q0 -36 -38 -65.5t-101 -63.5t-93 -62l-104 -94z" />
    <glyph glyph-name="Lacute" unicode="&#x139;" horiz-adv-x="1261" 
d="M1157 461q33 0 49.5 -27t12.5 -78q-19 -160 -45 -299q-9 -48 -32 -70t-67 -22q-30 0 -88 17.5t-117 17.5h-600q-198 0 -198 96v4q0 28 17 56.5t34.5 62t17.5 76.5v864q0 53 -34.5 107t-34.5 86v4q0 27 21 45t63.5 26t85.5 10.5t108 2.5t108 -2.5t85.5 -10.5t63 -26
t20.5 -45v-4q0 -23 -11 -46t-24 -40t-24 -45.5t-11 -61.5v-864q0 -73 24 -103t78 -30h146q53 0 95 31t70.5 75t54 87.5t58 74.5t70.5 31h4zM547 1806q48 -75 31.5 -129t-111.5 -86q-99 -33 -152 -48t-100 -22.5t-69.5 1t-36.5 32.5q-26 43 18 101t192 190q51 45 92.5 53
t73 -15.5t62.5 -76.5z" />
    <glyph glyph-name="lacute" unicode="&#x13a;" horiz-adv-x="604" 
d="M526 289q0 -42 17 -76t34 -62.5t17 -56.5v-4q0 -96 -277 -96q-276 0 -276 96v4q0 28 17 56.5t34 62t17 76.5v844q0 42 -17 75t-34 61t-17 56v4q0 55 57.5 99t180.5 90q52 19 95 27t78 3.5t54.5 -29t19.5 -67.5v-1163zM524 1905q48 -75 31.5 -129t-111.5 -86
q-99 -33 -152 -48t-100 -22.5t-69.5 1t-36.5 32.5q-26 43 18.5 101t192.5 190q51 45 92 53t72.5 -15.5t62.5 -76.5z" />
    <glyph glyph-name="Lcommaaccent" unicode="&#x13b;" horiz-adv-x="1261" 
d="M659 -63q80 -3 130 -58.5t51 -148.5q1 -52 -10 -105t-30.5 -96.5t-44.5 -84t-52.5 -67.5t-54.5 -46.5t-50.5 -21t-40.5 8.5q-15 16 -14.5 30.5t13 38.5t27 45.5t26.5 50.5t12 54q0 18 -15 33.5t-36.5 29.5t-43 32t-36.5 49t-15 71q0 83 52 135t132 50zM1157 461
q33 0 49.5 -27t12.5 -78q-19 -160 -45 -299q-9 -48 -32 -70t-67 -22q-30 0 -88 17.5t-117 17.5h-600q-198 0 -198 96v4q0 28 17 56.5t34.5 62t17.5 76.5v864q0 53 -34.5 107t-34.5 86v4q0 27 21 45t63.5 26t85.5 10.5t108 2.5t108 -2.5t85.5 -10.5t63 -26t20.5 -45v-4
q0 -23 -11 -46t-24 -40t-24 -45.5t-11 -61.5v-864q0 -73 24 -103t78 -30h146q53 0 95 31t70.5 75t54 87.5t58 74.5t70.5 31h4z" />
    <glyph glyph-name="lcommaaccent" unicode="&#x13c;" horiz-adv-x="604" 
d="M332 -63q79 -3 129 -58t51 -149q1 -52 -10 -105t-30.5 -96.5t-44.5 -84t-52.5 -67.5t-54.5 -46.5t-50.5 -21t-40.5 8.5q-15 16 -14.5 30.5t13 38.5t27 45.5t26.5 50.5t12 54q0 18 -15 33.5t-36.5 29.5t-43 32t-36.5 49t-15 71q0 83 52.5 135t132.5 50zM526 289
q0 -42 17 -76t34 -62.5t17 -56.5v-4q0 -96 -277 -96q-276 0 -276 96v4q0 28 17 56.5t34 62t17 76.5v844q0 42 -17 75t-34 61t-17 56v4q0 55 57.5 99t180.5 90q52 19 95 27t78 3.5t54.5 -29t19.5 -67.5v-1163z" />
    <glyph glyph-name="Lcaron" unicode="&#x13d;" horiz-adv-x="1261" 
d="M1157 461q33 0 49.5 -27t12.5 -78q-19 -160 -45 -299q-9 -48 -32 -70t-67 -22q-30 0 -88 17.5t-117 17.5h-600q-198 0 -198 96v4q0 28 17 56.5t34.5 62t17.5 76.5v864q0 53 -34.5 107t-34.5 86v4q0 27 21 45t63.5 26t85.5 10.5t108 2.5t108 -2.5t85.5 -10.5t63 -26
t20.5 -45v-4q0 -23 -11 -46t-24 -40t-24 -45.5t-11 -61.5v-864q0 -73 24 -103t78 -30h146q53 0 95 31t70.5 75t54 87.5t58 74.5t70.5 31h4zM973 1604q79 -2 129 -57t53 -150q1 -51 -10 -103.5t-30.5 -96.5t-45 -84.5t-52.5 -67t-54.5 -46t-51 -21t-41.5 8.5
q-15 16 -14.5 30.5t13 38.5t27 45.5t26.5 50.5t12 54q0 18 -15 33.5t-36.5 29.5t-43 32t-36.5 49t-15 71q0 83 53 134.5t132 48.5z" />
    <glyph glyph-name="lcaron" unicode="&#x13e;" horiz-adv-x="706" 
d="M526 289q0 -42 17 -76t34 -62.5t17 -56.5v-4q0 -96 -277 -96q-276 0 -276 96v4q0 28 17 56.5t34 62t17 76.5v844q0 42 -17 75t-34 61t-17 56v4q0 55 57.5 99t180.5 90q52 19 95 27t78 3.5t54.5 -29t19.5 -67.5v-1163zM809 1604q79 -2 129 -57t53 -150q1 -40 -6 -81
t-19 -77.5t-29 -71.5t-36.5 -62.5t-41 -52.5t-42.5 -40t-41.5 -25.5t-37.5 -9.5t-31 10q-15 16 -14.5 30.5t13 38.5t26.5 45.5t26 50.5t12 54q0 18 -15 33.5t-36 29.5t-42.5 32t-36.5 49t-15 71q0 83 52.5 134.5t131.5 48.5z" />
    <glyph glyph-name="Ldot" unicode="&#x13f;" horiz-adv-x="1261" 
d="M1157 461q33 0 49.5 -27t12.5 -78q-19 -160 -45 -299q-9 -48 -32 -70t-67 -22q-30 0 -88 17.5t-117 17.5h-600q-198 0 -198 96v4q0 28 17 56.5t34.5 62t17.5 76.5v864q0 53 -34.5 107t-34.5 86v4q0 27 21 45t63.5 26t85.5 10.5t108 2.5t108 -2.5t85.5 -10.5t63 -26
t20.5 -45v-4q0 -23 -11 -46t-24 -40t-24 -45.5t-11 -61.5v-864q0 -73 24 -103t78 -30h146q53 0 95 31t70.5 75t54 87.5t58 74.5t70.5 31h4zM956 930q80 0 134.5 -49.5t54.5 -132.5q0 -85 -54.5 -134t-134.5 -49t-135 49t-55 134q0 83 55 132.5t135 49.5z" />
    <glyph glyph-name="ldot" unicode="&#x140;" horiz-adv-x="1011" 
d="M526 289q0 -42 17 -76t34 -62.5t17 -56.5v-4q0 -96 -277 -96q-276 0 -276 96v4q0 28 17 56.5t34 62t17 76.5v844q0 42 -17 75t-34 61t-17 56v4q0 55 57.5 99t180.5 90q52 19 95 27t78 3.5t54.5 -29t19.5 -67.5v-1163zM823 950q80 0 134.5 -49.5t54.5 -132.5
q0 -85 -54.5 -133.5t-134.5 -48.5t-135 49t-55 133q0 83 55 132.5t135 49.5z" />
    <glyph glyph-name="Lslash" unicode="&#x141;" horiz-adv-x="1261" 
d="M1157 461q74 0 62 -105q-12 -134 -43 -297q-9 -50 -32 -72t-67 -22q-30 0 -88 17.5t-117 17.5h-600q-198 0 -198 98v2q0 28 17 56.5t34.5 62t17.5 76.5v49q-2 -1 -5.5 -1.5t-5.5 -1t-3 -1.5q-43 -11 -62.5 9t-19.5 59q0 37 19 59.5t63 34.5q4 4 14 4v653q0 42 -17 76
t-34.5 62.5t-17.5 56.5v2q0 27 21 45t63.5 26t85.5 10.5t108 2.5q64 0 107 -2.5t85.5 -10.5t63.5 -26t21 -45v-2q0 -28 -17.5 -56.5t-35 -62.5t-17.5 -76v-532q201 56 217 63q43 13 62.5 -7.5t19.5 -61.5q0 -37 -18 -59.5t-64 -35.5q-21 -5 -217 -61v-170q0 -73 24 -103
t76 -30h146q53 0 96 31t71.5 75t54 87.5t58 74.5t70.5 31h2z" />
    <glyph glyph-name="lslash" unicode="&#x142;" horiz-adv-x="604" 
d="M590 526q-15 -4 -62 -22v-215q0 -42 17 -76t34 -62.5t17 -56.5v-4q0 -96 -277 -96q-278 0 -278 96v4q0 28 17.5 56.5t35 62t17.5 76.5v67q-36 -12 -50 -16q-42 -14 -61.5 7t-19.5 61q0 36 18 57.5t63 36.5q12 6 50 16v615q0 42 -17.5 75t-35 61t-17.5 56v4q0 55 58 99
t182 90q52 19 95 27t78 3.5t54.5 -29t19.5 -67.5v-784l62 20q42 14 62 -6.5t20 -60.5q0 -36 -18.5 -58t-63.5 -37z" />
    <glyph glyph-name="Nacute" unicode="&#x143;" horiz-adv-x="1515" 
d="M1294 1440q75 0 122.5 -24t47.5 -73v-4q0 -23 -14 -46t-30 -40t-30 -45.5t-14 -62.5v-985q0 -166 -135 -166q-72 0 -114 25.5t-95 91.5q-36 45 -708 909v-731q0 -34 14 -63t31 -46t31 -40t14 -46v-4q0 -49 -47.5 -72.5t-122.5 -23.5q-76 0 -124 23.5t-48 72.5v4
q0 23 14 46t31 40t31 46t14 63v856q0 34 -12 62.5t-26 45.5t-26 40t-12 46v4q0 97 199 97q104 0 162.5 -13.5t87 -35.5t69.5 -74q7 -9 248 -322.5t360 -466.5v617q0 34 -14 62.5t-30 45.5t-30 40t-14 46v4q0 49 47.5 73t122.5 24zM1016 1806q48 -75 31.5 -129t-111.5 -86
q-99 -33 -152 -48t-100 -22.5t-69.5 1t-36.5 32.5q-26 43 18 101t192 190q51 45 92.5 53t73 -15.5t62.5 -76.5z" />
    <glyph glyph-name="nacute" unicode="&#x144;" horiz-adv-x="1247" 
d="M1167 289q0 -43 17.5 -76.5t35 -62t17.5 -56.5v-4q0 -96 -279 -96q-276 0 -276 96v4q0 28 17.5 56.5t35 62t17.5 76.5v323q0 101 -28.5 146t-84.5 45q-49 0 -80.5 -44.5t-32.5 -133.5v-336q0 -43 17.5 -76.5t35 -62t17.5 -56.5v-4q0 -96 -279 -96q-276 0 -276 96v4
q0 28 17.5 56.5t35 62t17.5 76.5v297q0 52 -35 106t-35 86v4q0 55 57.5 99t180.5 90q54 19 92 26.5t68.5 2.5t45.5 -28.5t15 -66.5v-61q35 70 104.5 113.5t151.5 46.5q135 6 229.5 -47.5t138 -143.5t43.5 -207v-317zM846 1376q48 -75 31.5 -129t-111.5 -86q-99 -33 -152 -48
t-100 -22.5t-69.5 1t-36.5 32.5q-26 43 18 101t192 190q51 45 92.5 53t73 -15.5t62.5 -76.5z" />
    <glyph glyph-name="Ncommaaccent" unicode="&#x145;" horiz-adv-x="1515" 
d="M721 -63q79 -3 129 -58t51 -149q1 -52 -10 -105t-30.5 -96.5t-44.5 -84t-52.5 -67.5t-54.5 -46.5t-50.5 -21t-40.5 8.5q-15 16 -14.5 30.5t13 38.5t27 45.5t26.5 50.5t12 54q0 18 -15 33.5t-36 29.5t-42.5 32t-36.5 49t-15 71q0 83 52 135t132 50zM1294 1440
q75 0 122.5 -24t47.5 -73v-4q0 -23 -14 -46t-30 -40t-30 -45.5t-14 -62.5v-985q0 -166 -135 -166q-72 0 -114 25.5t-95 91.5q-36 45 -708 909v-731q0 -34 14 -63t31 -46t31 -40t14 -46v-4q0 -49 -47.5 -72.5t-122.5 -23.5q-76 0 -124 23.5t-48 72.5v4q0 23 14 46t31 40
t31 46t14 63v856q0 34 -12 62.5t-26 45.5t-26 40t-12 46v4q0 97 199 97q104 0 162.5 -13.5t87 -35.5t69.5 -74q7 -9 248 -322.5t360 -466.5v617q0 34 -14 62.5t-30 45.5t-30 40t-14 46v4q0 49 47.5 73t122.5 24z" />
    <glyph glyph-name="ncommaaccent" unicode="&#x146;" horiz-adv-x="1247" 
d="M649 -63q79 -3 129 -58t51 -149q1 -52 -10 -105t-30.5 -96.5t-44.5 -84t-52 -67.5t-54 -46.5t-50.5 -21t-40.5 8.5q-15 16 -14.5 30.5t13 38.5t26.5 45.5t26 50.5t12 54q0 18 -15 33.5t-36 29.5t-42.5 32t-36.5 49t-15 71q0 83 52 135t132 50zM1167 289q0 -43 17.5 -76.5
t35 -62t17.5 -56.5v-4q0 -96 -279 -96q-276 0 -276 96v4q0 28 17.5 56.5t35 62t17.5 76.5v323q0 101 -28.5 146t-84.5 45q-49 0 -80.5 -44.5t-32.5 -133.5v-336q0 -43 17.5 -76.5t35 -62t17.5 -56.5v-4q0 -96 -279 -96q-276 0 -276 96v4q0 28 17.5 56.5t35 62t17.5 76.5v297
q0 52 -35 106t-35 86v4q0 55 57.5 99t180.5 90q54 19 92 26.5t68.5 2.5t45.5 -28.5t15 -66.5v-61q35 70 104.5 113.5t151.5 46.5q135 6 229.5 -47.5t138 -143.5t43.5 -207v-317z" />
    <glyph glyph-name="Ncaron" unicode="&#x147;" horiz-adv-x="1515" 
d="M1294 1440q75 0 122.5 -24t47.5 -73v-4q0 -23 -14 -46t-30 -40t-30 -45.5t-14 -62.5v-985q0 -166 -135 -166q-72 0 -114 25.5t-95 91.5q-36 45 -708 909v-731q0 -34 14 -63t31 -46t31 -40t14 -46v-4q0 -49 -47.5 -72.5t-122.5 -23.5q-76 0 -124 23.5t-48 72.5v4
q0 23 14 46t31 40t31 46t14 63v856q0 34 -12 62.5t-26 45.5t-26 40t-12 46v4q0 97 199 97q104 0 162.5 -13.5t87 -35.5t69.5 -74q7 -9 248 -322.5t360 -466.5v617q0 34 -14 62.5t-30 45.5t-30 40t-14 46v4q0 49 47.5 73t122.5 24zM1051 1927q50 23 72.5 -9.5t-15.5 -72.5
q-109 -105 -219 -221q-3 -3 -13.5 -14t-13 -13t-10.5 -8.5t-13 -8t-13 -3.5t-17 -2q-8 0 -15 1t-13.5 3.5t-10.5 4.5t-10.5 8t-9.5 8.5t-11 11t-12 12.5q-110 116 -219 221q-38 40 -15.5 72.5t72.5 9.5l244 -115q158 74 242 115z" />
    <glyph glyph-name="ncaron" unicode="&#x148;" horiz-adv-x="1247" 
d="M1167 289q0 -43 17.5 -76.5t35 -62t17.5 -56.5v-4q0 -96 -279 -96q-276 0 -276 96v4q0 28 17.5 56.5t35 62t17.5 76.5v323q0 101 -28.5 146t-84.5 45q-49 0 -80.5 -44.5t-32.5 -133.5v-336q0 -43 17.5 -76.5t35 -62t17.5 -56.5v-4q0 -96 -279 -96q-276 0 -276 96v4
q0 28 17.5 56.5t35 62t17.5 76.5v297q0 52 -35 106t-35 86v4q0 55 57.5 99t180.5 90q54 19 92 26.5t68.5 2.5t45.5 -28.5t15 -66.5v-61q35 70 104.5 113.5t151.5 46.5q135 6 229.5 -47.5t138 -143.5t43.5 -207v-317zM881 1497q50 23 72.5 -9.5t-15.5 -72.5
q-109 -105 -219 -221q-3 -3 -13.5 -14t-13 -13t-10.5 -8.5t-13 -8t-13 -3.5t-17 -2q-8 0 -15 1t-13.5 3.5t-10.5 4.5t-10.5 8t-9.5 8.5t-11 11t-12 12.5q-110 116 -219 221q-38 40 -15.5 72.5t72.5 9.5l244 -115q158 74 242 115z" />
    <glyph glyph-name="napostrophe" unicode="&#x149;" horiz-adv-x="1499" 
d="M1419 289q0 -43 17.5 -76.5t35 -62t17.5 -56.5v-4q0 -96 -279 -96q-276 0 -276 96v4q0 28 17.5 56.5t35 62t17.5 76.5v323q0 101 -28.5 146t-84.5 45q-49 0 -80.5 -44.5t-32.5 -133.5v-336q0 -43 17.5 -76.5t35 -62t17.5 -56.5v-4q0 -96 -279 -96q-276 0 -276 96v4
q0 28 17.5 56.5t34.5 62.5t17 76v297q0 52 -34.5 106t-34.5 86v4q0 55 57 99t180 90q54 19 92.5 26.5t69 2.5t45.5 -28.5t15 -66.5v-61q35 70 104.5 113.5t151.5 46.5q135 6 229.5 -47.5t138 -143.5t43.5 -207v-317zM154 1604q79 -2 129 -57t53 -150q1 -51 -10 -103.5
t-30.5 -96.5t-45 -84.5t-52.5 -67t-54.5 -46t-51 -21t-41.5 8.5q-15 16 -14.5 30.5t13 38.5t27 45.5t26.5 50.5t12 54q0 18 -15 33.5t-36.5 29.5t-43 32t-36.5 49t-15 71q0 83 53 134.5t132 48.5z" />
    <glyph glyph-name="Eng" unicode="&#x14a;" horiz-adv-x="1536" 
d="M1292 1440q75 0 123.5 -24t48.5 -73v-4q0 -23 -14 -46t-31 -40t-31 -45.5t-14 -62.5v-985q0 -305 -99.5 -465t-316.5 -160q-148 0 -259.5 50.5t-153.5 156.5q-11 27 -12 60.5t9 67.5t30 61t56.5 42.5t82.5 10.5q52 -6 85 -36.5t48 -70t28.5 -79t38.5 -67.5t66 -30
q71 -3 106 62t35 235l-794 1022v-731q0 -34 14 -63t31 -46t31 -40t14 -46v-4q0 -49 -48 -72.5t-124 -23.5q-75 0 -122.5 23.5t-47.5 72.5v4q0 23 14 46t31 40t31 46t14 63v856q0 34 -12 62.5t-27 45.5t-27 40t-12 46v4q0 97 199 97q105 0 163.5 -13.5t87 -36t68.5 -73.5
q11 -15 124 -162t255 -330t231 -297v617q0 34 -14 62.5t-31 45.5t-31 40t-14 46v4q0 49 47.5 73t122.5 24z" />
    <glyph glyph-name="eng" unicode="&#x14b;" horiz-adv-x="1249" 
d="M758 1004q135 6 229 -47.5t137 -143.5t43 -207v-659q0 -183 -105.5 -300.5t-281.5 -117.5q-278 0 -385 135q-26 31 -32.5 79.5t16 99t72.5 79.5q38 22 83.5 24t86.5 -20.5t59 -68.5q6 -15 13 -45t16.5 -53t25.5 -42q32 -39 84 -30q25 4 37.5 27t9.5 55q-3 24 -16 47
t-29 44t-32 47.5t-26.5 71t-10.5 101.5v532q0 101 -27.5 145t-83.5 44q-50 0 -82 -43.5t-33 -132.5v-336q0 -43 17.5 -76.5t35 -62t17.5 -56.5v-4q0 -96 -277 -96q-278 0 -278 96v4q0 28 17.5 56.5t35 62t17.5 76.5v297q0 52 -35 106t-35 86v4q0 55 58 99t182 90
q71 26 117 31t74 -17.5t28 -79.5v-61q37 71 106 114t152 46z" />
    <glyph glyph-name="Omacron" unicode="&#x14c;" 
d="M795 1454q162 0 302 -52t243 -145.5t162 -233t59 -306.5t-59 -306.5t-162 -233t-243 -145.5t-302 -52q-157 0 -295 52t-239.5 145.5t-160.5 233t-59 306.5q0 223 98 391.5t268.5 257t387.5 88.5zM842 166q125 10 187 169t40 406q-22 246 -110.5 391.5t-213.5 135.5
q-83 -7 -139.5 -82t-79 -203t-8.5 -291q22 -248 110.5 -393t213.5 -133zM1124 1800q47 0 64.5 -18t17.5 -56t-17.5 -55.5t-64.5 -17.5h-651q-45 0 -62.5 18t-17.5 55q0 38 17.5 56t62.5 18h651z" />
    <glyph glyph-name="omacron" unicode="&#x14d;" horiz-adv-x="1193" 
d="M592 1004q117 0 221.5 -37t181.5 -102.5t122.5 -162.5t45.5 -210q0 -114 -45.5 -211t-123 -162.5t-181.5 -102t-221 -36.5q-156 0 -285.5 62t-208 180.5t-78.5 269.5q0 150 78.5 268.5t208 181t285.5 62.5zM623 145q62 4 88 102.5t14 254.5q-14 156 -57 248t-105 86
q-63 -4 -89.5 -102.5t-12.5 -254.5t57 -248t105 -86zM915 1370q47 0 64.5 -18t17.5 -56t-17.5 -55.5t-64.5 -17.5h-651q-45 0 -62.5 18t-17.5 55q0 38 17.5 56t62.5 18h651z" />
    <glyph glyph-name="Obreve" unicode="&#x14e;" 
d="M795 1454q162 0 302 -52t243 -145.5t162 -233t59 -306.5t-59 -306.5t-162 -233t-243 -145.5t-302 -52q-157 0 -295 52t-239.5 145.5t-160.5 233t-59 306.5q0 223 98 391.5t268.5 257t387.5 88.5zM842 166q125 10 187 169t40 406q-22 246 -110.5 391.5t-213.5 135.5
q-83 -7 -139.5 -82t-79 -203t-8.5 -291q22 -248 110.5 -393t213.5 -133zM1059 1864q43 -17 40 -85q-4 -82 -69 -153q-87 -96 -229 -96q-151 0 -239 107q-60 73 -59 151q0 60 40 76q22 8 34.5 6t26 -11t22.5 -22t25.5 -28t34 -27.5t47.5 -20.5t68 -8t68 8t47.5 20.5t34 27.5
t25.5 28t22.5 22t26 11t34.5 -6z" />
    <glyph glyph-name="obreve" unicode="&#x14f;" horiz-adv-x="1193" 
d="M592 1004q117 0 221.5 -37t181.5 -102.5t122.5 -162.5t45.5 -210q0 -114 -45.5 -211t-123 -162.5t-181.5 -102t-221 -36.5q-156 0 -285.5 62t-208 180.5t-78.5 269.5q0 150 78.5 268.5t208 181t285.5 62.5zM623 145q62 4 88 102.5t14 254.5q-14 156 -57 248t-105 86
q-63 -4 -89.5 -102.5t-12.5 -254.5t57 -248t105 -86zM850 1434q43 -17 40 -85q-4 -82 -69 -153q-87 -96 -229 -96q-151 0 -239 107q-60 73 -59 151q0 60 40 76q22 8 34.5 6t26 -11t22.5 -22t25.5 -28t34 -27.5t47.5 -20.5t68 -8t68 8t47.5 20.5t34 27.5t25.5 28t22.5 22
t26 11t34.5 -6z" />
    <glyph glyph-name="Ohungarumlaut" unicode="&#x150;" 
d="M795 1454q162 0 302 -52t243 -145.5t162 -233t59 -306.5t-59 -306.5t-162 -233t-243 -145.5t-302 -52q-157 0 -295 52t-239.5 145.5t-160.5 233t-59 306.5q0 223 98 391.5t268.5 257t387.5 88.5zM842 166q125 10 187 169t40 406q-22 246 -110.5 391.5t-213.5 135.5
q-83 -7 -139.5 -82t-79 -203t-8.5 -291q22 -248 110.5 -393t213.5 -133zM831 1946q51 -35 71 -68.5t8.5 -73.5t-60.5 -86q-145 -137 -205.5 -176t-101.5 -10q-29 20 -29.5 62.5t21.5 104.5t75 185q27 63 60.5 88t71.5 17.5t89 -43.5zM1245 1946q51 -35 71 -68.5t8.5 -73.5
t-60.5 -86q-145 -137 -205.5 -176t-102.5 -10q-29 20 -29 62.5t21.5 104t75.5 185.5q27 63 61 88t72 17.5t88 -43.5z" />
    <glyph glyph-name="ohungarumlaut" unicode="&#x151;" horiz-adv-x="1193" 
d="M592 1004q117 0 221.5 -37t181.5 -102.5t122.5 -162.5t45.5 -210q0 -114 -45.5 -211t-123 -162.5t-181.5 -102t-221 -36.5q-156 0 -285.5 62t-208 180.5t-78.5 269.5q0 150 78.5 268.5t208 181t285.5 62.5zM623 145q62 4 88 102.5t14 254.5q-14 156 -57 248t-105 86
q-63 -4 -89.5 -102.5t-12.5 -254.5t57 -248t105 -86zM602 1516q51 -35 71 -68.5t8.5 -73.5t-60.5 -86q-144 -136 -205.5 -175.5t-102.5 -10.5q-29 20 -29 62.5t21.5 104t75.5 185.5q27 63 60.5 88t71.5 17.5t89 -43.5zM1016 1516q51 -35 71 -68.5t8 -73.5t-61 -86
q-146 -138 -205.5 -176.5t-101.5 -9.5q-29 20 -29 62.5t21.5 104t75.5 185.5q27 63 61 88t72 17.5t88 -43.5z" />
    <glyph glyph-name="OE" unicode="&#x152;" horiz-adv-x="2351" 
d="M2236 434q74 0 62 -104q-8 -84 -43 -271q-11 -50 -33.5 -72t-64.5 -22q-31 0 -88.5 17.5t-116.5 17.5h-600q-154 0 -189 59q-162 -79 -368 -79q-157 0 -295 52t-239.5 145.5t-160.5 233t-59 306.5q0 223 98 391.5t268.5 257t387.5 88.5q201 0 368 -78q36 58 189 58h559
q59 0 117 17t88 17q44 0 66.5 -22t31.5 -70q28 -135 45 -272q6 -51 -11 -78t-50 -27h-5q-32 0 -60.5 20t-48.5 50.5t-45 66t-49 66t-62 50.5t-83 20h-106q-53 0 -77 -30t-24 -103v-348h179q34 0 58.5 24t36.5 52.5t31 52.5t42 24h4q44 0 56.5 -54t12.5 -181t-12.5 -180.5
t-56.5 -53.5h-4q-23 0 -42 24t-31 53t-36.5 53t-58.5 24h-179v-334q0 -73 24 -103t77 -30h145q53 0 96 28t71 68t54 80t58 68t69 28h4zM842 166q125 10 187 169t40 406t-110.5 392t-213.5 135q-83 -7 -139.5 -82t-79 -203t-8.5 -291q22 -246 110.5 -391t213.5 -135z" />
    <glyph glyph-name="oe" unicode="&#x153;" horiz-adv-x="1765" 
d="M1688 309q38 -25 19 -92q-24 -83 -113 -149q-124 -93 -302 -88q-198 3 -336 108q-154 -108 -364 -108q-156 0 -285.5 62t-208 180.5t-78.5 269.5q0 150 78.5 268.5t208 181t285.5 62.5q207 0 366 -111q130 108 310 111q102 1 188 -29t143 -82t91 -116t41 -134
q9 -104 -21 -142t-104 -38h-432q14 -73 59.5 -120t104.5 -62.5t120.5 -12.5t114.5 23q6 2 20.5 8t19.5 8t16.5 5.5t17 4t13.5 1t14.5 -2t13.5 -6.5zM1298 854q-68 0 -106 -64t-37 -180h184q62 0 68 52q6 25 3 58t-10.5 63t-34 50.5t-67.5 20.5zM623 145q62 4 88 102.5
t12 254.5q-12 155 -56 247.5t-106 86.5q-62 -4 -88 -102.5t-12 -254.5q12 -155 56 -247.5t106 -86.5z" />
    <glyph glyph-name="Racute" unicode="&#x154;" horiz-adv-x="1406" 
d="M1415 139q6 -62 -63.5 -103.5t-196.5 -41.5q-53 0 -92.5 5.5t-78 20t-68 43.5t-50.5 74q-75 157 -176 424h-20h-111v-272q0 -42 17 -76t34 -62.5t17 -56.5v-4q0 -96 -277 -96q-278 0 -278 96v4q0 28 17 56.5t34.5 62t17.5 76.5v850q0 34 -11 62.5t-23.5 45.5t-23.5 40
t-11 46v2q0 99 200 99h398q280 0 448 -118.5t168 -326.5q0 -236 -223 -350q51 -116 105.5 -200.5t95.5 -125t75 -69.5t53.5 -52t22.5 -53zM616 723q109 0 167.5 72.5t58.5 193.5q0 123 -51.5 203t-131.5 80q-52 0 -76 -30t-24 -103v-416h57zM870 1806q48 -75 31.5 -129
t-110.5 -86q-99 -33 -152 -48.5t-100 -22.5t-70 1.5t-37 32.5q-26 43 18.5 101t192.5 190q51 45 92 53t72.5 -15.5t62.5 -76.5z" />
    <glyph glyph-name="racute" unicode="&#x155;" horiz-adv-x="1013" 
d="M993 864q18 -39 19.5 -89.5t-22 -102t-70.5 -80.5q-29 -19 -67 -27t-78.5 -2t-75.5 40.5t-52 94.5q-7 31 -28.5 43.5t-45.5 3.5q-23 -6 -33.5 -32t-13.5 -92v-332q0 -43 17.5 -76.5t35 -62t17.5 -56.5v-4q0 -96 -279 -96q-276 0 -276 96v4q0 28 17 56.5t34 62t17 76.5
v297q0 52 -34 106t-34 86v4q0 55 57.5 99t180.5 90q54 19 92 26.5t68.5 2.5t45.5 -28.5t15 -66.5v-76q111 175 291 175q137 0 202 -140zM735 1376q48 -75 31.5 -129t-111.5 -86q-99 -33 -152 -48t-100 -22.5t-69.5 1t-36.5 32.5q-26 43 18.5 101t192.5 190q51 45 92 53
t72.5 -15.5t62.5 -76.5z" />
    <glyph glyph-name="Rcommaaccent" unicode="&#x156;" horiz-adv-x="1406" 
d="M741 -63q80 -3 130 -58.5t51 -148.5q1 -52 -10 -105t-30.5 -96.5t-44.5 -84t-52.5 -67.5t-54.5 -46.5t-50.5 -21t-40.5 8.5q-15 16 -14.5 30.5t13 38.5t26.5 45.5t26 50.5t12 54q0 18 -15 33.5t-36 29.5t-42.5 32t-36.5 49t-15 71q0 83 52 135t132 50zM1415 139
q6 -62 -63.5 -103.5t-196.5 -41.5q-53 0 -92.5 5.5t-78 20t-68 43.5t-50.5 74q-75 157 -176 424h-20h-111v-272q0 -42 17 -76t34 -62.5t17 -56.5v-4q0 -96 -277 -96q-278 0 -278 96v4q0 28 17 56.5t34.5 62t17.5 76.5v850q0 34 -11 62.5t-23.5 45.5t-23.5 40t-11 46v2
q0 99 200 99h398q280 0 448 -118.5t168 -326.5q0 -236 -223 -350q51 -116 105.5 -200.5t95.5 -125t75 -69.5t53.5 -52t22.5 -53zM616 723q109 0 167.5 72.5t58.5 193.5q0 123 -51.5 203t-131.5 80q-52 0 -76 -30t-24 -103v-416h57z" />
    <glyph glyph-name="rcommaaccent" unicode="&#x157;" horiz-adv-x="1013" 
d="M324 -63q79 -3 129 -58t51 -149q1 -52 -10 -105t-30.5 -96.5t-44.5 -84t-52.5 -67.5t-54.5 -46.5t-50.5 -21t-40.5 8.5q-15 16 -14.5 30.5t13 38.5t27 45.5t26.5 50.5t12 54q0 18 -15 33.5t-36.5 29.5t-43 32t-36.5 49t-15 71q0 83 52.5 135t132.5 50zM993 864
q18 -39 19.5 -89.5t-22 -102t-70.5 -80.5q-29 -19 -67 -27t-78.5 -2t-75.5 40.5t-52 94.5q-7 31 -28.5 43.5t-45.5 3.5q-23 -6 -33.5 -32t-13.5 -92v-332q0 -43 17.5 -76.5t35 -62t17.5 -56.5v-4q0 -96 -279 -96q-276 0 -276 96v4q0 28 17 56.5t34 62t17 76.5v297
q0 52 -34 106t-34 86v4q0 55 57.5 99t180.5 90q54 19 92 26.5t68.5 2.5t45.5 -28.5t15 -66.5v-76q111 175 291 175q137 0 202 -140z" />
    <glyph glyph-name="Rcaron" unicode="&#x158;" horiz-adv-x="1406" 
d="M1415 139q6 -62 -63.5 -103.5t-196.5 -41.5q-53 0 -92.5 5.5t-78 20t-68 43.5t-50.5 74q-75 157 -176 424h-20h-111v-272q0 -42 17 -76t34 -62.5t17 -56.5v-4q0 -96 -277 -96q-278 0 -278 96v4q0 28 17 56.5t34.5 62t17.5 76.5v850q0 34 -11 62.5t-23.5 45.5t-23.5 40
t-11 46v2q0 99 200 99h398q280 0 448 -118.5t168 -326.5q0 -236 -223 -350q51 -116 105.5 -200.5t95.5 -125t75 -69.5t53.5 -52t22.5 -53zM616 723q109 0 167.5 72.5t58.5 193.5q0 123 -51.5 203t-131.5 80q-52 0 -76 -30t-24 -103v-416h57zM885 1927q50 23 72.5 -9.5
t-15.5 -72.5q-109 -105 -219 -221q-3 -3 -13.5 -14t-13 -13t-10.5 -8.5t-13 -8t-13 -3.5t-17 -2q-8 0 -15 1t-13.5 3.5t-10.5 4.5t-10.5 8t-9.5 8.5t-11 11t-12 12.5q-110 116 -219 221q-38 40 -15.5 72.5t72.5 9.5l244 -115q158 74 242 115z" />
    <glyph glyph-name="rcaron" unicode="&#x159;" horiz-adv-x="1013" 
d="M993 864q18 -39 19.5 -89.5t-22 -102t-70.5 -80.5q-29 -19 -67 -27t-78.5 -2t-75.5 40.5t-52 94.5q-7 31 -28.5 43.5t-45.5 3.5q-23 -6 -33.5 -32t-13.5 -92v-332q0 -43 17.5 -76.5t35 -62t17.5 -56.5v-4q0 -96 -279 -96q-276 0 -276 96v4q0 28 17 56.5t34 62t17 76.5
v297q0 52 -34 106t-34 86v4q0 55 57.5 99t180.5 90q54 19 92 26.5t68.5 2.5t45.5 -28.5t15 -66.5v-76q111 175 291 175q137 0 202 -140zM770 1497q50 23 72.5 -9.5t-15.5 -72.5q-109 -105 -219 -221q-3 -3 -13.5 -14t-13 -13t-10.5 -8.5t-13 -8t-13 -3.5t-17 -2q-8 0 -15 1
t-13.5 3.5t-10.5 4.5t-10.5 8t-9.5 8.5t-11 11t-12 12.5q-110 116 -219 221q-38 40 -15 72.5t73 9.5l243 -115q158 74 242 115z" />
    <glyph glyph-name="Sacute" unicode="&#x15a;" horiz-adv-x="1304" 
d="M819 889q93 -32 163 -65t125.5 -72t89.5 -84t51 -99.5t14 -119.5t-25 -144q-42 -153 -202.5 -241.5t-368.5 -83.5q-59 2 -128 15.5t-110.5 23t-94.5 5t-102 -33.5q-48 -26 -92 -4t-53 71q-20 111 -43 367q-6 54 11 92.5t50 38.5h2q28 0 51 -22t41.5 -57t38.5 -78.5
t48.5 -87.5t65 -81.5t93.5 -64t129 -31.5q127 -9 193.5 31.5t77.5 114.5q12 76 -43.5 128t-227.5 117q-73 27 -129.5 52t-114.5 59.5t-99 71t-74 85t-46.5 103t-11 124t26.5 148.5q23 76 76.5 133.5t125.5 90t149 48t159 15.5q60 0 115 -11t84.5 -20t74 -6.5t97.5 25.5
q51 23 93.5 2.5t51.5 -70.5q13 -62 45 -323q5 -54 -12 -86.5t-49 -32.5h-5q-32 0 -64 27t-58 68t-60 88t-68.5 88t-86.5 68t-111 27q-65 0 -115 -27.5t-63 -76.5q-26 -99 44 -167.5t271 -137.5zM881 1806q48 -75 31.5 -129t-111.5 -86q-99 -33 -152 -48.5t-100 -22.5
t-70 1.5t-37 32.5q-26 43 18.5 101t192.5 190q51 45 92.5 53t73 -15.5t62.5 -76.5z" />
    <glyph glyph-name="sacute" unicode="&#x15b;" horiz-adv-x="1026" 
d="M616 647q149 -58 205 -91q158 -94 152 -245q-2 -46 -17 -96q-28 -98 -102 -155.5t-169 -74t-214 -3.5q-47 5 -95.5 16.5t-71.5 17t-56.5 -0.5t-73.5 -29q-38 -20 -73.5 -2.5t-43.5 57.5q-5 26 -12 83.5t-14 128t-8 79.5q-6 43 8 73.5t41 30.5h2q26 0 46.5 -20t35 -51
t37 -69t49.5 -71.5t76 -61t112 -36.5q62 -9 100 9.5t48 53.5q14 55 -36 92.5t-182 82.5q-137 48 -209.5 119.5t-78 157.5t40.5 187q44 90 157.5 134t235.5 41q47 -1 91 -7t64.5 -9.5t49 2t63.5 24.5q38 23 74 11t43 -52q3 -25 17.5 -121t17.5 -125q4 -42 -9.5 -67t-39.5 -25
h-5q-30 0 -53.5 21t-42.5 51t-43 61t-67 55.5t-101 28.5q-83 0 -100 -51q-14 -44 17 -78.5t134 -75.5zM705 1376q48 -75 31.5 -129t-111.5 -86q-99 -33 -152 -48.5t-100 -22.5t-70 1.5t-37 32.5q-26 43 18.5 101t192.5 190q51 45 92.5 53t73 -15.5t62.5 -76.5z" />
    <glyph glyph-name="Scircumflex" unicode="&#x15c;" horiz-adv-x="1304" 
d="M819 889q93 -32 163 -65t125.5 -72t89.5 -84t51 -99.5t14 -119.5t-25 -144q-42 -153 -202.5 -241.5t-368.5 -83.5q-59 2 -128 15.5t-110.5 23t-94.5 5t-102 -33.5q-48 -26 -92 -4t-53 71q-20 111 -43 367q-6 54 11 92.5t50 38.5h2q28 0 51 -22t41.5 -57t38.5 -78.5
t48.5 -87.5t65 -81.5t93.5 -64t129 -31.5q127 -9 193.5 31.5t77.5 114.5q12 76 -43.5 128t-227.5 117q-73 27 -129.5 52t-114.5 59.5t-99 71t-74 85t-46.5 103t-11 124t26.5 148.5q23 76 76.5 133.5t125.5 90t149 48t159 15.5q60 0 115 -11t84.5 -20t74 -6.5t97.5 25.5
q51 23 93.5 2.5t51.5 -70.5q13 -62 45 -323q5 -54 -12 -86.5t-49 -32.5h-5q-32 0 -64 27t-58 68t-60 88t-68.5 88t-86.5 68t-111 27q-65 0 -115 -27.5t-63 -76.5q-26 -99 44 -167.5t271 -137.5zM950 1665q38 -40 15.5 -72.5t-72.5 -9.5l-242 115q-157 -74 -241 -115
q-51 -23 -73.5 9.5t15.5 72.5q143 143 217 221l9 9l8 8l7 7t7.5 7t7 5t7.5 4.5t7.5 3.5t8.5 3t9 1.5t11 0.5q9 0 17 -2t13 -3.5t13 -8t10.5 -8.5t13 -13t13.5 -14q37 -39 219 -221z" />
    <glyph glyph-name="scircumflex" unicode="&#x15d;" horiz-adv-x="1026" 
d="M616 647q149 -58 205 -91q158 -94 152 -245q-2 -46 -17 -96q-28 -98 -102 -155.5t-169 -74t-214 -3.5q-47 5 -95.5 16.5t-71.5 17t-56.5 -0.5t-73.5 -29q-38 -20 -73.5 -2.5t-43.5 57.5q-5 26 -12 83.5t-14 128t-8 79.5q-6 43 8 73.5t41 30.5h2q26 0 46.5 -20t35 -51
t37 -69t49.5 -71.5t76 -61t112 -36.5q62 -9 100 9.5t48 53.5q14 55 -36 92.5t-182 82.5q-137 48 -209.5 119.5t-78 157.5t40.5 187q44 90 157.5 134t235.5 41q47 -1 91 -7t64.5 -9.5t49 2t63.5 24.5q38 23 74 11t43 -52q3 -25 17.5 -121t17.5 -125q4 -42 -9.5 -67t-39.5 -25
h-5q-30 0 -53.5 21t-42.5 51t-43 61t-67 55.5t-101 28.5q-83 0 -100 -51q-14 -44 17 -78.5t134 -75.5zM797 1235q38 -40 15 -72.5t-73 -9.5l-241 115q-158 -74 -242 -115q-51 -23 -73 9.5t16 72.5q143 143 217 221l9 9l8 8l7 7t7.5 7t7 5t7.5 4.5t7.5 3.5t8.5 3t9 1.5
t11 0.5q9 0 17 -2t13 -3.5t13 -8t10.5 -8.5t13 -13t13.5 -14q37 -39 219 -221z" />
    <glyph glyph-name="Scedilla" unicode="&#x15e;" horiz-adv-x="1304" 
d="M819 889q93 -32 163 -65t125.5 -72t89.5 -83.5t51.5 -99t14.5 -119.5t-24 -143q-40 -147 -191 -235.5t-348 -91.5l-24 -72q78 6 132 -7t78 -41t32 -59t2 -67q-10 -68 -74 -104t-160 -36q-57 0 -106.5 10.5t-81 37.5t-17.5 65q17 49 107 21q42 -13 67.5 -2.5t28.5 34.5
q6 45 -51 45h-55q-26 0 -38.5 15.5t-2.5 48.5q14 47 45 117q-33 5 -94.5 19t-92 18.5t-76.5 -2t-88 -31.5q-48 -26 -91 -4t-54 73q-20 107 -43 365q-6 54 11 92.5t50 38.5h2q28 0 51 -22t41.5 -57t38.5 -78.5t48.5 -87.5t65 -81.5t93.5 -64t129 -31.5q127 -9 193.5 31.5
t77.5 114.5q12 76 -43.5 128t-227.5 117q-73 27 -129.5 52t-114.5 59.5t-99 71t-74 85t-46.5 103t-11 124t26.5 148.5q24 76 77.5 133.5t125 90t148.5 48t159 15.5q60 0 115.5 -11t85 -20t73.5 -6t97 27q51 21 93.5 0.5t51.5 -68.5q13 -63 45 -325q5 -53 -12 -86t-49 -33h-5
q-32 0 -64 27.5t-58 68t-60 88.5t-68.5 88.5t-86.5 68t-111 27.5q-64 0 -114 -28.5t-62 -77.5q-28 -99 42 -167.5t271 -137.5z" />
    <glyph glyph-name="scedilla" unicode="&#x15f;" horiz-adv-x="1028" 
d="M618 647q149 -58 206 -92q157 -94 150 -247q-1 -44 -16 -93q-75 -250 -421 -240l-25 -67q53 4 95 -1.5t68.5 -17.5t46 -29.5t26.5 -38.5t11 -43t-1 -44q-12 -68 -76 -104t-160 -36q-57 0 -106.5 10.5t-81 37.5t-17.5 65q9 25 39 29.5t68 -10.5q41 -12 67.5 -1.5
t28.5 35.5q3 23 -9.5 34t-39.5 11h-57q-26 0 -38.5 15.5t-2.5 48.5q5 16 24.5 66.5t20.5 52.5q-27 5 -69 15.5t-60 13t-49 -4t-66 -26.5q-38 -20 -73.5 -2.5t-43.5 57.5q-5 26 -12 83.5t-14 128t-8 79.5q-5 43 9 73.5t40 30.5h2q26 0 46.5 -20t35 -51t37.5 -69t50 -71.5
t75.5 -61t111.5 -36.5q64 -8 101 10t47 53q14 55 -35.5 92.5t-180.5 82.5q-138 48 -211 119.5t-78 157.5t42 187q43 89 156.5 133.5t234.5 41.5q47 -1 91.5 -7t65 -9.5t48.5 2t63 24.5q38 23 74.5 11t42.5 -52q23 -141 35 -246q4 -42 -9.5 -67t-39.5 -25h-3q-30 0 -53.5 21
t-43 51t-43 61t-67 55.5t-102.5 28.5q-83 0 -98 -51q-14 -44 17 -78.5t134 -75.5z" />
    <glyph glyph-name="Scaron" unicode="&#x160;" horiz-adv-x="1304" 
d="M819 889q93 -32 163 -65t125.5 -72t89.5 -84t51 -99.5t14 -119.5t-25 -144q-42 -153 -202.5 -241.5t-368.5 -83.5q-59 2 -128 15.5t-110.5 23t-94.5 5t-102 -33.5q-48 -26 -92 -4t-53 71q-20 111 -43 367q-6 54 11 92.5t50 38.5h2q28 0 51 -22t41.5 -57t38.5 -78.5
t48.5 -87.5t65 -81.5t93.5 -64t129 -31.5q127 -9 193.5 31.5t77.5 114.5q12 76 -43.5 128t-227.5 117q-73 27 -129.5 52t-114.5 59.5t-99 71t-74 85t-46.5 103t-11 124t26.5 148.5q23 76 76.5 133.5t125.5 90t149 48t159 15.5q60 0 115 -11t84.5 -20t74 -6.5t97.5 25.5
q51 23 93.5 2.5t51.5 -70.5q13 -62 45 -323q5 -54 -12 -86.5t-49 -32.5h-5q-32 0 -64 27t-58 68t-60 88t-68.5 88t-86.5 68t-111 27q-65 0 -115 -27.5t-63 -76.5q-26 -99 44 -167.5t271 -137.5zM915 1927q50 23 73 -9.5t-15 -72.5q-109 -105 -219 -221q-3 -3 -13.5 -14
t-13 -13t-10.5 -8.5t-13 -8t-13 -3.5t-17 -2q-8 0 -15 1t-13.5 3.5t-10.5 4.5t-10.5 8t-9.5 8.5t-11 11t-12 12.5q-110 116 -219 221q-38 40 -15.5 72.5t72.5 9.5l244 -115q157 74 241 115z" />
    <glyph glyph-name="scaron" unicode="&#x161;" horiz-adv-x="1026" 
d="M616 647q149 -58 205 -91q158 -94 152 -245q-2 -46 -17 -96q-28 -98 -102 -155.5t-169 -74t-214 -3.5q-47 5 -95.5 16.5t-71.5 17t-56.5 -0.5t-73.5 -29q-38 -20 -73.5 -2.5t-43.5 57.5q-5 26 -12 83.5t-14 128t-8 79.5q-6 43 8 73.5t41 30.5h2q26 0 46.5 -20t35 -51
t37 -69t49.5 -71.5t76 -61t112 -36.5q62 -9 100 9.5t48 53.5q14 55 -36 92.5t-182 82.5q-137 48 -209.5 119.5t-78 157.5t40.5 187q44 90 157.5 134t235.5 41q47 -1 91 -7t64.5 -9.5t49 2t63.5 24.5q38 23 74 11t43 -52q3 -25 17.5 -121t17.5 -125q4 -42 -9.5 -67t-39.5 -25
h-5q-30 0 -53.5 21t-42.5 51t-43 61t-67 55.5t-101 28.5q-83 0 -100 -51q-14 -44 17 -78.5t134 -75.5zM739 1497q50 23 73 -9.5t-15 -72.5q-109 -105 -219 -221q-3 -3 -13.5 -14t-13 -13t-10.5 -8.5t-13 -8t-13 -3.5t-17 -2q-8 0 -15 1t-13.5 3.5t-10.5 4.5t-10.5 8
t-9.5 8.5t-11 11t-12 12.5q-110 116 -219 221q-38 40 -15.5 72.5t72.5 9.5l244 -115q157 74 241 115z" />
    <glyph glyph-name="Tcommaaccent" unicode="&#x162;" horiz-adv-x="1447" 
d="M731 -63q79 -3 129 -58t51 -149q1 -52 -10 -105t-30.5 -96.5t-44.5 -84t-52 -67.5t-54 -46.5t-50.5 -21t-40.5 8.5q-15 16 -14.5 30.5t13 38.5t26.5 45.5t26 50.5t12 54q0 18 -15 33.5t-36 29.5t-42.5 32t-36.5 49t-15 71q0 83 52 135t132 50zM1405 1104q6 -52 -11 -78.5
t-51 -26.5h-4q-37 0 -69 28t-58 68.5t-54 80.5t-71 68t-96 28h-59v-983q0 -42 17 -76t34.5 -62.5t17.5 -56.5v-4q0 -96 -278 -96q-277 0 -277 96v4q0 28 17.5 56.5t35 62t17.5 76.5v983h-59q-53 0 -96 -28t-71.5 -68t-54.5 -80.5t-58.5 -68.5t-70.5 -28h-2q-73 0 -61 105
q7 82 43 270q9 50 31.5 72t66.5 22q30 0 88 -17t117 -17h670q59 0 116.5 17t88.5 17q42 0 64.5 -22t33.5 -72q29 -151 43 -270z" />
    <glyph glyph-name="tcommaaccent" unicode="&#x163;" horiz-adv-x="874" 
d="M434 -63q79 -3 129 -58t51 -149q1 -52 -10 -105t-30.5 -96.5t-44.5 -84t-52 -67.5t-54 -46.5t-50.5 -21t-40.5 8.5q-15 16 -14.5 30.5t13 38.5t26.5 45.5t26 50.5t12 54q0 18 -15 33.5t-36.5 29.5t-42.5 32t-36 49t-15 71q0 83 52 135t132 50zM803 309q39 -19 26 -87
q-16 -82 -93 -151q-102 -91 -247 -91q-163 0 -262.5 106.5t-99.5 284.5v436h-43q-39 0 -66.5 22.5t-27.5 63.5q0 61 90.5 163t216.5 175q63 36 119 45.5t91.5 -14.5t35.5 -80v-211h151q46 0 70 -22.5t24 -59.5t-24 -59.5t-70 -22.5h-151v-387q0 -183 147 -129q23 9 35 13.5
t28 8.5t28 3t22 -7z" />
    <glyph glyph-name="Tcaron" unicode="&#x164;" horiz-adv-x="1447" 
d="M1405 1104q6 -52 -11 -78.5t-51 -26.5h-4q-37 0 -69 28t-58 68.5t-54 80.5t-71 68t-96 28h-59v-983q0 -42 17 -76t34.5 -62.5t17.5 -56.5v-4q0 -96 -278 -96q-277 0 -277 96v4q0 28 17.5 56.5t35 62t17.5 76.5v983h-59q-53 0 -96 -28t-71.5 -68t-54.5 -80.5t-58.5 -68.5
t-70.5 -28h-2q-73 0 -61 105q7 82 43 270q9 50 31.5 72t66.5 22q30 0 88 -17t117 -17h670q59 0 116.5 17t88.5 17q42 0 64.5 -22t33.5 -72q29 -151 43 -270zM967 1927q50 23 72.5 -9.5t-15.5 -72.5q-109 -105 -219 -221q-3 -3 -13.5 -14t-13 -13t-10.5 -8.5t-13 -8t-13 -3.5
t-17 -2q-8 0 -15 1t-13.5 3.5t-10.5 4.5t-10.5 8t-9.5 8.5t-11 11t-12 12.5q-110 116 -219 221q-38 40 -15.5 72.5t72.5 9.5l244 -115q158 74 242 115z" />
    <glyph glyph-name="tcaron" unicode="&#x165;" horiz-adv-x="874" 
d="M803 309q39 -19 26 -87q-16 -82 -93 -151q-102 -91 -247 -91q-163 0 -262.5 106.5t-99.5 284.5v436h-43q-39 0 -66.5 22.5t-27.5 63.5q0 61 90.5 163t216.5 175q63 36 119 45.5t91.5 -14.5t35.5 -80v-211h151q46 0 70 -22.5t24 -59.5t-24 -59.5t-70 -22.5h-151v-387
q0 -183 147 -129q23 9 35 13.5t28 8.5t28 3t22 -7zM758 1686q79 -2 129 -57t53 -150q1 -51 -10 -103.5t-30.5 -96.5t-45 -84.5t-52.5 -67t-54.5 -46t-51 -21t-41.5 8.5q-15 16 -14.5 30.5t13 38.5t27 45.5t26.5 50.5t12 54q0 18 -15 33.5t-36.5 29.5t-43 32t-36.5 49t-15 71
q0 83 53 134.5t132 48.5z" />
    <glyph glyph-name="Tbar" unicode="&#x166;" horiz-adv-x="1447" 
d="M1405 1104q6 -51 -10.5 -78t-51.5 -27h-2q-32 0 -60.5 20t-49 50.5t-45.5 66t-49.5 66t-62.5 50.5t-83 20h-57v-473h129q45 0 62.5 -21t17.5 -61q0 -39 -18 -59.5t-62 -20.5h-129v-348q0 -43 17 -76.5t33.5 -62t16.5 -56.5v-4q0 -96 -276 -96q-279 0 -279 96v4
q0 28 17.5 56.5t35 62t17.5 76.5v348h-129q-82 0 -82 80q0 82 82 82h129v473h-59q-45 0 -83 -20t-62 -50.5t-49 -66t-45 -66t-48.5 -50.5t-60.5 -20h-5q-33 0 -50 27t-11 78q17 137 45 272q9 48 31.5 70t66.5 22q30 0 87 -17t118 -17h668q59 0 117 17t88 17q44 0 66.5 -22
t31.5 -70q36 -196 43 -272z" />
    <glyph glyph-name="tbar" unicode="&#x167;" horiz-adv-x="874" 
d="M805 309q39 -19 25 -87q-17 -82 -95 -151q-101 -91 -246 -91q-163 0 -262.5 106.5t-99.5 284.5v188h-55q-45 0 -63.5 18.5t-18.5 55.5q0 39 18.5 57.5t63.5 18.5h55v98h-41q-39 0 -67.5 22.5t-28.5 63.5q0 61 90.5 163t216.5 175q63 36 119 45.5t91.5 -14.5t35.5 -80
v-211h151q46 0 70 -22.5t24 -59.5t-24 -59.5t-70 -22.5h-151v-98h100q47 0 64.5 -18.5t17.5 -57.5q0 -38 -17.5 -56t-64.5 -18h-100v-139q0 -183 147 -129q23 9 35 13.5t28.5 8.5t28.5 3t23 -7z" />
    <glyph glyph-name="Utilde" unicode="&#x168;" horiz-adv-x="1482" 
d="M1260 1440q75 0 123.5 -24t48.5 -73v-4q0 -23 -14 -46t-31.5 -40t-31.5 -45.5t-14 -62.5v-594q0 -258 -147 -416t-416 -158q-131 0 -245 35.5t-202 103.5t-139 177t-51 246v620q0 53 -34.5 107t-34.5 86v4q0 27 21 45t63.5 26t85 10.5t106.5 2.5q65 0 108.5 -2.5
t86 -10.5t63.5 -26t21 -45v-4q0 -23 -11 -46t-24 -40t-24 -45.5t-11 -61.5v-620q0 -193 92 -292.5t236 -99.5q139 0 217 107t78 291v600q0 34 -14 62.5t-31 45.5t-31 40t-14 46v4q0 49 47.5 73t122.5 24zM625 1876q90 0 182 -47q97 -51 174 -57q31 -2 59 11.5t44 29.5t37 26
t38 0q17 -9 18.5 -41t-13.5 -73.5t-42 -81t-72 -66.5t-98 -27q-73 0 -209 58q-96 42 -149 37q-33 -3 -67 -27t-63.5 -40.5t-60.5 -6.5q-35 12 -21 80q18 83 83 150q72 75 160 75z" />
    <glyph glyph-name="utilde" unicode="&#x169;" horiz-adv-x="1290" 
d="M1157 367q0 -34 16 -63t35.5 -46t35.5 -40t16 -46v-4q0 -60 -55 -109t-161 -71q-90 -20 -153 8t-86 98q-1 2 -12 47q-37 -73 -109.5 -117t-173.5 -44q-200 0 -305 114.5t-105 294.5v225q0 42 -17 76t-34.5 62.5t-17.5 56.5v4q0 60 52.5 103.5t174.5 70.5q258 58 258 -92
v-524q0 -101 27.5 -146t83.5 -45q50 0 81.5 43.5t32.5 132.5v258q0 42 -17.5 76t-34.5 62.5t-17 56.5v4q0 60 52.5 103.5t174.5 70.5q258 58 258 -92v-528zM498 1446q90 0 182 -47q99 -52 174 -58q25 -2 48.5 7t38 22t31.5 25t29 16.5t31 -2.5q17 -9 18.5 -41t-13.5 -73.5
t-42 -81t-72 -66.5t-98 -27q-73 0 -209 58q-94 41 -149 36q-27 -3 -54 -18t-45.5 -30.5t-43 -24t-48.5 -0.5q-35 12 -21 80q18 83 83 150q72 75 160 75z" />
    <glyph glyph-name="Umacron" unicode="&#x16a;" horiz-adv-x="1482" 
d="M1260 1440q75 0 123.5 -24t48.5 -73v-4q0 -23 -14 -46t-31.5 -40t-31.5 -45.5t-14 -62.5v-594q0 -258 -147 -416t-416 -158q-131 0 -245 35.5t-202 103.5t-139 177t-51 246v620q0 53 -34.5 107t-34.5 86v4q0 27 21 45t63.5 26t85 10.5t106.5 2.5q65 0 108.5 -2.5
t86 -10.5t63.5 -26t21 -45v-4q0 -23 -11 -46t-24 -40t-24 -45.5t-11 -61.5v-620q0 -193 92 -292.5t236 -99.5q139 0 217 107t78 291v600q0 34 -14 62.5t-31 45.5t-31 40t-14 46v4q0 49 47.5 73t122.5 24zM1116 1800q47 0 64.5 -18t17.5 -56t-17.5 -55.5t-64.5 -17.5h-651
q-45 0 -62.5 18t-17.5 55q0 38 17.5 56t62.5 18h651z" />
    <glyph glyph-name="umacron" unicode="&#x16b;" horiz-adv-x="1290" 
d="M1157 367q0 -34 16 -63t35.5 -46t35.5 -40t16 -46v-4q0 -60 -55 -109t-161 -71q-90 -20 -153 8t-86 98q-1 2 -12 47q-37 -73 -109.5 -117t-173.5 -44q-200 0 -305 114.5t-105 294.5v225q0 42 -17 76t-34.5 62.5t-17.5 56.5v4q0 60 52.5 103.5t174.5 70.5q258 58 258 -92
v-524q0 -101 27.5 -146t83.5 -45q50 0 81.5 43.5t32.5 132.5v258q0 42 -17.5 76t-34.5 62.5t-17 56.5v4q0 60 52.5 103.5t174.5 70.5q258 58 258 -92v-528zM969 1370q47 0 64.5 -18t17.5 -56t-17.5 -55.5t-64.5 -17.5h-652q-45 0 -62 17.5t-17 55.5t17 56t62 18h652z" />
    <glyph glyph-name="Ubreve" unicode="&#x16c;" horiz-adv-x="1482" 
d="M1260 1440q75 0 123.5 -24t48.5 -73v-4q0 -23 -14 -46t-31.5 -40t-31.5 -45.5t-14 -62.5v-594q0 -258 -147 -416t-416 -158q-131 0 -245 35.5t-202 103.5t-139 177t-51 246v620q0 53 -34.5 107t-34.5 86v4q0 27 21 45t63.5 26t85 10.5t106.5 2.5q65 0 108.5 -2.5
t86 -10.5t63.5 -26t21 -45v-4q0 -23 -11 -46t-24 -40t-24 -45.5t-11 -61.5v-620q0 -193 92 -292.5t236 -99.5q139 0 217 107t78 291v600q0 34 -14 62.5t-31 45.5t-31 40t-14 46v4q0 49 47.5 73t122.5 24zM1092 1864q43 -17 40 -85q-4 -82 -69 -153q-87 -96 -229 -96
q-151 0 -239 107q-60 73 -60 151q0 60 40 76q21 10 39.5 5.5t29 -17t27.5 -29.5t34.5 -32.5t51.5 -26.5t77 -11q38 0 68 8t47.5 20.5t34 27.5t25.5 28t22.5 22t26 11t34.5 -6z" />
    <glyph glyph-name="ubreve" unicode="&#x16d;" horiz-adv-x="1290" 
d="M1157 367q0 -34 16 -63t35.5 -46t35.5 -40t16 -46v-4q0 -60 -55 -109t-161 -71q-90 -20 -153 8t-86 98q-1 2 -12 47q-37 -73 -109.5 -117t-173.5 -44q-200 0 -305 114.5t-105 294.5v225q0 42 -17 76t-34.5 62.5t-17.5 56.5v4q0 60 52.5 103.5t174.5 70.5q258 58 258 -92
v-524q0 -101 27.5 -146t83.5 -45q50 0 81.5 43.5t32.5 132.5v258q0 42 -17.5 76t-34.5 62.5t-17 56.5v4q0 60 52.5 103.5t174.5 70.5q258 58 258 -92v-528zM903 1434q43 -17 40 -85q-4 -82 -69 -153q-87 -96 -229 -96q-151 0 -239 107q-60 73 -59 151q0 60 40 76
q22 8 34.5 6t26 -11t22.5 -22t25.5 -28t34 -27.5t47.5 -20.5t68 -8t68 8t47.5 20.5t34 27.5t25.5 28t22.5 22t26 11t34.5 -6z" />
    <glyph glyph-name="Uring" unicode="&#x16e;" horiz-adv-x="1482" 
d="M1260 1440q75 0 123.5 -24t48.5 -73v-4q0 -23 -14 -46t-31.5 -40t-31.5 -45.5t-14 -62.5v-594q0 -258 -147 -416t-416 -158q-131 0 -245 35.5t-202 103.5t-139 177t-51 246v620q0 53 -34.5 107t-34.5 86v4q0 27 21 45t63.5 26t85 10.5t106.5 2.5q65 0 108.5 -2.5
t86 -10.5t63.5 -26t21 -45v-4q0 -23 -11 -46t-24 -40t-24 -45.5t-11 -61.5v-620q0 -193 92 -292.5t236 -99.5q139 0 217 107t78 291v600q0 34 -14 62.5t-31 45.5t-31 40t-14 46v4q0 49 47.5 73t122.5 24zM793 1923q97 0 168 -53t71 -144t-71 -143.5t-168 -52.5
q-99 0 -170.5 52.5t-71.5 143.5t72 144t170 53zM793 1614q49 0 49 112q0 113 -49 113q-23 0 -37.5 -28.5t-14.5 -84.5t14.5 -84t37.5 -28z" />
    <glyph glyph-name="uring" unicode="&#x16f;" horiz-adv-x="1290" 
d="M1157 367q0 -34 16 -63t35.5 -46t35.5 -40t16 -46v-4q0 -60 -55 -109t-161 -71q-90 -20 -153 8t-86 98q-1 2 -12 47q-37 -73 -109.5 -117t-173.5 -44q-200 0 -305 114.5t-105 294.5v225q0 42 -17 76t-34.5 62.5t-17.5 56.5v4q0 60 52.5 103.5t174.5 70.5q258 58 258 -92
v-524q0 -101 27.5 -146t83.5 -45q50 0 81.5 43.5t32.5 132.5v258q0 42 -17.5 76t-34.5 62.5t-17 56.5v4q0 60 52.5 103.5t174.5 70.5q258 58 258 -92v-528zM645 1493q97 0 168.5 -53t71.5 -144t-71.5 -143.5t-168.5 -52.5q-99 0 -170.5 52.5t-71.5 143.5t72 144t170 53z
M645 1184q49 0 49 112q0 113 -49 113q-23 0 -37 -28.5t-14 -84.5t14 -84t37 -28z" />
    <glyph glyph-name="Uhungarumlaut" unicode="&#x170;" horiz-adv-x="1482" 
d="M1260 1440q75 0 123.5 -24t48.5 -73v-4q0 -23 -14 -46t-31.5 -40t-31.5 -45.5t-14 -62.5v-594q0 -258 -147 -416t-416 -158q-131 0 -245 35.5t-202 103.5t-139 177t-51 246v620q0 53 -34.5 107t-34.5 86v4q0 27 21 45t63.5 26t85 10.5t106.5 2.5q65 0 108.5 -2.5
t86 -10.5t63.5 -26t21 -45v-4q0 -23 -11 -46t-24 -40t-24 -45.5t-11 -61.5v-620q0 -193 92 -292.5t236 -99.5q139 0 217 107t78 291v600q0 34 -14 62.5t-31 45.5t-31 40t-14 46v4q0 49 47.5 73t122.5 24zM762 1946q51 -35 71 -68.5t8 -73.5t-61 -86q-145 -137 -205.5 -176
t-101.5 -10q-29 20 -29 62.5t21.5 104t75.5 185.5q27 63 60.5 88t71.5 17.5t89 -43.5zM1176 1946q51 -35 71 -68.5t8 -73.5t-61 -86q-146 -138 -205.5 -176.5t-101.5 -9.5q-29 20 -29.5 62.5t21.5 104.5t75 185q27 63 61 88t72.5 17.5t88.5 -43.5z" />
    <glyph glyph-name="uhungarumlaut" unicode="&#x171;" horiz-adv-x="1290" 
d="M1157 367q0 -34 16 -63t35.5 -46t35.5 -40t16 -46v-4q0 -60 -55 -109t-161 -71q-90 -20 -153 8t-86 98q-1 2 -12 47q-37 -73 -109.5 -117t-173.5 -44q-200 0 -305 114.5t-105 294.5v225q0 42 -17 76t-34.5 62.5t-17.5 56.5v4q0 60 52.5 103.5t174.5 70.5q258 58 258 -92
v-524q0 -101 27.5 -146t83.5 -45q50 0 81.5 43.5t32.5 132.5v258q0 42 -17.5 76t-34.5 62.5t-17 56.5v4q0 60 52.5 103.5t174.5 70.5q258 58 258 -92v-528zM594 1516q51 -35 71 -68.5t8 -73.5t-61 -86q-145 -137 -205.5 -176t-101.5 -10q-29 20 -29 62.5t21.5 104
t75.5 185.5q27 63 60.5 88t71.5 17.5t89 -43.5zM1008 1516q51 -35 71 -68.5t8 -73.5t-61 -86q-146 -138 -205.5 -176.5t-101.5 -9.5q-29 20 -29.5 62.5t21.5 104.5t75 185q27 63 61 88t72.5 17.5t88.5 -43.5z" />
    <glyph glyph-name="Uogonek" unicode="&#x172;" horiz-adv-x="1482" 
d="M1260 1440q75 0 123.5 -24t48.5 -73v-4q0 -23 -14 -46t-31.5 -40t-31.5 -45.5t-14 -62.5v-594q0 -207 -95.5 -352t-276.5 -195q-31 -81 -43.5 -134t-10 -75t15 -32.5t28 -10.5t32.5 -5t25 -19q24 -40 -27 -87t-131 -47q-91 0 -138.5 44t-47.5 114q0 59 37.5 119.5
t107.5 108.5h-39q-131 0 -245 35.5t-202 103t-139 175.5t-51 245v620q0 42 -17 76t-34.5 62.5t-17.5 56.5v2q0 27 21 45t63.5 26t85.5 10.5t108 2.5q64 0 107 -2.5t85.5 -10.5t63.5 -26t21 -45v-2q0 -28 -17.5 -56.5t-35 -62.5t-17.5 -76v-620q0 -193 92 -291t236 -98
q139 0 217 106.5t78 288.5v600q0 34 -14 62.5t-31 45.5t-31 40t-14 46v4q0 49 48 73t122 24z" />
    <glyph glyph-name="uogonek" unicode="&#x173;" horiz-adv-x="1290" 
d="M1157 367q0 -34 16 -63t35.5 -46t35.5 -40t16 -46v-4q0 -49 -39.5 -93t-116.5 -71q-31 -81 -43.5 -133.5t-10 -75t15 -33t28.5 -10.5t33.5 -6t25.5 -20q23 -40 -28 -86t-130 -46q-91 0 -138.5 44t-47.5 114q0 58 37 119t108 109q-114 9 -149 114q-9 24 -12 47
q-89 -161 -283 -161q-102 0 -181.5 32t-129.5 88t-75.5 129.5t-25.5 159.5v225q0 42 -17 76t-33.5 62.5t-16.5 56.5v4q0 60 52.5 103.5t174.5 70.5q258 58 258 -92v-524q0 -101 27.5 -146t83.5 -45q50 0 80.5 43t31.5 133v258q0 42 -17.5 76t-34.5 62.5t-17 56.5v4
q0 124 227 174q260 57 260 -92v-528z" />
    <glyph glyph-name="Wcircumflex" unicode="&#x174;" horiz-adv-x="2113" 
d="M1942 1440q70 0 121 -23t51 -67v-4q0 -30 -27 -60.5t-64 -70.5t-53 -82l-393 -1027q-8 -21 -15.5 -37t-21.5 -35t-35 -29.5t-47 -10.5q-56 0 -87.5 23.5t-55.5 88.5l-266 752l-295 -774q-36 -90 -115 -90q-58 0 -85.5 22.5t-55.5 89.5l-371 1002q-12 32 -35 64t-42.5 52
t-34.5 49t-15 60v2q0 58 65.5 81.5t208.5 23.5q136 0 210.5 -16.5t74.5 -67.5v-4q0 -26 -15 -58.5t-22 -55t6 -75.5l222 -635l286 820q11 27 17.5 40t20 27.5t34.5 19.5t53 5q37 0 58.5 -4.5t37.5 -21t24 -32.5t24 -55l264 -790l211 606q15 40 14 71t-9 46t-17 37t-9 42v4
q0 49 53.5 73t129.5 24zM1479 1665q38 -40 15 -72.5t-73 -9.5l-241 115q-158 -74 -242 -115q-51 -23 -73 9.5t16 72.5q143 143 217 221l9 9l8 8l7 7t7.5 7t7 5t7.5 4.5t7.5 3.5t8.5 3t9 1.5t11 0.5q9 0 17 -2t13 -3.5t13 -8t10.5 -8.5t13 -13t13.5 -14q37 -39 219 -221z" />
    <glyph glyph-name="wcircumflex" unicode="&#x175;" 
d="M1430 1004q70 0 121 -23.5t51 -69.5v-2q0 -30 -27 -61.5t-63.5 -71t-51.5 -78.5l-207 -557q-13 -34 -18 -46t-16 -34.5t-20.5 -30.5t-26 -19t-37 -14t-48.5 -3q-81 0 -115.5 24t-58.5 93l-114 342l-121 -312q-31 -81 -46 -102q-39 -44 -118 -45q-80 0 -117 24.5t-65 92.5
l-234 561q-15 38 -49 77t-57 73t-23 73v4q0 57 66.5 81t208.5 24q65 0 109.5 -2.5t89 -10.5t67 -26t22.5 -45v-5q0 -27 -15 -61t-22.5 -57t5.5 -76l106 -313l172 503q17 51 41 72t86 21q66 0 90 -22t45 -93l144 -461l90 279q15 40 12 71.5t-12 46.5t-19 36t-10 42v2
q0 50 54.5 74.5t130.5 24.5zM1206 1235q38 -40 15.5 -72.5t-72.5 -9.5l-242 115q-157 -74 -241 -115q-51 -23 -73.5 9.5t15.5 72.5q143 143 217 221l9 9l8 8l7 7t7.5 7t7 5t7.5 4.5t7.5 3.5t8.5 3t9 1.5t11 0.5q9 0 17 -2t13 -3.5t13 -8t10.5 -8.5t13 -13t13.5 -14
q37 -39 219 -221z" />
    <glyph glyph-name="Ycircumflex" unicode="&#x176;" horiz-adv-x="1304" 
d="M1135 1440q70 0 120 -23t50 -67v-4q0 -24 -16.5 -49.5t-39 -45.5t-50 -52.5t-44.5 -65.5l-268 -519v-340q0 -42 17.5 -76t34.5 -62t17 -56v-2q0 -19 -9.5 -33.5t-29.5 -23t-43 -14.5t-58 -8.5t-65 -3.5t-73 -1t-73 1t-65 3.5t-57.5 8.5t-42.5 14.5t-29.5 23t-9.5 33.5v2
q0 28 17.5 56t35 62t17.5 76v283l-321 535q-21 34 -62.5 80.5t-64.5 83t-23 77.5v2q0 58 65.5 81.5t208.5 23.5q65 0 112.5 -2.5t97 -10.5t76 -26t26.5 -45v-4q0 -22 -10 -46t-19.5 -40.5t-9.5 -43.5t16 -59l217 -424l187 408q19 40 20.5 70t-8 45t-19.5 36t-10 41v4
q0 49 54 73t131 24zM1053 1665q38 -40 15 -72.5t-73 -9.5l-241 115q-158 -74 -242 -115q-51 -23 -73 9.5t16 72.5q143 143 217 221l9 9l8 8l7 7t7.5 7t7 5t7.5 4.5t7.5 3.5t8.5 3t9 1.5t11 0.5q9 0 17 -2t13 -3.5t13 -8t10.5 -8.5t13 -13t13.5 -14q37 -39 219 -221z" />
    <glyph glyph-name="ycircumflex" unicode="&#x177;" horiz-adv-x="1136" 
d="M981 1004q68 0 112 -23t44 -70v-2q0 -30 -25 -62t-60 -72t-51 -79q-231 -569 -233 -575q-66 -164 -122.5 -274.5t-108 -173t-91.5 -92t-94 -52.5q-33 -14 -79 -19.5t-102 2t-101 29.5q-31 15 -55.5 43t-36.5 62t-4.5 73t38.5 72q49 49 117 43t117 -57q23 -23 42 -35.5
t44 -15t48.5 14t53 58.5t60.5 111l-375 760q-18 39 -55.5 79t-62 73.5t-24.5 72.5v4q0 56 68.5 79.5t206.5 25.5q65 -1 108 -4t89 -11t69 -25.5t23 -43.5v-5q0 -26 -13.5 -60t-18 -56t12.5 -78l158 -397l135 383q15 40 15 70t-8 46t-16.5 38t-8.5 42v2q0 50 53.5 74.5
t130.5 24.5zM954 1235q38 -40 15.5 -72.5t-72.5 -9.5l-242 115q-157 -74 -241 -115q-51 -23 -73.5 9.5t15.5 72.5q143 143 217 221l9 9l8 8l7 7t7.5 7t7 5t7.5 4.5t7.5 3.5t8.5 3t9 1.5t11 0.5q9 0 17 -2t13 -3.5t13 -8t10.5 -8.5t13 -13t13.5 -14q37 -39 219 -221z" />
    <glyph glyph-name="Ydieresis" unicode="&#x178;" horiz-adv-x="1304" 
d="M1135 1440q70 0 120 -23t50 -67v-4q0 -24 -16.5 -49.5t-39 -45.5t-50 -52.5t-44.5 -65.5l-268 -519v-340q0 -42 17.5 -76t34.5 -62t17 -56v-2q0 -19 -9.5 -33.5t-29.5 -23t-43 -14.5t-58 -8.5t-65 -3.5t-73 -1t-73 1t-65 3.5t-57.5 8.5t-42.5 14.5t-29.5 23t-9.5 33.5v2
q0 28 17.5 56t35 62t17.5 76v283l-321 535q-21 34 -62.5 80.5t-64.5 83t-23 77.5v2q0 58 65.5 81.5t208.5 23.5q65 0 112.5 -2.5t97 -10.5t76 -26t26.5 -45v-4q0 -22 -10 -46t-19.5 -40.5t-9.5 -43.5t16 -59l217 -424l187 408q19 40 20.5 70t-8 45t-19.5 36t-10 41v4
q0 49 54 73t131 24zM516 1915q80 0 134.5 -49.5t54.5 -132.5q0 -85 -54.5 -134t-134.5 -49t-135 49t-55 134q0 83 55 132.5t135 49.5zM954 1915q80 0 134.5 -49.5t54.5 -132.5q0 -85 -54.5 -134t-134.5 -49t-135 49t-55 134q0 83 55 132.5t135 49.5z" />
    <glyph glyph-name="Zacute" unicode="&#x179;" horiz-adv-x="1374" 
d="M1260 461q33 0 50 -27t11 -78q-24 -201 -45 -299q-9 -48 -31.5 -70t-66.5 -22q-30 0 -87 17.5t-118 17.5h-770q-112 0 -142 68t35 168q181 282 680 1036h-291q-53 0 -95 -31t-70.5 -75t-54 -87.5t-58 -74.5t-70.5 -31h-4q-34 0 -50.5 26t-10.5 78q25 202 45 297
q9 50 31.5 72t66.5 22q30 0 88 -17t117 -17h688q78 0 112.5 -37t25.5 -95t-54 -128q-49 -78 -351.5 -537.5t-312.5 -474.5h379q53 0 96 31t71 75t53.5 87.5t57.5 74.5t70 31h5zM936 1806q48 -75 31.5 -129t-111.5 -86q-99 -33 -152 -48t-100 -22.5t-69.5 1t-36.5 32.5
q-26 43 18.5 101t192.5 190q51 45 92 53t72.5 -15.5t62.5 -76.5z" />
    <glyph glyph-name="zacute" unicode="&#x17a;" horiz-adv-x="1134" 
d="M1026 381q36 0 55.5 -28.5t5.5 -76.5q-24 -83 -69 -219q-16 -50 -36 -71t-62 -21q-30 0 -88 17.5t-117 17.5h-570q-65 0 -82.5 43t23.5 100l465 664h-100q-53 0 -95 -22.5t-68.5 -55t-52 -64.5t-59.5 -54.5t-76 -22.5h-2q-37 0 -56 27.5t-5 76.5q8 30 16 61.5t20 77
t21 80.5q24 93 111 93q31 0 81.5 -16.5t110.5 -16.5h539q62 0 77 -44.5t-30 -111.5l-459 -653h138q53 0 97.5 22.5t74.5 55t57.5 64.5t61 54.5t71.5 22.5h2zM852 1376q48 -75 31.5 -129t-111.5 -86q-99 -33 -152 -48t-100 -22.5t-69.5 1t-36.5 32.5q-26 43 18.5 101
t192.5 190q51 45 92 53t72.5 -15.5t62.5 -76.5z" />
    <glyph glyph-name="Zdotaccent" unicode="&#x17b;" horiz-adv-x="1374" 
d="M1260 461q33 0 50 -27t11 -78q-24 -201 -45 -299q-9 -48 -31.5 -70t-66.5 -22q-30 0 -87 17.5t-118 17.5h-770q-112 0 -142 68t35 168q181 282 680 1036h-291q-53 0 -95 -31t-70.5 -75t-54 -87.5t-58 -74.5t-70.5 -31h-4q-34 0 -50.5 26t-10.5 78q25 202 45 297
q9 50 31.5 72t66.5 22q30 0 88 -17t117 -17h688q78 0 112.5 -37t25.5 -95t-54 -128q-49 -78 -351.5 -537.5t-312.5 -474.5h379q53 0 96 31t71 75t53.5 87.5t57.5 74.5t70 31h5zM729 1915q80 0 134.5 -49.5t54.5 -132.5q0 -85 -54.5 -134t-134.5 -49t-135 49t-55 134
q0 83 55 132.5t135 49.5z" />
    <glyph glyph-name="zdotaccent" unicode="&#x17c;" horiz-adv-x="1134" 
d="M1026 381q36 0 55.5 -28.5t5.5 -76.5q-24 -83 -69 -219q-16 -50 -36 -71t-62 -21q-30 0 -88 17.5t-117 17.5h-570q-65 0 -82.5 43t23.5 100l465 664h-100q-53 0 -95 -22.5t-68.5 -55t-52 -64.5t-59.5 -54.5t-76 -22.5h-2q-37 0 -56 27.5t-5 76.5q8 30 16 61.5t20 77
t21 80.5q24 93 111 93q31 0 81.5 -16.5t110.5 -16.5h539q62 0 77 -44.5t-30 -111.5l-459 -653h138q53 0 97.5 22.5t74.5 55t57.5 64.5t61 54.5t71.5 22.5h2zM604 1485q80 0 134.5 -49.5t54.5 -132.5q0 -85 -54.5 -134t-134.5 -49t-135 49t-55 134q0 83 55 132.5t135 49.5z
" />
    <glyph glyph-name="Zcaron" unicode="&#x17d;" horiz-adv-x="1374" 
d="M1260 461q33 0 50 -27t11 -78q-24 -201 -45 -299q-9 -48 -31.5 -70t-66.5 -22q-30 0 -87 17.5t-118 17.5h-770q-112 0 -142 68t35 168q181 282 680 1036h-291q-53 0 -95 -31t-70.5 -75t-54 -87.5t-58 -74.5t-70.5 -31h-4q-34 0 -50.5 26t-10.5 78q25 202 45 297
q9 50 31.5 72t66.5 22q30 0 88 -17t117 -17h688q78 0 112.5 -37t25.5 -95t-54 -128q-49 -78 -351.5 -537.5t-312.5 -474.5h379q53 0 96 31t71 75t53.5 87.5t57.5 74.5t70 31h5zM950 1927q50 23 73 -9.5t-15 -72.5q-120 -116 -220 -221q-4 -4 -13.5 -14t-13 -13l-10.5 -9
t-12 -7.5t-13 -3.5t-17 -2q-8 0 -15 1t-13.5 3.5t-10.5 4.5t-10.5 8t-9.5 8.5t-11 11t-12 12.5q-110 116 -219 221q-38 40 -15.5 72.5t72.5 9.5l244 -115q157 74 241 115z" />
    <glyph glyph-name="zcaron" unicode="&#x17e;" horiz-adv-x="1134" 
d="M1026 381q36 0 55.5 -28.5t5.5 -76.5q-24 -83 -69 -219q-16 -50 -36 -71t-62 -21q-30 0 -88 17.5t-117 17.5h-570q-65 0 -82.5 43t23.5 100l465 664h-100q-53 0 -95 -22.5t-68.5 -55t-52 -64.5t-59.5 -54.5t-76 -22.5h-2q-37 0 -56 27.5t-5 76.5q8 30 16 61.5t20 77
t21 80.5q24 93 111 93q31 0 81.5 -16.5t110.5 -16.5h539q62 0 77 -44.5t-30 -111.5l-459 -653h138q53 0 97.5 22.5t74.5 55t57.5 64.5t61 54.5t71.5 22.5h2zM866 1497q50 23 73 -9.5t-15 -72.5q-109 -105 -219 -221q-3 -3 -13.5 -14t-13 -13t-10.5 -8.5t-13 -8t-13 -3.5
t-17 -2q-8 0 -15 1t-13.5 3.5t-10.5 4.5t-10.5 8t-9.5 8.5t-11 11t-12 12.5q-110 116 -219 221q-38 40 -15.5 72.5t72.5 9.5l244 -115q157 74 241 115z" />
    <glyph glyph-name="longs" unicode="&#x17f;" horiz-adv-x="735" 
d="M571 1497q145 0 252 -73t107 -189q0 -55 -34 -98.5t-103 -49.5q-53 -5 -90.5 6.5t-57 34t-32 50.5t-19 56.5t-13.5 52t-21 38.5t-36 14q-38 -1 -58.5 -32.5t-22 -80.5t15.5 -114t51 -131q20 -38 29.5 -71t9.5 -87v-534q0 -42 17.5 -76t34.5 -62.5t17 -56.5v-4
q0 -96 -276 -96q-279 0 -279 96v4q0 28 17.5 56.5t35 62t17.5 76.5v518h-49q-45 0 -69.5 23.5t-24.5 60.5q0 36 24 58t70 22h49v88q0 189 121.5 313.5t316.5 124.5z" />
    <glyph glyph-name="AEacute" unicode="&#x1fc;" horiz-adv-x="2037" 
d="M1923 434q71 0 62 -104q-9 -78 -46 -271q-9 -50 -31.5 -72t-66.5 -22q-30 0 -88 17.5t-117 17.5h-600q-198 0 -198 98v2q0 28 17 56.5t34.5 62.5t17.5 76v113h-467l-73 -121q-23 -37 -31 -66t-5.5 -45t8 -39.5t5.5 -42.5v-4q0 -49 -53.5 -72.5t-130.5 -23.5
q-70 0 -120 23t-50 67v4q0 24 19 50t44.5 47t57.5 53.5t51 62.5l540 838q20 32 20.5 60t-10.5 45.5t-22.5 42t-11.5 46.5v4q0 54 47.5 75.5t138.5 21.5h733q59 0 116.5 17t88.5 17q42 0 65 -22t34 -70q29 -159 43 -272q6 -51 -11.5 -78t-50.5 -27h-4q-37 0 -69 28t-58 68.5
t-54 80.5t-71 68t-96 28h-105q-54 0 -78 -30t-24 -103v-348h180q33 0 57.5 24t36 52.5t30.5 52.5t42 24h4q44 0 58 -55t14 -180t-14 -179.5t-58 -54.5h-4q-23 0 -42 24t-30.5 53t-36 53t-57.5 24h-180v-334q0 -73 24 -103t78 -30h146q53 0 95 28t70.5 68t54 80t58 68
t70.5 28h4zM541 569h366v596zM1360 1806q48 -75 31.5 -129t-111.5 -86q-99 -33 -152 -48t-100 -22.5t-69.5 1t-36.5 32.5q-26 43 18.5 101t192.5 190q51 45 92 53t72.5 -15.5t62.5 -76.5z" />
    <glyph glyph-name="aeacute" unicode="&#x1fd;" horiz-adv-x="1650" 
d="M1575 309q39 -25 19 -92q-25 -83 -113 -150q-124 -92 -301 -87q-146 3 -266 63.5t-185 173.5q-28 -102 -112 -169.5t-224 -67.5q-68 0 -128.5 14.5t-112.5 45t-84 84t-35 124.5q-3 93 28.5 161t90 105.5t129 54.5t157.5 17h168v84q0 115 -13.5 160t-51.5 51
q-29 4 -48.5 -11t-30 -41t-22.5 -58t-25 -62t-37.5 -54t-61 -33t-95.5 1q-45 8 -71.5 47.5t-23.5 94.5t38 103q36 49 103.5 81t136.5 43.5t143 11.5q73 0 158.5 -26t156.5 -71q128 94 291 97q102 1 188 -29t143.5 -82t91.5 -116.5t40 -133.5q9 -105 -20.5 -142.5
t-104.5 -37.5h-432q14 -73 59.5 -120t105 -62.5t121 -12.5t115.5 23l17.5 7t17 7t14.5 5.5t15 4.5t13 2t13.5 0.5t12 -2.5t12.5 -6zM516 174q90 0 90 182v117h-43q-69 0 -104 -46.5t-35 -131.5q0 -121 92 -121zM1184 854q-68 0 -106 -64t-38 -180h187q59 0 65 52q6 25 3 58
t-10 63t-33.5 50.5t-67.5 20.5zM1053 1376q48 -75 31.5 -129t-111.5 -86q-99 -33 -152 -48.5t-100 -22.5t-70 1.5t-37 32.5q-26 43 18.5 101t192.5 190q51 45 92.5 53t73 -15.5t62.5 -76.5z" />
    <glyph glyph-name="Oslashacute" unicode="&#x1fe;" 
d="M1395 1196q164 -198 164 -479q0 -167 -59 -306.5t-162 -233t-243 -145.5t-302 -52q-273 0 -469 145q-112 -109 -115 -115q-59 -56 -115 0q-59 59 0 115q3 6 111 111q-164 198 -164 481q0 223 98 391.5t268 257t386 88.5q282 0 483 -147l58.5 58.5l42.5 42.5t14 15
q57 57 114 0q59 -55 0 -114q-1 -2 -13 -14t-41.5 -42t-55.5 -57zM745 1268q-83 -7 -139.5 -82t-79 -203t-8.5 -291q7 -77 17 -125l229 229t242 240q-45 117 -112.5 178t-148.5 54zM842 166q125 10 187 169t40 406q-5 44 -16 115l-469 -469q45 -112 111.5 -170t146.5 -51z
M1008 1806q48 -75 31.5 -129t-111.5 -86q-99 -33 -152 -48.5t-100 -22.5t-70 1.5t-37 32.5q-26 43 18.5 101t192.5 190q51 45 92.5 53t73 -15.5t62.5 -76.5z" />
    <glyph glyph-name="oslashacute" unicode="&#x1ff;" horiz-adv-x="1193" 
d="M1038 821q125 -138 125 -329q0 -114 -45.5 -211t-123 -162.5t-181.5 -102t-221 -36.5q-179 0 -318 77l-84 -84q-37 -32 -62.5 -30t-53.5 30q-58 57 0 115q2 1 73 72q-127 137 -127 332q0 150 78.5 268.5t208 181t285.5 62.5q176 0 317 -80q21 20 43 42l31.5 31.5
t11.5 10.5q59 59 115 0q59 -56 0 -115zM563 836q-63 -4 -89.5 -102.5t-12.5 -254.5v-6l227 227q-24 68 -56 104t-69 32zM623 145q62 4 88 102.5t14 254.5q0 4 -2 6q-37 -38 -113 -114t-112 -113q22 -68 54 -103.5t71 -32.5zM799 1376q48 -75 31.5 -129t-111.5 -86
q-99 -33 -152 -48.5t-100 -22.5t-70 1.5t-37 32.5q-26 43 18.5 101t192.5 190q51 45 92.5 53t73 -15.5t62.5 -76.5z" />
    <glyph glyph-name="Scommaaccent" unicode="&#x218;" horiz-adv-x="1304" 
d="M670 -63q79 -3 129 -58t51 -149q1 -52 -10 -105t-30.5 -96.5t-44.5 -84t-52.5 -67.5t-54.5 -46.5t-50.5 -21t-40.5 8.5q-15 16 -14.5 30.5t13 38.5t27 45.5t26.5 50.5t12 54q0 18 -15 33.5t-36.5 29.5t-43 32t-36.5 49t-15 71q0 83 52.5 135t132.5 50zM819 889
q93 -32 163 -65t125.5 -72t89.5 -84t51 -99.5t14 -119.5t-25 -144q-42 -153 -202.5 -241.5t-368.5 -83.5q-59 2 -128 15.5t-110.5 23t-94.5 5t-102 -33.5q-48 -26 -92 -4t-53 71q-20 111 -43 367q-6 54 11 92.5t50 38.5h2q28 0 51 -22t41.5 -57t38.5 -78.5t48.5 -87.5
t65 -81.5t93.5 -64t129 -31.5q127 -9 193.5 31.5t77.5 114.5q12 76 -43.5 128t-227.5 117q-73 27 -129.5 52t-114.5 59.5t-99 71t-74 85t-46.5 103t-11 124t26.5 148.5q23 76 76.5 133.5t125.5 90t149 48t159 15.5q60 0 115 -11t84.5 -20t74 -6.5t97.5 25.5q51 23 93.5 2.5
t51.5 -70.5q13 -62 45 -323q5 -54 -12 -86.5t-49 -32.5h-5q-32 0 -64 27t-58 68t-60 88t-68.5 88t-86.5 68t-111 27q-65 0 -115 -27.5t-63 -76.5q-26 -99 44 -167.5t271 -137.5z" />
    <glyph glyph-name="scommaaccent" unicode="&#x219;" horiz-adv-x="1026" 
d="M506 -63q79 -3 129 -58t51 -149q1 -52 -10 -105t-30.5 -96.5t-44.5 -84t-52.5 -67.5t-54.5 -46.5t-50.5 -21t-40.5 8.5q-15 16 -14.5 30.5t13 38.5t27 45.5t26.5 50.5t12 54q0 18 -15 33.5t-36.5 29.5t-42.5 32t-36 49t-15 71q0 83 52 135t132 50zM616 647
q149 -58 205 -91q158 -94 152 -245q-2 -46 -17 -96q-28 -98 -102 -155.5t-169 -74t-214 -3.5q-47 5 -95.5 16.5t-71.5 17t-56.5 -0.5t-73.5 -29q-38 -20 -73.5 -2.5t-43.5 57.5q-5 26 -12 83.5t-14 128t-8 79.5q-6 43 8 73.5t41 30.5h2q26 0 46.5 -20t35 -51t37 -69
t49.5 -71.5t76 -61t112 -36.5q62 -9 100 9.5t48 53.5q14 55 -36 92.5t-182 82.5q-137 48 -209.5 119.5t-78 157.5t40.5 187q44 90 157.5 134t235.5 41q47 -1 91 -7t64.5 -9.5t49 2t63.5 24.5q38 23 74 11t43 -52q3 -25 17.5 -121t17.5 -125q4 -42 -9.5 -67t-39.5 -25h-5
q-30 0 -53.5 21t-42.5 51t-43 61t-67 55.5t-101 28.5q-83 0 -100 -51q-14 -44 17 -78.5t134 -75.5z" />
    <glyph glyph-name="circumflex" unicode="&#x2c6;" horiz-adv-x="790" 
d="M694 1255q38 -40 15.5 -72t-72.5 -9l-242 114q-157 -73 -241 -114q-51 -23 -73.5 9t15.5 72q125 125 217 222l9 9l8 8l7 7t7.5 7t7 5t7.5 4.5t7.5 3.5t8.5 3t9 1.5t11 0.5q9 0 17 -2t13 -3.5t13 -8t10.5 -8.5t13 -13t13.5 -14q55 -58 219 -222z" />
    <glyph glyph-name="caron" unicode="&#x2c7;" horiz-adv-x="792" 
d="M639 1518q50 23 72.5 -9.5t-15.5 -72.5q-98 -94 -219 -222q-3 -3 -13.5 -14t-13 -13t-10.5 -8.5t-13 -8t-13 -3.5t-17 -2q-8 0 -15 1t-13.5 3.5t-10.5 4.5t-10.5 8t-9.5 8.5t-11 11t-12 12.5q-121 128 -219 222q-38 40 -15 72.5t73 9.5l243 -115q158 74 242 115z" />
    <glyph glyph-name="breve" unicode="&#x2d8;" horiz-adv-x="741" 
d="M629 1454q43 -17 40 -85q-4 -82 -69 -153q-87 -96 -229 -96q-151 0 -239 107q-60 73 -59 151q0 60 40 76q22 8 34.5 6t26 -11t22.5 -22t25.5 -28t34 -27.5t47.5 -20.5t68 -8t68 8t47.5 20.5t34 27.5t25.5 28t22.5 22t26 11t34.5 -6z" />
    <glyph glyph-name="dotaccent" unicode="&#x2d9;" horiz-adv-x="522" 
d="M262 1505q80 0 134.5 -49.5t54.5 -132.5q0 -85 -54.5 -133.5t-134.5 -48.5t-135 49t-55 133q0 83 55 132.5t135 49.5z" />
    <glyph glyph-name="ring" unicode="&#x2da;" horiz-adv-x="624" 
d="M313 1513q97 0 168.5 -52.5t71.5 -143.5t-71.5 -144t-168.5 -53q-98 0 -169.5 53t-71.5 144t71.5 143.5t169.5 52.5zM313 1204q49 0 49 113t-49 113q-23 0 -37 -28.5t-14 -84.5t14 -84.5t37 -28.5z" />
    <glyph glyph-name="ogonek" unicode="&#x2db;" horiz-adv-x="495" 
d="M252 0l117 4q-31 -82 -43.5 -134.5t-10 -75t15 -33t28 -10t32.5 -5.5t25 -20q24 -40 -26.5 -86t-129.5 -46q-92 0 -139 44t-47 114q-2 64 44.5 131.5t133.5 116.5z" />
    <glyph glyph-name="tilde" unicode="&#x2dc;" horiz-adv-x="946" 
d="M319 1466q91 0 183 -47q97 -51 174 -57q25 -2 48.5 7t38 22t31.5 25t29 16.5t31 -2.5q17 -9 18.5 -41t-13.5 -73.5t-42 -81t-72 -66.5t-98 -27q-75 0 -209 57q-96 42 -149 37q-33 -3 -67 -27t-63.5 -40.5t-60.5 -6.5q-35 12 -21 80q17 82 82 150q72 74 160 75z" />
    <glyph glyph-name="hungarumlaut" unicode="&#x2dd;" horiz-adv-x="964" 
d="M393 1536q51 -35 71 -68.5t8.5 -73t-60.5 -85.5q-145 -137 -206 -176.5t-102 -10.5q-29 20 -29 62.5t21.5 105t75.5 185.5q40 93 94.5 104.5t126.5 -43.5zM807 1536q51 -35 71 -68.5t8 -73t-61 -85.5q-147 -139 -206 -177.5t-101 -9.5q-29 20 -29 62.5t21.5 105
t75.5 185.5q20 48 44 73.5t51.5 30.5t58 -5.5t67.5 -37.5z" />
    <glyph glyph-name="Wgrave" unicode="&#x1e80;" horiz-adv-x="2113" 
d="M1942 1440q70 0 121 -23t51 -67v-4q0 -30 -27 -60.5t-64 -70.5t-53 -82l-393 -1027q-8 -21 -15.5 -37t-21.5 -35t-35 -29.5t-47 -10.5q-56 0 -87.5 23.5t-55.5 88.5l-266 752l-295 -774q-36 -90 -115 -90q-58 0 -85.5 22.5t-55.5 89.5l-371 1002q-12 32 -35 64t-42.5 52
t-34.5 49t-15 60v2q0 58 65.5 81.5t208.5 23.5q136 0 210.5 -16.5t74.5 -67.5v-4q0 -26 -15 -58.5t-22 -55t6 -75.5l222 -635l286 820q11 27 17.5 40t20 27.5t34.5 19.5t53 5q37 0 58.5 -4.5t37.5 -21t24 -32.5t24 -55l264 -790l211 606q15 40 14 71t-9 46t-17 37t-9 42v4
q0 49 53.5 73t129.5 24zM1137 1845q148 -131 193 -189t20 -102q-14 -24 -37 -32.5t-70 -1.5t-100 22.5t-152 48.5q-95 32 -111.5 86t31.5 129q31 53 62 76.5t72 15.5t92 -53z" />
    <glyph glyph-name="wgrave" unicode="&#x1e81;" 
d="M1430 1004q70 0 121 -23.5t51 -69.5v-2q0 -30 -27 -61.5t-63.5 -71t-51.5 -78.5l-207 -557q-13 -34 -18 -46t-16 -34.5t-20.5 -30.5t-26 -19t-37 -14t-48.5 -3q-81 0 -115.5 24t-58.5 93l-114 342l-121 -312q-31 -81 -46 -102q-39 -44 -118 -45q-80 0 -117 24.5t-65 92.5
l-234 561q-15 38 -49 77t-57 73t-23 73v4q0 57 66.5 81t208.5 24q65 0 109.5 -2.5t89 -10.5t67 -26t22.5 -45v-5q0 -27 -15 -61t-22.5 -57t5.5 -76l106 -313l172 503q17 51 41 72t86 21q66 0 90 -22t45 -93l144 -461l90 279q15 40 12 71.5t-12 46.5t-19 36t-10 42v2
q0 50 54.5 74.5t130.5 24.5zM967 1415q148 -131 193 -189t20 -102q-14 -24 -37 -32.5t-70 -1.5t-100 22.5t-152 48.5q-95 32 -111.5 86t31.5 129q31 53 62 76.5t72 15.5t92 -53z" />
    <glyph glyph-name="Wacute" unicode="&#x1e82;" horiz-adv-x="2113" 
d="M1942 1440q70 0 121 -23t51 -67v-4q0 -30 -27 -60.5t-64 -70.5t-53 -82l-393 -1027q-8 -21 -15.5 -37t-21.5 -35t-35 -29.5t-47 -10.5q-56 0 -87.5 23.5t-55.5 88.5l-266 752l-295 -774q-36 -90 -115 -90q-58 0 -85.5 22.5t-55.5 89.5l-371 1002q-12 32 -35 64t-42.5 52
t-34.5 49t-15 60v2q0 58 65.5 81.5t208.5 23.5q136 0 210.5 -16.5t74.5 -67.5v-4q0 -26 -15 -58.5t-22 -55t6 -75.5l222 -635l286 820q11 27 17.5 40t20 27.5t34.5 19.5t53 5q37 0 58.5 -4.5t37.5 -21t24 -32.5t24 -55l264 -790l211 606q15 40 14 71t-9 46t-17 37t-9 42v4
q0 49 53.5 73t129.5 24zM1366 1806q48 -75 31.5 -129t-111.5 -86q-99 -33 -152 -48t-100 -22.5t-69.5 1t-36.5 32.5q-26 43 18.5 101t192.5 190q51 45 92 53t72.5 -15.5t62.5 -76.5z" />
    <glyph glyph-name="wacute" unicode="&#x1e83;" 
d="M1430 1004q70 0 121 -23.5t51 -69.5v-2q0 -30 -27 -61.5t-63.5 -71t-51.5 -78.5l-207 -557q-13 -34 -18 -46t-16 -34.5t-20.5 -30.5t-26 -19t-37 -14t-48.5 -3q-81 0 -115.5 24t-58.5 93l-114 342l-121 -312q-31 -81 -46 -102q-39 -44 -118 -45q-80 0 -117 24.5t-65 92.5
l-234 561q-15 38 -49 77t-57 73t-23 73v4q0 57 66.5 81t208.5 24q65 0 109.5 -2.5t89 -10.5t67 -26t22.5 -45v-5q0 -27 -15 -61t-22.5 -57t5.5 -76l106 -313l172 503q17 51 41 72t86 21q66 0 90 -22t45 -93l144 -461l90 279q15 40 12 71.5t-12 46.5t-19 36t-10 42v2
q0 50 54.5 74.5t130.5 24.5zM1096 1376q48 -75 31.5 -129t-111.5 -86q-99 -33 -152 -48.5t-100 -22.5t-70 1.5t-37 32.5q-26 43 18.5 101t192.5 190q51 45 92.5 53t73 -15.5t62.5 -76.5z" />
    <glyph glyph-name="Wdieresis" unicode="&#x1e84;" horiz-adv-x="2113" 
d="M1942 1440q70 0 121 -23t51 -67v-4q0 -30 -27 -60.5t-64 -70.5t-53 -82l-393 -1027q-8 -21 -15.5 -37t-21.5 -35t-35 -29.5t-47 -10.5q-56 0 -87.5 23.5t-55.5 88.5l-266 752l-295 -774q-36 -90 -115 -90q-58 0 -85.5 22.5t-55.5 89.5l-371 1002q-12 32 -35 64t-42.5 52
t-34.5 49t-15 60v2q0 58 65.5 81.5t208.5 23.5q136 0 210.5 -16.5t74.5 -67.5v-4q0 -26 -15 -58.5t-22 -55t6 -75.5l222 -635l286 820q11 27 17.5 40t20 27.5t34.5 19.5t53 5q37 0 58.5 -4.5t37.5 -21t24 -32.5t24 -55l264 -790l211 606q15 40 14 71t-9 46t-17 37t-9 42v4
q0 49 53.5 73t129.5 24zM940 1915q80 0 134 -49.5t54 -132.5q0 -85 -54 -134t-134 -49t-135 49t-55 134q0 83 55 132.5t135 49.5zM1378 1915q80 0 134.5 -49.5t54.5 -132.5q0 -85 -54.5 -134t-134.5 -49t-135 49t-55 134q0 83 55 132.5t135 49.5z" />
    <glyph glyph-name="wdieresis" unicode="&#x1e85;" 
d="M1430 1004q70 0 121 -23.5t51 -69.5v-2q0 -30 -27 -61.5t-63.5 -71t-51.5 -78.5l-207 -557q-13 -34 -18 -46t-16 -34.5t-20.5 -30.5t-26 -19t-37 -14t-48.5 -3q-81 0 -115.5 24t-58.5 93l-114 342l-121 -312q-31 -81 -46 -102q-39 -44 -118 -45q-80 0 -117 24.5t-65 92.5
l-234 561q-15 38 -49 77t-57 73t-23 73v4q0 57 66.5 81t208.5 24q65 0 109.5 -2.5t89 -10.5t67 -26t22.5 -45v-5q0 -27 -15 -61t-22.5 -57t5.5 -76l106 -313l172 503q17 51 41 72t86 21q66 0 90 -22t45 -93l144 -461l90 279q15 40 12 71.5t-12 46.5t-19 36t-10 42v2
q0 50 54.5 74.5t130.5 24.5zM649 1485q80 0 134.5 -49.5t54.5 -132.5q0 -85 -54.5 -134t-134.5 -49t-135 49t-55 134q0 83 55 132.5t135 49.5zM1087 1485q80 0 134.5 -49.5t54.5 -132.5q0 -85 -54.5 -134t-134.5 -49t-135 49t-55 134q0 83 55 132.5t135 49.5z" />
    <glyph glyph-name="Ygrave" unicode="&#x1ef2;" horiz-adv-x="1304" 
d="M1135 1440q70 0 120 -23t50 -67v-4q0 -24 -16.5 -49.5t-39 -45.5t-50 -52.5t-44.5 -65.5l-268 -519v-340q0 -42 17.5 -76t34.5 -62t17 -56v-2q0 -19 -9.5 -33.5t-29.5 -23t-43 -14.5t-58 -8.5t-65 -3.5t-73 -1t-73 1t-65 3.5t-57.5 8.5t-42.5 14.5t-29.5 23t-9.5 33.5v2
q0 28 17.5 56t35 62t17.5 76v283l-321 535q-21 34 -62.5 80.5t-64.5 83t-23 77.5v2q0 58 65.5 81.5t208.5 23.5q65 0 112.5 -2.5t97 -10.5t76 -26t26.5 -45v-4q0 -22 -10 -46t-19.5 -40.5t-9.5 -43.5t16 -59l217 -424l187 408q19 40 20.5 70t-8 45t-19.5 36t-10 41v4
q0 49 54 73t131 24zM711 1845q148 -131 193 -189t20 -102q-14 -24 -37 -32.5t-70 -1.5t-100 22.5t-152 48.5q-95 32 -111.5 86t31.5 129q31 53 62 76.5t72 15.5t92 -53z" />
    <glyph glyph-name="ygrave" unicode="&#x1ef3;" horiz-adv-x="1136" 
d="M981 1004q68 0 112 -23t44 -70v-2q0 -30 -25 -62t-60 -72t-51 -79q-231 -569 -233 -575q-66 -164 -122.5 -274.5t-108 -173t-91.5 -92t-94 -52.5q-33 -14 -79 -19.5t-102 2t-101 29.5q-31 15 -55.5 43t-36.5 62t-4.5 73t38.5 72q49 49 117 43t117 -57q23 -23 42 -35.5
t44 -15t48.5 14t53 58.5t60.5 111l-375 760q-18 39 -55.5 79t-62 73.5t-24.5 72.5v4q0 56 68.5 79.5t206.5 25.5q65 -1 108 -4t89 -11t69 -25.5t23 -43.5v-5q0 -26 -13.5 -60t-18 -56t12.5 -78l158 -397l135 383q15 40 15 70t-8 46t-16.5 38t-8.5 42v2q0 50 53.5 74.5
t130.5 24.5zM653 1415q148 -131 193 -189t20 -102q-14 -24 -36.5 -32.5t-69.5 -1t-100 22.5t-152 48q-95 32 -111.5 86t31.5 129q31 53 61.5 76.5t71.5 15.5t92 -53z" />
    <glyph glyph-name="endash" unicode="&#x2013;" horiz-adv-x="1048" 
d="M895 793q46 0 64 -20.5t18 -59.5t-18 -60.5t-64 -21.5h-741q-82 0 -82 82q0 80 82 80h741z" />
    <glyph glyph-name="emdash" unicode="&#x2014;" horiz-adv-x="1155" 
d="M1001 793q82 0 82 -80q0 -82 -82 -82h-847q-46 0 -64 21.5t-18 60.5t18 59.5t64 20.5h847z" />
    <glyph glyph-name="quoteleft" unicode="&#x2018;" horiz-adv-x="509" 
d="M254 1014q-79 3 -129 58t-51 149q-1 52 10 104.5t30.5 96.5t44.5 84.5t52 67.5t54 46t50.5 20.5t40.5 -8.5q15 -16 14.5 -30.5t-13 -38.5t-26.5 -46t-26 -51.5t-12 -54.5q0 -17 15 -32t36.5 -29t42.5 -32t36 -49.5t15 -72.5q0 -81 -52 -132.5t-132 -49.5z" />
    <glyph glyph-name="quoteright" unicode="&#x2019;" horiz-adv-x="512" 
d="M256 1489q79 -2 129 -57t53 -150q1 -40 -6 -81t-19 -77.5t-29 -71.5t-36.5 -62.5t-41 -52.5t-42.5 -40t-41.5 -25.5t-37.5 -9.5t-31 10q-15 16 -14.5 30.5t13 39t26.5 46t26 50.5t12 54q0 18 -15 33.5t-36.5 29.5t-42.5 32t-36 49t-15 71q0 83 52.5 134t131.5 48z" />
    <glyph glyph-name="quotesinglbase" unicode="&#x201a;" horiz-adv-x="509" 
d="M256 344q79 -2 129 -57t51 -150q1 -51 -10 -103.5t-30.5 -96t-44.5 -84t-52 -67.5t-54 -46t-50.5 -20.5t-40.5 8.5q-15 16 -14.5 30.5t13 38.5t26.5 45.5t26 50.5t12 54q0 17 -15 32t-36.5 29.5t-42.5 32.5t-36 49.5t-15 71.5q0 83 52 134t132 48z" />
    </font>
</defs>
</svg>
